<svg width="290" height="149" viewBox="0 0 290 149" fill="none" xmlns="http://www.w3.org/2000/svg">
<path d="M216.326 80.2142C221.276 75.2883 229.305 74.6015 234.333 69.7551C237.326 66.8637 239.325 62.4981 243.339 61.395C246.443 60.5412 250.108 61.933 252.792 60.1512C254.595 58.9511 255.609 56.4791 257.741 56.1122C259.989 55.7256 261.899 58.2156 261.788 60.494C261.683 62.7756 260.228 64.7446 258.787 66.5101C257.339 68.2724 255.783 70.1107 255.38 72.3584C255.032 74.3271 255.622 76.408 255.03 78.3121C253.642 82.814 247.422 83.0784 243.526 85.7199C240.405 87.8354 238.835 91.524 236.955 94.7879C232.139 103.171 221.499 110.982 212.352 103.532C205.589 98.034 211.33 85.1829 216.326 80.2142Z" fill="#FEDB4F"/>
<path d="M255.033 78.313C255.619 76.4057 255.037 74.3222 255.383 72.3593C255.78 70.1084 257.339 68.279 258.789 66.511C260.237 64.7487 261.685 62.7765 261.791 60.4949C261.792 60.4506 261.79 60.4121 261.792 60.3679C257.425 61.8432 253.054 67.9716 251.057 70.5782C246.687 74.6313 240.428 76.2808 236.335 80.6125C235.074 81.9496 234.053 83.5079 232.766 84.8234C229.683 87.9897 225.35 89.5134 221.438 91.5751C218.984 92.8651 216.655 94.3959 214.499 96.1338C212.878 97.4407 211.301 98.9443 210.598 100.901C210.546 101.038 210.506 101.181 210.465 101.325C210.936 102.145 211.552 102.894 212.346 103.536C221.493 110.985 232.133 103.175 236.948 94.7914C238.826 91.5185 240.399 87.839 243.52 85.7235C247.424 83.0792 253.648 82.8091 255.033 78.313Z" fill="#FAD14B"/>
<path d="M212.224 99.9665C212.207 99.957 212.195 99.9507 212.181 99.9354C212.014 99.8143 211.978 99.5766 212.099 99.4093C216.359 93.5816 222.055 88.8735 228.585 85.7996C229.226 85.4935 229.886 85.2059 230.519 84.9262C232.369 84.1119 234.281 83.2644 235.921 82.0734C238.256 80.3802 240.114 77.9462 241.919 75.5961C244.525 72.1857 247.222 68.6661 251.38 67.4231C251.577 67.3648 251.792 67.4816 251.85 67.6787C251.908 67.8759 251.791 68.0906 251.594 68.1488C247.672 69.3173 245.171 72.5894 242.518 76.0572C240.688 78.4538 238.793 80.9279 236.367 82.6919C234.663 83.9309 232.712 84.7948 230.823 85.6255C230.19 85.9052 229.536 86.196 228.902 86.4904C222.489 89.5152 216.889 94.1409 212.701 99.8646C212.595 100.018 212.387 100.055 212.224 99.9665Z" fill="#C74428"/>
<path d="M129.579 59.7422C126.028 53.1118 117.459 50.0869 113.793 43.5186C111.612 39.6013 111.093 34.4089 107.101 32.0924C104.015 30.3005 99.4476 30.7245 97.1807 28.0706C95.6585 26.2843 95.4945 23.3778 93.2899 22.3792C90.9652 21.3266 87.9066 23.4155 87.1523 25.8588C86.3904 28.3038 87.2329 30.8041 88.1395 33.0852C89.0537 35.3647 90.0587 37.7558 89.637 40.2501C89.2633 42.4336 87.8132 44.467 87.7319 46.6518C87.527 51.8139 94.2682 53.8739 97.5379 57.7848C100.157 60.9171 100.465 65.2704 101.278 69.2632C103.351 79.5145 112.051 90.826 124.979 85.5597C134.535 81.6758 133.164 66.431 129.579 59.7422Z" fill="#FEDB4F"/>
<path d="M87.7261 46.6584C87.8151 44.4719 89.2563 42.4331 89.6313 40.2566C90.0605 37.7607 89.0493 35.3783 88.1338 33.0918C87.2196 30.8124 86.3847 28.3104 87.1466 25.8654C87.1619 25.8181 87.1785 25.7778 87.1939 25.7305C91.4306 28.5419 93.8813 36.2792 95.0752 39.6095C98.3237 45.1502 104.575 48.6874 107.411 54.4436C108.284 56.2197 108.807 58.1611 109.717 59.9218C111.891 64.1554 116.072 67.0084 119.582 70.3099C121.785 72.3775 123.758 74.6644 125.461 77.1208C126.742 78.968 127.898 81.0108 127.919 83.2828C127.924 83.4428 127.913 83.6062 127.902 83.7696C127.068 84.503 126.103 85.119 124.983 85.5717C112.054 90.838 103.354 79.5265 101.282 69.2751C100.475 65.2736 100.16 60.929 97.541 57.7968C94.2625 53.8805 87.52 51.8134 87.7261 46.6584Z" fill="#FAD14B"/>
<path d="M126.494 81.8143C126.517 81.8093 126.532 81.8059 126.554 81.7938C126.784 81.7135 126.915 81.4723 126.847 81.2605C124.402 73.8732 119.947 67.2598 113.945 62.1373C113.359 61.6302 112.743 61.1367 112.154 60.6594C110.433 59.2684 108.655 57.824 107.309 56.094C105.391 53.6336 104.284 50.5258 103.203 47.5219C101.647 43.1663 100.035 38.6694 95.9389 36.1637C95.7445 36.0457 95.4633 36.1078 95.3234 36.2998C95.1835 36.4918 95.2294 36.7525 95.4238 36.8705C99.2888 39.2297 100.782 43.4088 102.367 47.8386C103.458 50.8988 104.59 54.0597 106.58 56.621C107.978 58.4201 109.793 59.893 111.55 61.3126C112.14 61.7899 112.748 62.285 113.332 62.7781C119.223 67.815 123.603 74.3133 126.009 81.5701C126.067 81.7624 126.281 81.8613 126.494 81.8143Z" fill="#C74428"/>
<path d="M220.658 98.1831C222.693 97.3995 223.997 95.4481 225.682 94.0725C229.267 91.14 234.894 91.0832 238.54 93.9316C240.092 95.1476 241.533 96.9086 243.504 96.9151C245.564 96.9209 247.231 94.938 249.291 94.9531C252.227 94.9665 253.529 98.9075 252.712 101.723C251.618 105.51 248.135 108.488 244.225 108.988C242.822 109.167 241.369 109.054 240.003 109.442C236.271 110.497 234.503 114.747 231.356 117.025C228.187 119.32 223.528 119.289 220.391 116.953C218.906 115.85 217.283 114.184 215.544 114.823C214.523 115.199 213.942 116.264 213.115 116.979C206.578 122.618 194.025 112.379 197.672 104.552C199.333 100.992 203.495 98.6421 207.209 97.9154C211.585 97.0595 216.556 99.7665 220.658 98.1831Z" fill="#FEDB4F"/>
<path d="M252.717 101.716C252.833 101.316 252.905 100.886 252.935 100.453C250.849 100.318 248.767 100.796 246.723 101.271C244.863 101.707 242.975 102.145 241.274 103.021C239.485 103.934 237.903 105.313 235.953 105.801C232.703 106.612 229.096 104.786 226.005 106.074C224.636 106.644 223.571 107.757 222.282 108.496C218.94 110.417 214.783 109.551 210.934 109.284C206.605 108.981 201.944 109.752 198.254 111.876C201.158 117.147 208.592 120.879 213.124 116.967C213.951 116.252 214.522 115.188 215.553 114.811C217.292 114.172 218.914 115.838 220.4 116.941C223.537 119.277 228.196 119.308 231.365 117.013C234.508 114.74 236.276 110.49 240.011 109.43C241.373 109.047 242.827 109.16 244.233 108.976C248.139 108.481 251.618 105.499 252.717 101.716Z" fill="#FAD14B"/>
<path d="M197.243 109.091C197.134 108.994 197.087 108.838 197.134 108.695C197.197 108.494 197.41 108.383 197.611 108.446C202.331 109.951 207.912 109.368 214.191 106.721C214.752 106.486 215.321 106.231 215.873 105.987C218.876 104.658 221.976 103.29 225.282 103.561C226.689 103.677 228.048 104.095 229.359 104.497C230.385 104.814 231.453 105.142 232.521 105.311C235.891 105.85 239.76 104.899 244.026 102.482C244.207 102.377 244.44 102.443 244.545 102.624C244.65 102.804 244.584 103.038 244.403 103.142C239.983 105.644 235.947 106.624 232.408 106.058C231.292 105.882 230.2 105.541 229.146 105.217C227.872 104.822 226.556 104.425 225.229 104.309C222.12 104.053 219.108 105.383 216.191 106.674C215.635 106.923 215.061 107.174 214.495 107.414C208.043 110.137 202.289 110.726 197.388 109.166C197.331 109.151 197.282 109.126 197.243 109.091Z" fill="#C74428"/>
<path d="M107.517 98.1831C105.482 97.3995 104.178 95.4481 102.492 94.0725C98.9078 91.14 93.281 91.0832 89.635 93.9316C88.0821 95.1476 86.6412 96.9086 84.6704 96.9151C82.6108 96.9209 80.9436 94.938 78.8834 94.9531C75.9481 94.9665 74.646 98.9075 75.4622 101.723C76.5563 105.51 80.0398 108.488 83.9501 108.988C85.3526 109.167 86.8056 109.054 88.1721 109.442C91.9035 110.497 93.6715 114.747 96.8184 117.025C99.9877 119.32 104.646 119.289 107.784 116.953C109.269 115.85 110.891 114.184 112.631 114.823C113.652 115.199 114.233 116.264 115.06 116.979C121.597 122.618 134.149 112.379 130.502 104.552C128.842 100.992 124.679 98.6421 120.965 97.9154C116.59 97.0595 111.619 99.7665 107.517 98.1831Z" fill="#FEDB4F"/>
<path d="M75.4578 101.716C75.3418 101.316 75.2697 100.886 75.2398 100.453C77.326 100.318 79.4077 100.796 81.4521 101.271C83.3117 101.707 85.1993 102.145 86.9011 103.021C88.6895 103.934 90.2718 105.313 92.2218 105.801C95.472 106.612 99.0792 104.786 102.169 106.074C103.539 106.644 104.604 107.757 105.893 108.496C109.234 110.417 113.391 109.551 117.241 109.284C121.57 108.981 126.231 109.752 129.921 111.876C127.017 117.147 119.582 120.879 115.051 116.967C114.224 116.252 113.652 115.188 112.622 114.811C110.883 114.172 109.26 115.838 107.775 116.941C104.638 119.277 99.979 119.308 96.8097 117.013C93.6672 114.74 91.8992 110.49 88.1633 109.43C86.8013 109.047 85.3482 109.16 83.9413 108.976C80.0354 108.481 76.5569 105.499 75.4578 101.716Z" fill="#FAD14B"/>
<path d="M130.932 109.091C131.041 108.994 131.088 108.838 131.04 108.695C130.978 108.494 130.764 108.383 130.564 108.446C125.844 109.951 120.263 109.368 113.984 106.721C113.423 106.486 112.853 106.231 112.302 105.987C109.298 104.658 106.199 103.29 102.892 103.561C101.486 103.677 100.127 104.095 98.8153 104.497C97.7898 104.814 96.7214 105.142 95.6534 105.311C92.2837 105.85 88.4149 104.899 84.1485 102.482C83.9676 102.377 83.7343 102.443 83.6297 102.624C83.5251 102.804 83.5905 103.038 83.7714 103.142C88.1917 105.644 92.2273 106.624 95.7672 106.058C96.8824 105.882 97.9748 105.541 99.0289 105.217C100.303 104.822 101.618 104.425 102.945 104.309C106.054 104.053 109.067 105.383 111.984 106.674C112.54 106.923 113.114 107.174 113.68 107.414C120.132 110.137 125.886 110.726 130.787 109.166C130.844 109.151 130.892 109.126 130.932 109.091Z" fill="#C74428"/>
<path d="M107.931 78.9639C106.103 77.3264 105.591 74.6663 104.408 72.5026C101.894 67.8931 95.8802 65.7108 90.6706 67.5037C88.4504 68.2704 86.1025 69.685 83.9841 68.95C81.7706 68.1807 80.8831 65.3489 78.6648 64.5898C75.5079 63.4991 72.3171 67.3891 71.9123 70.8261C71.3636 75.4477 73.748 80.0695 77.7179 82.0979C79.1421 82.825 80.7531 83.2468 82.0437 84.192C85.5689 86.7703 85.5334 92.1595 87.8745 95.8775C90.2328 99.6211 95.2472 101.342 99.678 99.9268C101.774 99.26 104.273 98.0196 105.85 99.3854C106.775 100.187 106.914 101.59 107.476 102.696C111.927 111.426 130.06 104.773 129.707 94.6992C129.544 90.1174 126.145 85.9377 122.489 83.7312C118.181 81.1321 111.614 82.2686 107.931 78.9639Z" fill="#FEDB4F"/>
<path d="M71.9042 70.8377C71.9617 70.3492 72.08 69.8437 72.2447 69.3519C74.5456 69.9874 76.5628 71.3023 78.5411 72.6006C80.3388 73.7856 82.1658 74.9831 83.5941 76.5974C85.0981 78.2866 86.1693 80.4148 88.0403 81.692C91.1603 83.8174 95.863 83.1465 98.5941 85.7417C99.8047 86.891 100.441 88.5293 101.489 89.8354C104.202 93.2291 109.058 93.8325 113.312 94.9859C118.096 96.2795 122.749 98.8912 125.744 102.642C120.228 107.407 110.55 108.755 107.466 102.7C106.903 101.594 106.774 100.196 105.839 99.3898C104.263 98.024 101.764 99.2645 99.6675 99.9312C95.2367 101.347 90.2223 99.6255 87.864 95.8819C85.5253 92.1711 85.5608 86.7819 82.0331 84.1964C80.745 83.2584 79.134 82.8366 77.7074 82.1023C73.7399 80.0811 71.3628 75.4563 71.9042 70.8377Z" fill="#FAD14B"/>
<path d="M128.099 99.9203C128.259 99.8542 128.381 99.6982 128.395 99.5211C128.419 99.2748 128.241 99.0708 127.997 99.065C122.245 98.9605 116.52 96.2108 110.984 90.9038C110.489 90.4307 109.993 89.9332 109.513 89.4542C106.894 86.8455 104.189 84.1578 100.516 83.2143C98.9537 82.8132 97.3044 82.766 95.7136 82.7191C94.4687 82.6849 93.1726 82.6473 91.9493 82.433C88.0868 81.7631 84.3668 79.2486 80.8869 74.9552C80.7403 74.7709 80.4602 74.7556 80.2656 74.9173C80.071 75.0789 80.0351 75.3628 80.1816 75.5472C83.7885 79.9922 87.6744 82.6016 91.7318 83.3054C93.0087 83.5303 94.3364 83.5631 95.6154 83.5995C97.1624 83.6399 98.7557 83.6939 100.233 84.0648C103.686 84.9518 106.315 87.5647 108.859 90.0984C109.342 90.5847 109.845 91.0791 110.343 91.5593C116.03 97.0162 121.938 99.8374 127.909 99.9496C127.977 99.9541 128.04 99.9444 128.099 99.9203Z" fill="#C74428"/>
<path d="M166.863 76.2198L120.596 73.0256C111.408 72.388 107.913 60.9283 115.225 55.4094L132.872 42.1051L164.436 18.313C168.455 15.2782 174.136 15.6793 177.681 19.2231L205.468 47.1165L221.005 62.7178C227.448 69.1844 222.318 80.0517 213.131 79.4239L166.863 76.2198Z" fill="#8EC2E9"/>
<path d="M190.659 121.212L141.523 121.105C135.829 121.093 131.22 116.46 131.232 110.765L131.426 26.1313C131.438 20.4365 136.07 15.8276 141.765 15.8396L190.901 15.9467C196.596 15.9587 201.204 20.5915 201.192 26.2864L200.999 110.92C200.987 116.615 196.364 121.223 190.659 121.212Z" fill="#D1D7E6"/>
<path d="M192.761 125.609L143.561 122.767C137.913 122.444 133.605 117.598 133.929 111.95L138.732 28.8627C139.056 23.2148 143.901 18.9067 149.549 19.2304L198.749 22.072C204.397 22.3958 208.705 27.2409 208.381 32.8888L203.577 115.977C203.244 121.625 198.408 125.933 192.761 125.609Z" fill="#F4F2F3"/>
<path d="M175.291 38.075L148.983 36.5557C147.441 36.4702 146.267 35.1406 146.352 33.5985C146.438 32.0565 147.768 30.8821 149.31 30.9676L175.617 32.487C177.159 32.5725 178.333 33.9021 178.248 35.4441C178.152 36.9866 176.833 38.1705 175.291 38.075Z" fill="#CDCCCA"/>
<path d="M196.728 52.3835L147.588 49.5394C145.966 49.4473 144.719 48.0508 144.821 46.4281C144.913 44.8059 146.309 43.5588 147.932 43.6609L197.072 46.505C198.694 46.5971 199.941 47.9936 199.839 49.6163C199.746 51.2285 198.36 52.4752 196.728 52.3835Z" fill="#ECEBEB"/>
<path d="M195.391 63.677L146.932 60.8744C145.31 60.7823 144.063 59.3858 144.165 57.7631C144.257 56.1409 145.654 54.8938 147.276 54.9959L195.735 57.7985C197.357 57.8906 198.604 59.2871 198.502 60.9098C198.41 62.532 197.013 63.7691 195.391 63.677Z" fill="#ECEBEB"/>
<path d="M194.805 73.8231L146.346 71.0205C144.724 70.9284 143.477 69.5319 143.579 67.9093C143.671 66.287 145.068 65.0399 146.69 65.142L195.149 67.9446C196.771 68.0368 198.018 69.4333 197.916 71.0559C197.824 72.6782 196.427 73.9153 194.805 73.8231Z" fill="#ECEBEB"/>
<path d="M180.039 85.5294L145.259 83.5145C143.837 83.4339 142.747 82.2107 142.828 80.7888L142.867 80.0578C142.948 78.6359 144.171 77.5459 145.593 77.6264L180.372 79.6413C181.794 79.7218 182.884 80.9451 182.804 82.367L182.764 83.0979C182.684 84.5298 181.461 85.6099 180.039 85.5294Z" fill="#ECEBEB"/>
<path d="M109.309 90.0717L111.195 63.4495C111.693 56.4657 119.565 52.6406 125.363 56.5545L147.476 71.5057L169.588 86.4569C175.386 90.3808 174.772 99.1077 168.476 102.168L144.477 113.839L120.479 125.51C114.183 128.57 106.935 123.667 107.423 116.684L109.309 90.0717Z" fill="#D6E2F3"/>
<path d="M221.871 98.0629L219.985 124.685C219.487 131.669 211.615 135.494 205.817 131.58L183.705 116.629L161.592 101.678C155.794 97.7539 156.409 89.0269 162.705 85.967L186.703 74.296L210.701 62.625C216.997 59.565 224.245 64.4673 223.757 71.4507L221.871 98.0629Z" fill="#D6E2F3"/>
<path d="M163.054 129.777L115.881 126.431C107.004 125.803 103.616 114.525 110.683 109.116L129.037 95.0428L160.817 70.6694C164.698 67.6902 170.189 68.0804 173.612 71.5739L201.639 100.194L217.824 116.722C224.053 123.075 219.104 133.761 210.227 133.133L163.054 129.777Z" fill="#8EC2E9"/>
<path fill-rule="evenodd" clip-rule="evenodd" d="M28.183 83.2912L21.4404 83.2912C17.17 83.2912 13.7135 79.8243 13.7044 75.5523L13.7044 63.386C13.7044 59.1141 17.17 55.6471 21.4404 55.6471L38.7688 55.6471C43.0392 55.6471 46.5049 59.1141 46.5049 63.386L46.5049 75.5523C46.5049 79.8243 43.0392 83.2912 38.7688 83.2912L32.0327 83.2912L32.0327 93.785L46.0117 93.785C49.2762 93.785 51.9189 96.4286 51.9189 99.6943L51.9189 102.274C51.9189 105.54 49.2762 108.183 46.0117 108.183L41.5303 108.183L41.5303 109.489C41.5303 111.19 40.1403 112.581 38.4395 112.581L32.5323 112.581L32.5323 142.055L39.3265 142.055C40.5427 142.055 41.5303 143.043 41.5303 144.26C41.5303 145.476 40.5427 146.464 39.3265 146.464L20.9008 146.464C19.6846 146.464 18.697 145.476 18.697 144.26C18.697 143.043 19.6846 142.055 20.9008 142.055L27.6858 142.055L27.6858 112.581L21.7878 112.581C20.0778 112.581 18.697 111.199 18.697 109.489L18.697 108.183L14.2079 108.183C10.9434 108.183 8.30069 105.54 8.30069 102.274L8.30069 99.6943C8.30069 96.4286 10.9434 93.785 14.2079 93.785L28.183 93.785L28.183 83.2912Z" fill="url(#paint0_linear_3767_18932)"/>
<path d="M42.576 50.7265C42.576 50.7265 51.4085 49.0667 53.7204 46.8141C57.86 42.7535 62.7901 32.271 62.7901 32.271C66.1591 29.9394 68.2437 26.8569 67.4632 25.3947C66.0603 22.8062 63.867 28.2993 62.2961 28.1116C62.2961 28.1116 62.6715 25.7108 61.3476 25.8788C60.0237 26.0468 59.2432 30.9274 59.2432 30.9274C55.8248 34.5039 52.1001 39.1177 50.3613 41.0542C49.7289 41.1332 41.2817 41.3605 37.2804 44.1466C38.6932 47.318 39.6318 50.2819 42.576 50.7265Z" fill="#F9CBCB"/>
<path d="M37.2006 40.5505C37.2006 40.5505 35.1654 41.2124 37.8329 46.8538C40.5005 52.4952 45.4305 50.8353 50.7458 49.1064L48.6118 41.0543C48.6118 41.0543 40.787 39.9478 37.2006 40.5505Z" fill="url(#paint1_linear_3767_18932)"/>
<path d="M50.6868 98.6929C50.42 101.904 49.6197 128.48 50.6571 135.693C52.0205 135.831 53.3247 135.722 54.4905 135.011C54.4905 135.011 55.7452 117.791 56.4269 108.612C56.6047 106.281 56.7035 104.206 56.6739 102.635C56.5949 93.7826 48.4737 69.8636 47.95 68.3026L47.9303 68.2433L47.9303 68.2235L35.6299 68.105C31.8064 86.3036 43.4449 83.4384 50.6868 98.6929Z" fill="#F9CBCB"/>
<path d="M57.968 101.42C58.215 105.036 57.9186 109.027 57.3061 117C56.8022 123.61 56.2094 129.053 55.7747 132.778C55.2214 132.917 54.6583 133.035 54.0951 133.104C52.5045 133.302 50.904 133.351 49.3133 133.233C47.5152 127.71 45.9048 111.25 46.7742 104.621C44.571 99.997 35.3531 91.53 34.8295 77.6686C34.7208 74.3688 35.0666 71.0689 35.857 67.8679L48.1574 67.9766L48.1574 68.0062L48.1771 68.0655C48.2068 68.1742 48.3056 68.4014 48.434 68.7274C49.6591 71.6518 50.5483 73.7958 50.8842 74.5861C50.8842 74.5861 51.8327 76.7696 53.5517 81.3143C57.2468 91.0459 57.968 101.42 57.968 101.42Z" fill="url(#paint2_linear_3767_18932)"/>
<path opacity="0.1" d="M54.0956 133.114C52.5049 133.312 50.9044 133.361 49.3138 133.243C47.5156 127.72 45.9052 111.26 46.7746 104.631C44.5714 100.007 35.3536 91.5399 34.83 77.6786C38.7522 74.112 45.7076 68.9745 45.8163 68.9053L48.4542 68.7275C48.879 69.7846 49.788 71.8989 50.9044 74.5862C50.7562 75.9298 50.1437 77.1747 49.1656 78.1034C45.6088 81.3736 50.0646 88.1512 48.4048 93.9704C46.8339 99.4734 49.0272 102.586 51.9121 102.615C51.9121 102.615 49.6003 103.564 49.5212 107.901C49.4323 112.238 52.6432 120.261 51.1909 124.785C50.0152 128.401 52.1394 131.909 54.0956 133.114Z" fill="black"/>
<path d="M24.9601 136.068C24.9601 136.068 29.7024 124.677 33.6741 117.988C34.4743 116.595 35.3339 115.242 36.2725 113.948C41.815 106.478 42.5659 70.674 42.5659 70.674L34.504 71.6126C27.2522 80.2574 31.5796 91.3228 32.0933 102.388C32.2711 106.222 27.9438 109.729 26.3433 113.078C26.037 113.76 25.7406 114.432 25.4343 115.133C23.4781 119.994 22.3222 126.149 21.68 135.298C22.5395 137.007 23.5078 137.975 24.9601 136.068Z" fill="#F9CBCB"/>
<path d="M45.3517 72.3633C45.3813 72.7782 45.4011 73.4204 45.4307 74.1911C45.6876 81.8578 46.1914 96.4009 39.8684 109.541C36.7957 115.913 34.4839 117.04 29.791 127.265C28.4671 130.16 27.489 132.6 26.8567 134.25C25.7896 134.152 24.7424 133.984 23.705 133.737C22.7368 133.48 21.818 133.055 20.9782 132.521C21.2054 131.958 21.156 122.918 25.6908 111.991C27.2914 108.118 30.0478 105.224 29.791 100.857C29.1685 90.1568 27.1926 79.9905 34.1974 71.6322L42.5063 72.1756L45.3517 72.3633Z" fill="url(#paint3_linear_3767_18932)"/>
<path opacity="0.1" d="M42.4668 72.1857L41.9531 76.839C41.5776 76.8687 39.4831 81.4332 33.9998 82.8163C28.5165 84.1995 30.4233 103.021 34.1579 103.821C33.4959 103.85 32.8636 104.068 32.3203 104.433C31.7867 104.809 31.3619 105.332 31.0952 105.935C30.0973 108.109 29.3662 114.995 26.3924 118.7C23.8928 121.812 22.727 130.427 23.6655 133.747C22.6973 133.49 21.7785 133.065 20.9387 132.531C21.166 131.968 21.1166 122.928 25.6514 112.011C27.2519 108.138 29.9985 105.243 29.7515 100.877C29.1291 90.1768 27.1531 80.0105 34.1579 71.6521L42.4668 72.1857Z" fill="black"/>
<path d="M50.2124 73.5093C50.1729 74.4775 48.928 75.5643 47.9796 75.8014C46.6161 76.1274 45.2429 76.3942 43.8498 76.5819C42.9013 76.7103 41.9529 76.819 40.9847 76.8882L40.4511 76.9178C37.4971 77.1055 34.5331 77.066 31.5692 76.819C31.253 76.7894 30.927 76.7004 30.6504 76.5325C30.4034 76.3744 30.186 76.1768 30.0082 75.9298C29.8304 75.6828 29.7118 75.4161 29.6525 75.1197C28.7436 70.98 26.3033 59.4009 25.7698 52.6826C25.6611 51.6255 25.6314 50.5585 25.6808 49.4915C25.829 47.8119 26.4515 46.2114 27.4691 44.8677C28.9115 42.9708 30.8974 41.558 33.1697 40.8466L35.1852 40.6886L37.4279 40.5107C44.2845 41.5185 46.9619 49.4322 47.7326 54.461C47.861 55.2613 47.9499 56.0714 47.9796 56.8717C48.1376 59.6874 48.4834 62.4834 49.0071 65.2498C49.6591 68.7373 50.2914 71.6815 50.2124 73.5093Z" fill="url(#paint4_linear_3767_18932)"/>
<path d="M33.2391 71.2964C34.642 74.1418 39.7894 75.7819 41.0046 76.9082L40.4711 76.9477C37.517 77.1255 34.5531 77.0959 31.5892 76.839C31.273 76.8094 30.947 76.7204 30.6703 76.5525C30.4233 76.3944 30.206 76.1968 30.0282 75.9498C29.8503 75.7028 29.7318 75.4361 29.6725 75.1397C28.7635 71 26.3232 59.4209 25.7897 52.7026C25.681 51.6455 25.6514 50.5785 25.7008 49.5115C25.7897 48.1283 27.0445 45.0162 29.6132 45.2434C35.4917 45.7571 48.6121 62.4738 48.6121 62.4738C48.6121 62.4738 44.2057 65.9218 39.1373 65.3587C34.0591 64.7856 31.599 67.9768 33.2391 71.2964Z" fill="#F1CA44"/>
<path d="M60.7937 138.064C60.6258 137.748 60.3985 137.481 60.112 137.273C59.9144 137.135 59.6872 137.026 59.4402 136.977C59.2031 136.928 58.9561 136.918 58.7091 136.957C58.1657 137.056 56.3478 137.115 55.3499 136.266C55.1128 136.068 54.767 135.693 54.5596 134.962C54.3422 135.07 54.0359 135.209 53.6506 135.337C53.3345 135.436 53.0479 135.495 52.4848 135.554C52.0204 135.604 51.3881 135.663 50.6373 135.673C50.4397 136.108 50.1729 136.819 50.1235 137.728C50.0642 138.755 50.2915 139.575 50.4496 140.06C50.4792 140.237 50.5484 140.395 50.6472 140.534C50.746 140.672 50.8843 140.791 51.0325 140.88C52.307 141.304 59.9539 140.376 60.6949 139.892C60.8135 139.793 60.9222 139.664 60.9814 139.516C61.0407 139.368 61.0703 139.21 61.0407 139.052C61.0605 138.726 60.9715 138.38 60.7937 138.064Z" fill="#183B80"/>
<path d="M21.3242 135.456C22.6283 134.567 24.9698 135.021 25.5428 136.138C25.9677 136.967 25.1279 137.59 25.4144 139.111C25.691 140.593 26.6592 140.939 26.4715 141.512C26.0072 142.925 19.5161 142.836 18.953 141.008C18.8641 140.742 18.9728 140.593 19.5359 139.25C20.8598 136.118 20.7906 135.821 21.3242 135.456Z" fill="#183B80"/>
<path opacity="0.1" d="M42.8718 43.3264C42.8718 43.3264 46.3593 43.6919 48.0389 47.7031C48.8392 49.7186 50.746 49.1061 50.746 49.1061L46.8039 50.3805C46.8138 50.3805 46.3989 47.4956 42.8718 43.3264Z" fill="black"/>
<path d="M29.0303 57.6127C29.0303 57.6127 36.4204 64.5187 40.2439 65.4078C46.0334 66.7713 58.976 63.0861 58.976 63.0861C63.2836 64.489 68.095 62.7205 68.8459 61.0706C70.1797 58.0968 63.5108 61.0311 62.6315 59.5294C62.6315 59.5294 64.5877 57.4842 63.6195 57.0495C62.2758 56.4271 58.6993 59.3614 58.6993 59.3614C55.1228 58.7489 47.6735 58.6402 43.0991 58.1264C42.6051 57.6226 33.8714 49.9954 28.7141 48.3257C26.8864 51.6947 27.4495 54.7278 29.0303 57.6127Z" fill="#F9CBCB"/>
<path d="M30.3835 47.5156C30.3835 47.5156 25.6412 46.6165 26.6193 53.7794C27.5974 57.1682 29.9982 59.648 34.5824 63.0763L39.9372 54.8662C39.9372 54.876 34.2761 49.205 30.3835 47.5156Z" fill="url(#paint5_linear_3767_18932)"/>
<path d="M27.2915 48.7804C27.2915 48.7804 26.4319 53.6314 31.0754 57.0103C35.7189 60.3892 34.5827 63.0864 34.5827 63.0864C34.5827 63.0864 22.8159 55.7259 27.2915 48.7804Z" fill="#F1CA44"/>
<path d="M38.8212 31.7867C38.8212 31.7867 40.56 30.5024 39.8487 29.0797C39.1373 27.657 37.3689 28.0522 35.6004 28.6351C35.0076 28.6351 34.0295 28.4375 34.0295 28.4375C34.0295 28.4375 31.6978 27.7854 31.0952 29.5835C30.0973 30.206 27.9732 32.0634 30.5024 35.7386C32.4487 37.6553 33.4367 37.6553 33.4367 37.6553L38.8212 31.7867Z" fill="#1F357A"/>
<path d="M37.2893 38.1001L37.566 40.8072C37.566 40.8072 38.5441 42.961 36.9732 42.961C35.4023 42.961 33.1398 40.985 33.1398 40.985L33.4658 36.0451L37.2893 38.1001Z" fill="#F9CBCB"/>
<path d="M37.3488 38.7028L37.2895 38.1001L33.466 36.0451L33.3475 37.863C33.3475 37.863 34.78 39.5426 37.3488 38.7028Z" fill="#F0B4B4"/>
<path d="M38.544 30.7989C38.544 30.7989 40.1149 35.314 38.3464 37.4678C36.3803 39.4339 33.4954 36.7762 33.367 35.7487C33.367 35.7487 31.7665 34.573 32.5766 33.2788C32.6952 33.0812 32.9323 32.9923 33.1496 33.0713C33.4658 33.18 33.8412 33.4369 34.0191 33.5653C34.0882 33.6246 34.1771 33.6542 34.266 33.674C34.4933 33.7135 34.8984 33.7333 34.8984 33.4467C34.8984 33.0515 33.9203 30.7001 35.6789 30.7001C37.4671 30.8977 37.2695 31.0953 38.544 30.7989Z" fill="#F9CBCB"/>
<path d="M93.132 136.719L94.9287 134.923C95.3179 134.533 95.3179 133.895 94.9287 133.505C94.5394 133.116 93.9006 133.116 93.5113 133.505L91.7147 135.302L89.918 133.505C89.5288 133.116 88.89 133.116 88.5007 133.505C88.1114 133.895 88.1114 134.533 88.5007 134.923L90.2973 136.719L88.5007 138.516C88.1114 138.905 88.1114 139.544 88.5007 139.933C88.89 140.323 89.5288 140.323 89.918 139.933L91.7147 138.137L93.5113 139.933C93.9006 140.323 94.5394 140.323 94.9287 139.933C95.3179 139.544 95.3179 138.905 94.9287 138.516L93.132 136.719Z" fill="#FED500"/>
<path d="M234.394 16.0124L236.185 14.2222C236.573 13.8343 236.573 13.1978 236.185 12.8099C235.797 12.422 235.16 12.422 234.772 12.8099L232.982 14.6001L231.192 12.8099C230.804 12.422 230.167 12.422 229.78 12.8099C229.392 13.1978 229.392 13.8343 229.78 14.2222L231.57 16.0124L229.78 17.8027C229.392 18.1906 229.392 18.8271 229.78 19.215C230.167 19.6029 230.804 19.6029 231.192 19.215L232.982 17.4248L234.772 19.215C235.16 19.6029 235.797 19.6029 236.185 19.215C236.573 18.8271 236.573 18.1906 236.185 17.8027L234.394 16.0124Z" fill="#FED500"/>
<path d="M226.768 50.3307H289.191C289.191 50.3307 292.864 48.1946 284.56 47.2464C276.255 46.2982 278.611 40.8284 276.605 41.7667C274.598 42.7049 272.652 45.879 269.089 41.6569C263.928 35.5683 259.646 30.917 256.931 37.3549C254.216 43.7929 251.082 42.4554 249.675 41.0181C247.14 38.4329 242.768 36.8459 240.492 41.0181C238.216 45.1903 234.713 40.3493 232.198 40.0998C229.832 39.8602 230.191 45.8191 226.518 46.5377C222.845 47.2564 219.521 46.5377 219.611 48.0849C219.701 49.622 225.989 50.3307 226.768 50.3307Z" fill="url(#paint6_linear_3767_18932)"/>
<path d="M213.428 141.36C223.734 138.75 229.957 128.223 227.329 117.848C224.701 107.474 214.216 101.18 203.911 103.79C193.605 106.401 187.381 116.927 190.009 127.302C192.638 137.677 203.122 143.971 213.428 141.36Z" fill="#FFD500"/>
<path d="M213.491 141.611C203.064 144.253 192.432 137.918 189.79 127.491C187.149 117.064 193.483 106.432 203.91 103.79C214.338 101.149 224.97 107.483 227.611 117.91C230.253 128.338 223.918 138.97 213.491 141.611ZM204.005 104.164C193.784 106.753 187.575 117.175 190.164 127.396C192.753 137.618 203.175 143.827 213.396 141.237C223.617 138.648 229.827 128.226 227.237 118.005C224.648 107.784 214.226 101.575 204.005 104.164Z" fill="#E9C200"/>
<path d="M208.616 132.985C208.296 133.066 207.961 133.07 207.638 132.998C207.315 132.925 207.013 132.778 206.755 132.567L199.971 127.02C199.753 126.842 199.572 126.622 199.437 126.374C199.303 126.125 199.218 125.852 199.187 125.571C199.157 125.29 199.181 125.006 199.26 124.735C199.338 124.464 199.468 124.212 199.643 123.993C199.818 123.773 200.034 123.591 200.279 123.457C200.524 123.322 200.793 123.238 201.07 123.209C201.348 123.18 201.629 123.207 201.898 123.287C202.166 123.368 202.416 123.501 202.634 123.68L207.073 127.308L212.297 112.25C212.484 111.713 212.874 111.274 213.383 111.03C213.891 110.786 214.476 110.757 215.008 110.949C215.541 111.14 215.977 111.538 216.222 112.053C216.467 112.569 216.5 113.16 216.314 113.698L210.095 131.621C209.983 131.945 209.795 132.237 209.547 132.471C209.3 132.706 209 132.877 208.673 132.97C208.654 132.975 208.635 132.98 208.616 132.985Z" fill="white"/>
<path d="M4.92329 105.931L6.71993 104.134C7.10921 103.745 7.10921 103.106 6.71993 102.717C6.33066 102.328 5.69185 102.328 5.30258 102.717L3.50594 104.514L1.7093 102.717C1.32003 102.328 0.681226 102.328 0.291954 102.717C-0.097318 103.106 -0.097318 103.745 0.291954 104.134L2.0886 105.931L0.291954 107.728C-0.097318 108.117 -0.097318 108.756 0.291954 109.145C0.681226 109.534 1.32003 109.534 1.7093 109.145L3.50594 107.348L5.30258 109.145C5.69185 109.534 6.33066 109.534 6.71993 109.145C7.10921 108.756 7.10921 108.117 6.71993 107.728L4.92329 105.931Z" fill="#FED500"/>
<path d="M81.3785 121.742L137.745 109.67C138.649 109.463 139.441 108.922 139.963 108.156C140.484 107.389 140.697 106.454 140.557 105.537L124.647 6.56278C124.582 6.12135 124.426 5.69815 124.19 5.31971C123.954 4.94127 123.641 4.61575 123.273 4.36356C122.905 4.11136 122.489 3.93792 122.051 3.85412C121.612 3.77032 121.162 3.77796 120.726 3.87656L64.3594 15.9482C63.4559 16.154 62.6637 16.694 62.1419 17.4598C61.6202 18.2256 61.4075 19.1604 61.5466 20.0765L77.4654 119.049C77.5306 119.49 77.6859 119.913 77.9217 120.291C78.1575 120.669 78.4686 120.995 78.8358 121.247C79.2029 121.5 79.6182 121.674 80.0557 121.759C80.4931 121.844 80.9434 121.838 81.3785 121.742Z" fill="#FFD500"/>
<path opacity="0.8" d="M81.3785 121.742L137.745 109.67C138.649 109.463 139.441 108.922 139.963 108.156C140.484 107.389 140.697 106.454 140.557 105.537L124.647 6.56278C124.582 6.12135 124.426 5.69815 124.19 5.31971C123.954 4.94127 123.641 4.61575 123.273 4.36356C122.905 4.11136 122.489 3.93792 122.051 3.85412C121.612 3.77032 121.162 3.77796 120.726 3.87656L64.3594 15.9482C63.4559 16.154 62.6637 16.694 62.1419 17.4598C61.6202 18.2256 61.4075 19.1604 61.5466 20.0765L77.4654 119.049C77.5306 119.49 77.6859 119.913 77.9217 120.291C78.1575 120.669 78.4686 120.995 78.8358 121.247C79.2029 121.5 79.6182 121.674 80.0557 121.759C80.4931 121.844 80.9434 121.838 81.3785 121.742Z" fill="white"/>
<path d="M69.2378 11.5671L75.4723 10.2319L75.5669 10.6738L69.3324 12.0089L69.2378 11.5671Z" fill="#FFD500"/>
<path d="M77.6336 9.76887L79.918 9.27965L80.0126 9.7215L77.7282 10.2107L77.6336 9.76887Z" fill="#FFD500"/>
<path d="M77.6232 116.049L131.529 104.505C132.395 104.311 133.156 103.795 133.657 103.063C134.159 102.33 134.365 101.435 134.233 100.557L119.006 5.89542C118.944 5.47296 118.795 5.06796 118.568 4.70581C118.342 4.34366 118.043 4.03219 117.691 3.79091C117.339 3.54964 116.94 3.38377 116.521 3.30371C116.101 3.22365 115.67 3.23113 115.253 3.32567L61.3474 14.8702C60.4814 15.0657 59.7217 15.582 59.221 16.3151C58.7204 17.0483 58.5161 17.9438 58.6492 18.8215L73.8757 113.483C73.938 113.905 74.0869 114.309 74.3128 114.671C74.5388 115.033 74.8371 115.344 75.1889 115.585C75.5408 115.826 75.9386 115.991 76.3575 116.071C76.7764 116.151 77.2073 116.144 77.6232 116.049Z" fill="#FFD500"/>
<path d="M77.1626 113.897L131.068 102.353C131.382 102.274 131.656 102.083 131.838 101.816C132.021 101.548 132.098 101.223 132.056 100.903L116.835 6.24449C116.82 6.11761 116.777 5.99552 116.711 5.88627C116.644 5.77702 116.555 5.6831 116.45 5.61072C116.344 5.5386 116.225 5.48972 116.099 5.46729C115.973 5.44486 115.844 5.4494 115.72 5.48061L61.8139 17.0252C61.501 17.1046 61.2282 17.296 61.047 17.563C60.8657 17.83 60.7886 18.1542 60.8303 18.4743L76.0294 113.137C76.0453 113.264 76.0878 113.385 76.154 113.494C76.2202 113.603 76.3087 113.696 76.4136 113.768C76.5185 113.841 76.6375 113.89 76.7628 113.913C76.8881 113.936 77.0168 113.932 77.1405 113.902L77.1626 113.897ZM115.743 5.59107C115.852 5.564 115.966 5.55995 116.077 5.5792C116.187 5.59845 116.293 5.64057 116.387 5.70287C116.478 5.76867 116.555 5.85231 116.613 5.94872C116.671 6.04512 116.708 6.15229 116.724 6.26374L131.949 100.921C131.986 101.213 131.915 101.508 131.749 101.752C131.583 101.995 131.334 102.169 131.049 102.241L77.1434 113.786C77.035 113.814 76.922 113.818 76.8118 113.798C76.7017 113.779 76.5969 113.736 76.5046 113.673C76.4118 113.609 76.3337 113.526 76.2756 113.429C76.2174 113.332 76.1805 113.224 76.1673 113.112L60.9373 18.456C60.8995 18.1646 60.9698 17.8694 61.1348 17.6263C61.2999 17.3832 61.5483 17.209 61.8331 17.1366L115.743 5.59107Z" fill="white"/>
<path opacity="0.3" d="M82.8142 48.2149C75.3355 43.2363 73.5219 32.8178 78.7632 24.9444C84.0045 17.0711 94.3161 14.7245 101.795 19.703C109.273 24.6816 111.087 35.1001 105.846 42.9735C100.604 50.8468 90.2928 53.1934 82.8142 48.2149Z" fill="white"/>
<path d="M79.0884 36.7912C79.4298 38.989 80.3305 41.0622 81.704 42.8116C83.1867 44.6859 85.1688 46.1032 87.4219 46.9002C89.675 47.6972 92.1074 47.8415 94.4389 47.3164C96.8559 46.7759 99.0918 45.619 100.929 43.9582C102.766 42.2974 104.142 40.1892 104.923 37.8389C105.659 35.685 105.855 33.3834 105.493 31.1362C105.237 29.4084 104.627 27.7519 103.702 26.2706C102.776 24.7893 101.555 23.515 100.114 22.5275C98.6729 21.5399 97.0438 20.8604 95.3283 20.5314C93.6128 20.2024 91.8479 20.231 90.1439 20.6155C86.5971 21.4138 83.4846 23.5264 81.4332 26.5279C79.3819 29.5294 78.544 33.1967 79.0884 36.7912Z" fill="white"/>
<path d="M81.7167 42.8085C83.1994 44.6829 85.1815 46.1002 87.4345 46.8972C89.6876 47.6942 92.1201 47.8385 94.4515 47.3133C96.8685 46.7729 99.1045 45.616 100.942 43.9551C102.779 42.2943 104.155 40.1862 104.936 37.8358C101.082 36.236 96.8294 35.8564 92.7527 36.7481C88.5663 37.6612 84.7336 39.7659 81.7167 42.8085Z" fill="#FFD500"/>
<path d="M88.1461 34.5306C85.4517 32.737 84.7989 28.9825 86.688 26.1447C88.5771 23.307 92.2927 22.4607 94.9871 24.2543C97.6815 26.048 98.3343 29.8025 96.4452 32.6402C94.5561 35.4779 90.8405 36.3243 88.1461 34.5306Z" fill="#FFD500"/>
<path d="M77.5488 77.9672L119.759 68.9274C120.126 68.8449 120.448 68.6264 120.66 68.316C120.872 68.0056 120.959 67.6263 120.902 67.2545L119.896 61.0005C119.869 60.8222 119.806 60.6513 119.71 60.4986C119.614 60.3458 119.488 60.2145 119.339 60.1127C119.19 60.011 119.022 59.9411 118.845 59.9074C118.668 59.8737 118.486 59.8769 118.31 59.9168L76.0997 68.9566C75.7336 69.0389 75.4121 69.2566 75.1998 69.5661C74.9875 69.8755 74.9001 70.2538 74.9551 70.6251L75.9618 76.8791C75.988 77.0579 76.0508 77.2294 76.1464 77.3827C76.2421 77.536 76.3684 77.668 76.5174 77.7701C76.6664 77.8723 76.835 77.9426 77.0125 77.9765C77.19 78.0104 77.3726 78.0072 77.5488 77.9672Z" fill="white"/>
<path opacity="0.3" d="M87.8341 62.8732L105.464 59.0975C105.833 59.0157 106.156 58.7968 106.369 58.4851C106.582 58.1735 106.669 57.7924 106.611 57.4193L106.393 56.0796C106.367 55.9008 106.304 55.7293 106.209 55.576C106.113 55.4226 105.987 55.2907 105.838 55.1885C105.689 55.0864 105.52 55.0161 105.343 54.9822C105.165 54.9483 104.983 54.9515 104.806 54.9915L87.181 58.7662C86.8142 58.8487 86.4922 59.0672 86.28 59.3776C86.0678 59.688 85.9811 60.0673 86.0374 60.4391L86.2506 61.7798C86.2774 61.9581 86.3405 62.129 86.436 62.282C86.5314 62.435 86.6573 62.5668 86.8057 62.6693C86.9541 62.7717 87.1219 62.8427 87.2988 62.8778C87.4757 62.9128 87.6579 62.9113 87.8341 62.8732Z" fill="black"/>
<path opacity="0.3" d="M90.2865 106.345L116.696 100.689C117.32 100.547 117.867 100.175 118.228 99.6469C118.588 99.1189 118.736 98.4739 118.642 97.8414L118.143 94.7595C118.095 94.4565 117.985 94.1666 117.821 93.9074C117.656 93.6482 117.441 93.4253 117.188 93.2521C116.934 93.0789 116.649 92.9591 116.347 92.9C116.046 92.8409 115.736 92.8438 115.436 92.9085L89.0358 98.5625C88.4121 98.7041 87.8649 99.0763 87.5041 99.6043C87.1433 100.132 86.9954 100.777 87.0901 101.41L87.5884 104.492C87.6368 104.794 87.7462 105.083 87.9098 105.342C88.0734 105.601 88.2879 105.823 88.5402 105.997C88.7925 106.17 89.0774 106.29 89.3776 106.35C89.6778 106.41 89.987 106.408 90.2865 106.345Z" fill="black"/>
<path d="M79.9811 93.0946L122.196 84.0539C122.562 83.9704 122.883 83.7517 123.095 83.4416C123.307 83.1314 123.394 82.7527 123.339 82.3811L122.332 76.127C122.306 75.9485 122.242 75.7774 122.147 75.6244C122.051 75.4714 121.925 75.3398 121.776 75.2377C121.627 75.1357 121.458 75.0653 121.281 75.0311C121.104 74.9969 120.922 74.9996 120.745 75.0389L78.5354 84.0787C78.1686 84.1612 77.8466 84.3797 77.6344 84.6901C77.4222 85.0005 77.3355 85.3798 77.3918 85.7516L78.394 92.0066C78.4215 92.1848 78.4851 92.3555 78.5811 92.5081C78.6771 92.6608 78.8033 92.7921 78.952 92.8941C79.1008 92.9961 79.2688 93.0665 79.4458 93.101C79.6228 93.1355 79.8049 93.1333 79.9811 93.0946Z" fill="white"/>
<path d="M113.449 65.6159C113.478 65.8137 113.549 66.0034 113.655 66.1729C113.761 66.3424 113.901 66.4882 114.066 66.6012C114.231 66.7141 114.418 66.7918 114.615 66.8294C114.811 66.8669 115.013 66.8635 115.208 66.8195C115.614 66.7276 115.969 66.4856 116.204 66.1423C116.438 65.7989 116.533 65.3796 116.471 64.9686C116.442 64.7708 116.372 64.5812 116.267 64.4116C116.161 64.2419 116.021 64.096 115.857 63.9829C115.692 63.8698 115.505 63.7919 115.309 63.7543C115.113 63.7166 114.911 63.72 114.716 63.7641C114.31 63.856 113.954 64.0979 113.719 64.4413C113.484 64.7847 113.387 65.2043 113.449 65.6159Z" fill="#263238"/>
<path d="M108.796 66.6123C108.825 66.8101 108.895 66.9997 109.001 67.1694C109.106 67.339 109.246 67.485 109.411 67.5981C109.576 67.7112 109.762 67.789 109.958 67.8266C110.155 67.8643 110.357 67.8609 110.552 67.8168C110.958 67.7259 111.314 67.4842 111.548 67.1406C111.783 66.797 111.878 66.3771 111.814 65.966C111.785 65.7682 111.716 65.5786 111.61 65.4089C111.504 65.2393 111.365 65.0934 111.2 64.9803C111.035 64.8672 110.849 64.7893 110.652 64.7517C110.456 64.714 110.254 64.7174 110.059 64.7615C109.653 64.8524 109.297 65.0941 109.063 65.4377C108.828 65.7814 108.733 66.2012 108.796 66.6123Z" fill="#263238"/>
<path d="M104.17 67.6032C104.199 67.801 104.269 67.9906 104.375 68.1603C104.48 68.3299 104.62 68.4759 104.785 68.589C104.95 68.7021 105.136 68.7799 105.332 68.8175C105.529 68.8552 105.731 68.8518 105.926 68.8077C106.331 68.7158 106.688 68.4739 106.922 68.1305C107.157 67.7871 107.254 67.3675 107.193 66.956C107.163 66.7581 107.093 66.5685 106.987 66.3989C106.88 66.2294 106.74 66.0836 106.575 65.9707C106.41 65.8577 106.223 65.78 106.027 65.7425C105.83 65.7049 105.628 65.7083 105.433 65.7524C105.028 65.8443 104.672 66.0862 104.438 66.4296C104.204 66.7729 104.108 67.1923 104.17 67.6032Z" fill="#263238"/>
<path d="M99.5094 68.6013C99.539 68.7988 99.6089 68.988 99.7148 69.1573C99.8208 69.3266 99.9604 69.4723 100.125 69.5853C100.29 69.6983 100.476 69.7762 100.672 69.8141C100.868 69.852 101.07 69.8492 101.265 69.8058C101.67 69.7139 102.027 69.472 102.262 69.1286C102.497 68.7852 102.593 68.3656 102.532 67.954C102.502 67.7565 102.432 67.5673 102.326 67.398C102.22 67.2287 102.081 67.083 101.916 66.97C101.751 66.857 101.565 66.7791 101.369 66.7412C101.173 66.7033 100.971 66.7061 100.776 66.7495C100.371 66.8414 100.014 67.0833 99.7795 67.4267C99.5445 67.7702 99.448 68.1897 99.5094 68.6013Z" fill="#263238"/>
<path d="M115.869 80.7358C115.898 80.9336 115.968 81.1233 116.073 81.2929C116.179 81.4625 116.319 81.6085 116.484 81.7216C116.648 81.8347 116.835 81.9125 117.031 81.9501C117.227 81.9878 117.429 81.9845 117.624 81.9404C118.03 81.8485 118.386 81.6065 118.621 81.2631C118.856 80.9197 118.953 80.5001 118.891 80.0886C118.862 79.8907 118.792 79.7011 118.685 79.5316C118.579 79.362 118.439 79.2162 118.274 79.1033C118.109 78.9903 117.922 78.9126 117.726 78.8751C117.529 78.8375 117.327 78.8409 117.132 78.885C116.726 78.9769 116.371 79.2188 116.137 79.5622C115.902 79.9055 115.807 80.3249 115.869 80.7358Z" fill="#263238"/>
<path d="M111.225 81.7304C111.255 81.9279 111.325 82.1172 111.431 82.2865C111.537 82.4558 111.676 82.6014 111.841 82.7144C112.006 82.8274 112.192 82.9053 112.388 82.9432C112.584 82.9812 112.786 82.9784 112.981 82.935C113.386 82.8431 113.743 82.6011 113.978 82.2577C114.213 81.9143 114.309 81.4947 114.248 81.0832C114.219 80.8854 114.149 80.6957 114.043 80.5261C113.938 80.3565 113.798 80.2105 113.633 80.0974C113.468 79.9843 113.282 79.9065 113.086 79.8689C112.889 79.8312 112.687 79.8345 112.492 79.8786C112.087 79.9705 111.73 80.2124 111.496 80.5559C111.261 80.8993 111.164 81.3189 111.225 81.7304Z" fill="#263238"/>
<path d="M106.581 82.7252C106.611 82.9231 106.681 83.1127 106.787 83.2822C106.893 83.4518 107.033 83.5976 107.199 83.7105C107.364 83.8235 107.55 83.9012 107.747 83.9387C107.943 83.9763 108.146 83.9729 108.341 83.9288C108.747 83.8379 109.103 83.5962 109.337 83.2525C109.572 82.9089 109.667 82.4891 109.603 82.078C109.574 81.8802 109.505 81.6905 109.399 81.5209C109.293 81.3513 109.154 81.2053 108.989 81.0922C108.824 80.9791 108.638 80.9013 108.441 80.8636C108.245 80.826 108.043 80.8293 107.848 80.8734C107.442 80.9653 107.086 81.2072 106.851 81.5507C106.616 81.8941 106.52 82.3136 106.581 82.7252Z" fill="#263238"/>
<path d="M101.942 83.7185C101.971 83.9163 102.041 84.1059 102.146 84.2755C102.252 84.4452 102.392 84.5911 102.557 84.7042C102.722 84.8173 102.908 84.8952 103.104 84.9328C103.301 84.9705 103.503 84.9671 103.697 84.923C104.103 84.8311 104.459 84.5892 104.694 84.2458C104.929 83.9024 105.026 83.4828 104.965 83.0712C104.935 82.8734 104.865 82.6838 104.758 82.5142C104.652 82.3447 104.512 82.1989 104.347 82.0859C104.182 81.973 103.995 81.8953 103.799 81.8577C103.602 81.8202 103.4 81.8235 103.205 81.8676C102.799 81.9585 102.443 82.2003 102.208 82.5439C101.974 82.8875 101.879 83.3074 101.942 83.7185Z" fill="#263238"/>
<path d="M97.2979 84.7132C97.3269 84.911 97.3964 85.1006 97.5021 85.2703C97.6079 85.4399 97.7475 85.5859 97.9123 85.699C98.0772 85.8121 98.2636 85.8899 98.4599 85.9275C98.6562 85.9652 98.8582 85.9619 99.0531 85.9178C99.459 85.8259 99.8151 85.5839 100.05 85.2405C100.285 84.8971 100.382 84.4775 100.32 84.066C100.291 83.8685 100.221 83.6792 100.115 83.5099C100.009 83.3406 99.8692 83.1949 99.7045 83.082C99.5399 82.969 99.3537 82.8911 99.1577 82.8531C98.9616 82.8152 98.7598 82.818 98.5649 82.8614C98.1591 82.9533 97.803 83.1952 97.568 83.5387C97.333 83.8821 97.2365 84.3016 97.2979 84.7132Z" fill="#263238"/>
<path d="M92.6552 85.7076C92.6848 85.9055 92.7549 86.0951 92.8612 86.2646C92.9674 86.4342 93.1075 86.58 93.2727 86.6929C93.4378 86.8059 93.6245 86.8836 93.821 86.9211C94.0175 86.9587 94.2196 86.9553 94.4148 86.9112C94.8202 86.8193 95.1757 86.5774 95.41 86.234C95.6442 85.8907 95.7398 85.4713 95.6774 85.0604C95.6484 84.8626 95.5789 84.6729 95.4732 84.5033C95.3674 84.3337 95.2278 84.1877 95.063 84.0746C94.8982 83.9615 94.7117 83.8837 94.5154 83.8461C94.3191 83.8084 94.1171 83.8117 93.9222 83.8558C93.5163 83.9477 93.1602 84.1896 92.9253 84.5331C92.6903 84.8765 92.5938 85.2961 92.6552 85.7076Z" fill="#263238"/>
<defs>
<linearGradient id="paint0_linear_3767_18932" x1="18.7505" y1="47.6764" x2="103.585" y2="127.523" gradientUnits="userSpaceOnUse">
<stop stop-color="#C7E5F8"/>
<stop offset="1" stop-color="#346BB4"/>
</linearGradient>
<linearGradient id="paint1_linear_3767_18932" x1="55.6096" y1="40.6717" x2="10.4287" y2="56.8281" gradientUnits="userSpaceOnUse">
<stop stop-color="#FDDC50"/>
<stop offset="1" stop-color="#F68F5F"/>
</linearGradient>
<linearGradient id="paint2_linear_3767_18932" x1="28.1199" y1="75.5087" x2="95.0334" y2="157.006" gradientUnits="userSpaceOnUse">
<stop stop-color="#326AB3"/>
<stop offset="1" stop-color="#003780"/>
</linearGradient>
<linearGradient id="paint3_linear_3767_18932" x1="47.4758" y1="82.0417" x2="-20.0096" y2="165.255" gradientUnits="userSpaceOnUse">
<stop stop-color="#326AB3"/>
<stop offset="1" stop-color="#003780"/>
</linearGradient>
<linearGradient id="paint4_linear_3767_18932" x1="-2975.71" y1="4063.71" x2="-5441.52" y2="7339.07" gradientUnits="userSpaceOnUse">
<stop stop-color="#FDDC50"/>
<stop offset="1" stop-color="#F68F5F"/>
</linearGradient>
<linearGradient id="paint5_linear_3767_18932" x1="28.704" y1="52.6928" x2="68.3802" y2="78.8577" gradientUnits="userSpaceOnUse">
<stop stop-color="#FDDC50"/>
<stop offset="1" stop-color="#F68F5F"/>
</linearGradient>
<linearGradient id="paint6_linear_3767_18932" x1="254.812" y1="34.4868" x2="254.812" y2="53.04" gradientUnits="userSpaceOnUse">
<stop stop-color="#F1F7FC"/>
<stop offset="1" stop-color="#C7E5F8"/>
</linearGradient>
</defs>
</svg>
