<svg width="14" height="14" viewBox="0 0 14 14" fill="none" xmlns="http://www.w3.org/2000/svg">
<path d="M5 11.9999C5 12.9204 5.74619 13.6666 6.66667 13.6666C7.58714 13.6666 8.33333 12.9204 8.33333 11.9999V8.66658H11.6667C12.5871 8.66658 13.3333 7.92039 13.3333 6.99992C13.3333 6.07944 12.5871 5.33325 11.6667 5.33325H8.33333V1.99992C8.33333 1.07944 7.58714 0.333252 6.66667 0.333252C5.74619 0.333252 5 1.07944 5 1.99992V5.33325L1.66667 5.33325C0.746192 5.33325 0 6.07944 0 6.99992C0 7.92039 0.746192 8.66658 1.66667 8.66658L5 8.66658V11.9999Z" fill="white"/>
</svg>
