<svg width="18" height="16" viewBox="0 0 18 16" fill="none" xmlns="http://www.w3.org/2000/svg">
<path fill-rule="evenodd" clip-rule="evenodd" d="M7.30661 1.4716C8.04467 0.176134 9.95525 0.176132 10.6933 1.4716L17.0867 12.6937C17.804 13.9527 16.8704 15.5 15.3934 15.5H2.60653C1.12951 15.5 0.195879 13.9527 0.913185 12.6937L7.30661 1.4716ZM9.83324 12.1667C9.83324 12.6269 9.46014 13 8.99991 13C8.53967 13 8.16657 12.6269 8.16657 12.1667C8.16657 11.7064 8.53967 11.3333 8.99991 11.3333C9.46014 11.3333 9.83324 11.7064 9.83324 12.1667ZM9.62491 5.5C9.62491 5.15482 9.34509 4.875 8.99991 4.875C8.65473 4.875 8.37491 5.15482 8.37491 5.5V9.66667C8.37491 10.0118 8.65473 10.2917 8.99991 10.2917C9.34509 10.2917 9.62491 10.0118 9.62491 9.66667V5.5Z" fill="#FFD500"/>
</svg>
