<svg width="57" height="57" viewBox="0 0 57 57" fill="none" xmlns="http://www.w3.org/2000/svg">
<path d="M56.0339 11.7244V45.2429C56.0339 46.044 55.5202 46.6947 54.8838 46.6947H15.1585C14.5219 46.6947 14.0084 46.044 14.0084 45.2429V11.7244C14.0084 10.9208 14.522 10.2726 15.1585 10.2726H54.8838C55.5204 10.2726 56.0339 10.921 56.0339 11.7244Z" fill="url(#paint0_linear_3767_16304)"/>
<path d="M18.6781 20.1716H21.9295L25.6423 14.9454L26.2185 14.1348L27.3352 12.5627L30.9874 7.4229L38.3277 13.734L39.6998 14.9136L46.7181 7.19789L47.3163 6.54102L48.4656 5.27729C48.1474 4.85604 47.8095 4.45185 47.4617 4.05674L47.2329 4.25297L45.3707 5.85082L40.2563 10.2379L35.4176 4.96855L34.7786 4.2738L30.854 0L26.6988 6.88385L25.6423 8.63474L18.6781 20.1716Z" fill="#33DA82"/>
<path d="M50.5289 2.0624L43.4958 3.94701C43.4855 3.94966 43.4821 3.96216 43.4897 3.96974L48.6234 9.10307C48.6306 9.11027 48.6435 9.10724 48.6461 9.09701L50.5308 2.06391C50.5308 2.06391 50.53 2.06202 50.5292 2.0624H50.5289Z" fill="#33DA82"/>
<path d="M53.2322 14.3401V43.5614C53.2322 44.2598 52.73 44.8271 52.1077 44.8271H13.2652C12.6427 44.8271 12.1406 44.2598 12.1406 43.5614V14.3401C12.1406 13.6395 12.6428 13.0745 13.2652 13.0745H52.1075C52.73 13.0745 53.232 13.6397 53.232 14.3401H53.2322Z" fill="white"/>
<path d="M47.9003 20.8405H50.2818V20.4861H47.9003V15.4472H47.609V20.4861H43.1411V15.4472H42.8517V20.4861H38.3836V15.4472H38.0923V20.4861H33.6244V15.4472H33.3332V20.4861H28.8652V15.4472H28.574V20.4861H24.1079V15.4472H23.8166V20.4861H19.3485V15.4472H19.0573V20.4861H14.477V20.8405H19.0571V25.216H14.477V25.5703H19.0571V29.9458H14.477V30.3002H19.0571V34.6757H14.477V35.03H19.0571V39.6083H19.3484V35.03H23.8165V39.6083H24.1077V35.03H28.5738V39.6083H28.865V35.03H33.333V39.6083H33.6242V35.03H38.0922V39.6083H38.3834V35.03H42.8515V39.6083H43.1409V35.03H47.6089V39.6083H47.9001V35.03H50.2817V34.6757H47.9001V30.3002H50.2817V29.9458H47.9001V25.5703H50.2817V25.216H47.9001V20.8405H47.9003ZM43.1409 20.8405H47.6089V25.216H43.1409V20.8405ZM43.1409 25.5701H47.6089V29.9457H43.1409V25.5701ZM38.3836 20.8405H42.8517V25.216H38.3836V20.8405ZM38.3836 25.5701H42.8517V29.9457H38.3836V25.5701ZM33.6244 20.8405H38.0923V25.216H33.6244V20.8405ZM33.6244 25.5701H38.0923V29.9457H33.6244V25.5701ZM28.865 20.8405H33.333V25.216H28.865V20.8405ZM28.865 25.5701H33.333V29.9457H28.865V25.5701ZM24.1077 25.5701H28.5738V29.9457H24.1077V25.5701ZM24.1077 20.8405H28.5738V25.216H24.1077V20.8405ZM23.8165 20.8405V25.216H19.3484V20.8405H23.8165ZM23.8165 25.5701V29.9457H19.3484V25.5701H23.8165ZM19.3484 34.6755V30.3H23.8165V34.6755H19.3484ZM28.5738 34.6755H24.1077V30.3H28.5738V34.6755ZM33.333 34.6755H28.865V30.3H33.333V34.6755ZM33.6244 34.6755V30.3H38.0923V34.6755H33.6244ZM42.8517 34.6755H38.3836V30.3H42.8517V34.6755ZM47.609 34.6755H43.1411V30.3H47.609V34.6755Z" fill="#ECF3FE"/>
<path d="M19.3486 19.1881H19.0574V21.2551H17.6458V30.8011H19.0574V33.2183H19.3486V30.8011H20.5981V21.2551H19.3486V19.1881Z" fill="#33DA82"/>
<path d="M33.623 20.4879H33.3319V22.5549H31.9201V30.4715H33.3319V32.8885H33.623V30.4715H34.8726V22.5549H33.623V20.4879Z" fill="#C4D7F2"/>
<path d="M24.1054 22.1472H23.8142V24.2141H22.4025V31.8791H23.8142V35.3975H24.1054V31.8791H25.355V24.2141H24.1054V22.1472Z" fill="#C4D7F2"/>
<path d="M38.3813 24.5449H38.0902V26.6118H36.6784V34.2768H38.0902V37.795H38.3813V34.2768H39.6309V26.6118H38.3813V24.5449Z" fill="#33DA82"/>
<path d="M49.1472 22.8744H47.8976V20.8075H47.6066V22.8744H46.1949V30.3784H47.6066V33.8967H47.8976V30.3784H49.1472V22.8744Z" fill="#C4D7F2"/>
<path d="M28.8784 25.8734H28.5872V27.9403H27.1754V32.5847H28.5872V33.8846H28.8784V32.5847H30.1279V27.9403H28.8784V25.8734Z" fill="#C4D7F2"/>
<path d="M43.1415 22.5072H42.8503V24.5741H41.4387V29.2187H42.8503V32.1376H43.1415V29.2187H44.3912V24.5741H43.1415V22.5072Z" fill="#C4D7F2"/>
<path d="M45.0444 52.7325C48.7749 52.7325 51.799 49.7084 51.799 45.978C51.799 42.2475 48.7749 39.2234 45.0444 39.2234C41.314 39.2234 38.2899 42.2475 38.2899 45.978C38.2899 49.7084 41.314 52.7325 45.0444 52.7325Z" fill="#FFA52C"/>
<path fill-rule="evenodd" clip-rule="evenodd" d="M42.0593 47.2778C42.0593 48.898 43.4686 50.2155 45.2005 50.2155C46.9325 50.2155 48.3418 48.8971 48.3418 47.2769C48.3418 45.785 45.8303 42.6223 45.5444 42.2663L45.2005 41.8389L44.8567 42.2663C44.5698 42.6223 42.0593 45.785 42.0593 47.2778ZM43.3528 47.3781C43.3528 48.1588 44.0318 48.7941 44.8664 48.7941L44.8673 48.795C45.0576 48.795 45.2122 48.6504 45.2122 48.4724C45.2122 48.2944 45.0576 48.1498 44.8673 48.1498C44.4124 48.1498 44.0424 47.8037 44.0424 47.3781C44.0424 47.2001 43.8879 47.0555 43.6976 47.0555C43.5073 47.0555 43.3528 47.2001 43.3528 47.3781Z" fill="white"/>
<path d="M31.5645 33.62H28.9418C28.8084 33.62 28.7002 33.7281 28.7002 33.8615V34.6761C28.7002 34.8095 28.8084 34.9176 28.9418 34.9176H31.5645C31.6979 34.9176 31.806 34.8095 31.806 34.6761V33.8615C31.806 33.7281 31.6979 33.62 31.5645 33.62Z" fill="#F7AA23"/>
<path d="M24.2496 52.6535C23.7455 51.8005 21.9396 49.8596 18.8841 49.5028C18.3843 49.4443 17.274 49.3147 16.911 49.668C16.1898 50.37 19.923 52.4654 19.5013 52.8347C19.0532 53.2274 14.6863 51.0617 14.0287 51.5475C13.7197 51.7757 17.0421 53.0592 17.1671 55.2307C17.1954 55.7213 17.0563 56.1452 16.9141 56.4528L25.4597 55.6138C25.4597 55.6138 25.4921 54.7553 24.2496 52.6537V52.6535Z" fill="#33DA82"/>
<path d="M33.1995 34.8759H19.1204V55.8457H33.1995V34.8759Z" fill="#EFA702"/>
<g style="mix-blend-mode:multiply" opacity="0.2">
<path d="M33.1992 35.1696V35.9128C31.3486 35.9147 21.0503 36.0796 20.7489 39.6218C20.7167 39.9898 20.69 40.3121 20.6654 40.5908C20.6408 40.8563 20.618 41.0838 20.5989 41.279C20.5573 41.717 20.525 41.99 20.5041 42.1531C20.4434 42.5912 20.4434 42.2442 20.4452 42.1531V42.1321H19.1197V35.1694H33.1988L33.1992 35.1696Z" fill="#003889"/>
</g>
<g style="mix-blend-mode:multiply" opacity="0.2">
<path d="M33.1995 49.1559V49.8991C32.079 49.9009 27.8504 49.9617 24.6287 50.7978C22.5354 51.342 20.8668 52.2143 20.7492 53.6079C20.6866 54.3456 20.6373 54.8934 20.5975 55.2974C20.5766 55.5211 20.5577 55.7013 20.5407 55.8455H19.1204V49.1559H33.1995Z" fill="#003889"/>
</g>
<path d="M33.6695 35.4837H18.651C18.3155 35.4837 18.0437 35.2118 18.0437 34.8763C18.0437 34.5408 18.3155 34.269 18.651 34.269H33.6695C34.005 34.269 34.2769 34.5408 34.2769 34.8763C34.2769 35.2118 34.005 35.4837 33.6695 35.4837Z" fill="#FFD03B"/>
<path d="M34.2765 55.9047C34.2765 56.0734 34.2082 56.2253 34.0982 56.3352C33.9901 56.4452 33.8385 56.5135 33.6698 56.5135H18.6521C18.3164 56.5135 18.0435 56.2404 18.0435 55.9049C18.0435 55.7363 18.1119 55.5844 18.2218 55.4765C18.3318 55.3665 18.4835 55.2982 18.6523 55.2982H33.67C34.0055 55.2982 34.2768 55.5693 34.2768 55.9049L34.2765 55.9047Z" fill="#E7A843"/>
<path d="M26.1604 47.9068C27.5503 47.9068 28.6771 46.7801 28.6771 45.3902C28.6771 44.0002 27.5503 42.8735 26.1604 42.8735C24.7705 42.8735 23.6437 44.0002 23.6437 45.3902C23.6437 46.7801 24.7705 47.9068 26.1604 47.9068Z" fill="white"/>
<g style="mix-blend-mode:multiply" opacity="0.2">
<path d="M33.1995 42.1533V42.8965C32.3956 42.8983 29.9854 42.9305 27.4977 43.2586C26.3392 43.4123 25.1634 43.6284 24.1244 43.9374C24.1168 43.9393 24.1092 43.9411 24.1034 43.9432C22.2623 44.4931 20.8571 45.3311 20.7492 46.6073C20.6866 47.3393 20.6373 47.8853 20.5975 48.2874C20.5538 48.7274 20.5237 48.9984 20.5009 49.1558C20.4459 49.5444 20.4441 49.2639 20.4459 49.1558V49.1179H19.1204V42.1533H33.1995Z" fill="#003889"/>
</g>
<path d="M34.2765 41.8858C34.2765 42.0526 34.2082 42.2043 34.0982 42.3142C33.9901 42.4242 33.8385 42.4926 33.6698 42.4926H18.6521C18.3164 42.4926 18.0435 42.2215 18.0435 41.8858C18.0435 41.719 18.1119 41.5674 18.2218 41.4574C18.3318 41.3474 18.4835 41.2791 18.6523 41.2791H33.67C34.0055 41.2791 34.2768 41.5503 34.2768 41.8858H34.2765Z" fill="#FFD03B"/>
<path d="M34.2765 48.8961C34.2765 49.0629 34.2082 49.2145 34.0982 49.3245C33.9901 49.4345 33.8385 49.5028 33.6698 49.5028H18.6521C18.3164 49.5028 18.0435 49.2297 18.0435 48.8961C18.0435 48.7274 18.1119 48.5756 18.2218 48.4656C18.3318 48.3556 18.4835 48.2873 18.6523 48.2873H33.67C34.0055 48.2873 34.2768 48.5604 34.2768 48.8959L34.2765 48.8961Z" fill="#FFD03B"/>
<path d="M25.6527 44.7358C25.5294 44.5556 25.3455 44.4647 25.1028 44.4647C24.86 44.4647 24.6762 44.5501 24.5471 44.7187C24.4162 44.8895 24.3518 45.1018 24.3518 45.3559C24.3518 45.4716 24.3651 45.5777 24.3934 45.6782C24.4238 45.7958 24.4749 45.9019 24.5451 45.9967C24.6341 46.1179 24.7498 46.1996 24.892 46.2355C24.9528 46.2525 25.019 46.2601 25.0892 46.2601C25.3338 46.2601 25.5197 46.1729 25.6467 46.0004C25.7756 45.826 25.8382 45.6136 25.8382 45.3596C25.8382 45.1263 25.7774 44.9178 25.6523 44.7358H25.6527ZM25.1009 45.9265C24.8867 45.9265 24.7786 45.7387 24.7786 45.3614C24.7786 44.9841 24.8867 44.7963 25.1009 44.7963C25.3151 44.7963 25.4118 44.9859 25.4118 45.3633C25.4118 45.7406 25.3075 45.9265 25.1009 45.9265Z" fill="#3B82F4"/>
<path d="M26.1058 44.4915V46.2342H26.5135V44.4915H26.1058Z" fill="#3B82F4"/>
<path d="M27.2759 45.8891V44.4915H26.8626V46.2342H27.97V45.8891H27.2761H27.2759Z" fill="#3B82F4"/>
<path d="M23.4548 22.8912L21.5276 21.3155C21.4296 21.2353 21.2852 21.2498 21.205 21.3478L20.7156 21.9464C20.6355 22.0444 20.65 22.1888 20.748 22.2689L22.6752 23.8446C22.7732 23.9247 22.9176 23.9102 22.9977 23.8122L23.4871 23.2137C23.5672 23.1157 23.5527 22.9713 23.4548 22.8912Z" fill="#F7AA23"/>
<path d="M13.555 16.3371L0.957386 31.7449L11.303 40.2036L23.9006 24.7958L13.555 16.3371Z" fill="#F4B545"/>
<path opacity="0.4" d="M23.7247 25.013L23.2778 25.5595C21.9168 24.4486 14.2507 18.3829 11.9014 20.804C9.31973 23.4645 10.1694 22.4664 10.1694 22.4664L9.19579 21.6703L13.3796 16.5537L23.7247 25.013Z" fill="#CE8419"/>
<path opacity="0.4" d="M15.3215 35.2892L14.8746 35.8356C13.5141 34.7251 5.84701 28.6597 3.49819 31.0801C2.73776 31.8635 2.27505 32.3301 2.0001 32.5979L0.957115 31.7449L4.97638 26.8298L15.3215 35.2892Z" fill="#CE8419"/>
<path d="M23.8807 25.526L12.846 16.5026C12.5996 16.3011 12.563 15.9379 12.7647 15.6915C12.9662 15.445 13.3294 15.4085 13.5759 15.6102L24.6106 24.6337C24.857 24.8352 24.8935 25.1984 24.6918 25.4448C24.4903 25.6912 24.1272 25.7277 23.8807 25.526Z" fill="#FFD03B"/>
<path d="M11.2463 40.9771L0.211573 31.9539C-0.034861 31.7524 -0.0713849 31.3892 0.130317 31.1427C0.331814 30.8963 0.695001 30.8598 0.941434 31.0615L11.9762 40.0849C12.2226 40.2864 12.2591 40.6496 12.0574 40.8961C11.8559 41.1425 11.4927 41.179 11.2463 40.9773V40.9771Z" fill="#E59D29"/>
<path d="M12.4112 30.6822C13.7304 30.6822 14.7998 29.6128 14.7998 28.2936C14.7998 26.9744 13.7304 25.9049 12.4112 25.9049C11.092 25.9049 10.0226 26.9744 10.0226 28.2936C10.0226 29.6128 11.092 30.6822 12.4112 30.6822Z" fill="#FFD797"/>
<path opacity="0.4" d="M19.5283 30.1445L19.0814 30.691C17.7216 29.5811 10.0539 23.515 7.70442 25.9361C5.12333 28.596 5.97241 27.5985 5.97241 27.5985L4.99878 26.8024L9.18323 21.6852L19.5283 30.1445Z" fill="#CE8419"/>
<path d="M19.6692 30.6761L8.63452 21.6528C8.38809 21.4513 8.35156 21.0882 8.55326 20.8417C8.75476 20.5953 9.11795 20.5588 9.36438 20.7605L20.3991 29.7839C20.6455 29.9854 20.6821 30.3486 20.4804 30.595C20.2789 30.8415 19.9157 30.878 19.6692 30.6763V30.6761Z" fill="#FFD03B"/>
<path d="M15.4579 35.8266L4.42318 26.8033C4.17675 26.6018 4.14022 26.2387 4.34193 25.9922C4.54342 25.7458 4.90661 25.7093 5.15304 25.911L16.1878 34.9344C16.4342 35.1359 16.4707 35.4991 16.269 35.7455C16.0675 35.992 15.7043 36.0285 15.4579 35.8268V35.8266Z" fill="#FFD03B"/>
<path d="M11.1013 28.2887C10.9289 28.1478 10.8485 27.974 10.86 27.7675C10.8715 27.5609 10.9523 27.3658 11.1027 27.1819C11.2556 26.995 11.431 26.878 11.6288 26.8313C11.8267 26.7843 12.014 26.8331 12.1909 26.9778C12.3696 27.1239 12.4496 27.3007 12.4313 27.5086C12.4131 27.7164 12.3337 27.9062 12.1931 28.0782C12.0413 28.2639 11.8663 28.3823 11.6685 28.4332C11.4704 28.4841 11.2815 28.436 11.1015 28.2889L11.1013 28.2887ZM11.9885 27.2209C11.8314 27.0923 11.6397 27.1663 11.4138 27.4425C11.1873 27.7195 11.1528 27.9223 11.31 28.0509C11.4622 28.1755 11.6514 28.0995 11.8773 27.8231C12.1039 27.5461 12.141 27.3455 11.9888 27.2209H11.9885Z" fill="#F7AA23"/>
<path d="M13.2104 27.8444L12.1637 29.1244L11.8645 28.8798L12.9112 27.5998L13.2104 27.8444Z" fill="#F7AA23"/>
<path d="M12.9313 29.3301L13.4406 29.7465L13.2336 29.9997L12.4204 29.3348L13.4671 28.0549L13.771 28.3034L12.9313 29.3303V29.3301Z" fill="#F7AA23"/>
<path d="M21.9247 54.6076C21.9897 54.614 22.0464 54.6542 22.0735 54.7137C22.1469 54.8756 22.3437 55.1965 22.7799 55.2985C23.3719 55.437 23.6869 55.5253 23.7371 55.8653C23.7796 56.1519 21.7365 56.0179 21.0939 55.9689C20.9899 55.9609 20.9137 55.8677 20.9264 55.7643L21.0576 54.7026C21.0697 54.6044 21.1579 54.5338 21.2564 54.5432L21.9247 54.6076Z" fill="#072542"/>
<path d="M12.2063 54.6152C12.2262 54.617 12.2431 54.6301 12.2498 54.6488C12.2919 54.7651 12.4755 55.1798 12.9828 55.2984C13.5747 55.4369 13.8897 55.5252 13.94 55.8652C13.9833 56.1576 11.8573 56.0123 11.2602 55.9659C11.1761 55.9594 11.1145 55.8838 11.125 55.8001L11.2762 54.5758C11.2797 54.5481 11.3045 54.5282 11.3322 54.5308L12.2061 54.6149L12.2063 54.6152Z" fill="#072542"/>
<path d="M8.10841 37.2738C8.02366 37.4395 7.83715 37.5356 7.60302 37.5822C6.95237 37.7122 5.9377 37.4613 5.74872 37.2738C5.49182 37.0189 6.49356 37.04 6.83972 36.9178C6.96221 36.8745 7.07015 36.8037 7.15858 36.7304C7.32007 36.5972 7.4163 36.455 7.4163 36.455C7.4163 36.455 7.65514 36.5004 7.86403 36.6188C8.01443 36.7041 8.14965 36.8275 8.16832 36.9994C8.17735 37.0799 8.16073 37.171 8.10841 37.2738Z" fill="#FDC8AA"/>
<path d="M8.10832 37.2738C8.02357 37.4395 7.83705 37.5356 7.60293 37.5822C7.49746 37.3786 7.26847 36.9377 7.15849 36.7304C7.31997 36.5972 7.41621 36.455 7.41621 36.455C7.41621 36.455 7.65505 36.5004 7.86393 36.6188L8.16823 36.9994C8.17726 37.0799 8.16064 37.171 8.10832 37.2738Z" fill="#EFA37D"/>
<path d="M22.6461 34.5248C21.597 38.6089 21.4 41.1528 20.5806 41.1787C20.3418 41.1865 19.9526 41.1541 19.5206 41.1042C19.2791 41.0765 19.0241 41.0433 18.7748 41.0082C18.3845 40.954 18.0076 40.8964 17.717 40.85C17.385 40.7973 17.1655 40.7595 17.1655 40.7595L16.5115 39.6258L16.2046 39.0942L15.7431 38.2943L21.9513 29.6413C21.9513 29.6413 23.6948 30.4407 22.6461 34.5248Z" fill="#15315E"/>
<path d="M19.9311 35.588C18.4617 37.4993 19.1231 39.7199 19.5205 41.1041C19.279 41.0764 19.0239 41.0432 18.7746 41.0081C18.3844 40.9539 18.0074 40.8962 17.7169 40.8499L16.5114 39.6257L16.2044 39.0941L22.2036 31.154C22.205 31.3358 22.7278 31.9497 19.9311 35.5878V35.588Z" fill="#072542"/>
<path d="M22.3226 52.1583C22.2475 53.6317 22.1738 54.7359 22.1738 54.7359C22.1738 54.7359 20.9938 54.7882 20.9673 54.7359C20.9414 54.6831 20.3843 46.3971 20.3843 46.3971L15.1202 42.2016L14.8315 38.8451L16.7551 38.6951L16.8506 38.6877C16.8506 38.6877 21.9766 43.5126 22.3503 44.9811C22.5881 45.9133 22.4527 49.595 22.3226 52.1585V52.1583Z" fill="#15315E"/>
<path d="M17.0981 43.7775L15.743 39.2186L15.2906 39.4759C15.2906 39.4759 15.1818 41.2377 15.1232 42.2035L17.0981 43.7773V43.7775Z" fill="#072542"/>
<path d="M15.4478 46.2786C14.7202 48.7961 12.3669 54.7589 12.3669 54.7589C12.3669 54.7589 11.1345 54.9918 11.1345 54.7589C11.1345 54.7388 11.1495 54.6583 11.1772 54.5278L11.1776 54.526C11.47 53.1477 13.1536 46.2396 13.1536 46.2396L12.3677 41.5266L12.2618 40.8903L15.4478 39.2186C15.4478 39.2186 16.1759 43.7615 15.4478 46.2786Z" fill="#15315E"/>
<path d="M11.1777 54.5262C11.4701 53.148 13.1536 46.2398 13.1536 46.2398L12.3678 41.5268L13.1555 41.9093C13.3373 42.546 13.4528 46.4795 13.4528 46.4795L11.1777 54.5264V54.5262Z" fill="#072542"/>
<path d="M21.9967 32.4536C21.0723 34.0071 19.145 34.8921 18.3782 37.1145C17.7733 38.8666 17.4864 39.6652 16.0039 39.6839C15.6065 39.6886 15.1224 39.6376 14.5235 39.5335C14.4199 39.5157 14.3296 39.4871 14.2514 39.4494C12.1901 38.4546 18.6341 30.8605 18.6341 30.8605L18.79 30.7194L20.1533 29.4858L20.2858 29.3659L22.1086 29.8674C22.1086 29.8674 22.9213 30.8997 21.9969 32.4536H21.9967Z" fill="white"/>
<path d="M22.2038 29.0906L22.1391 29.6167L22.1088 29.8672C22.1088 29.8672 21.2301 30.8012 20.5963 30.4179C19.9625 30.0346 20.3058 29.1788 20.277 29.1295C20.2662 29.1109 20.3616 29.014 20.4816 28.9003C20.6753 28.7167 20.9336 28.4887 20.9154 28.4711L22.2038 29.0906Z" fill="#FDC8AA"/>
<path d="M22.2037 29.0906L22.139 29.6167C21.8276 29.654 21.2413 29.6885 20.8712 29.4907C20.5942 29.3429 20.5018 29.0981 20.4815 28.9003C20.6752 28.7167 20.9336 28.4887 20.9153 28.4711L22.2037 29.0906Z" fill="#EFA37D"/>
<g style="mix-blend-mode:multiply" opacity="0.2">
<path d="M20.2094 29.3659C20.2094 29.3659 20.1897 29.4076 20.1534 29.4858C19.6775 30.506 16.3245 37.7416 16.004 39.6839C15.6066 39.6886 15.1225 39.6376 14.5236 39.5335C14.4199 39.5157 14.3297 39.4871 14.2515 39.4494L17.3932 32.9369L18.7901 30.7196L19.6429 29.3659H20.2094Z" fill="#003889"/>
</g>
<path d="M20.1795 29.5754C19.5461 31.086 16.8444 36.0916 15.7429 38.2939C14.4841 40.8114 14.8189 42.4435 14.7202 43.073C14.718 43.0884 14.7147 43.103 14.7102 43.1167C14.5487 43.6611 13.1107 42.8498 12.4586 42.5619C11.7901 42.2668 10.7279 41.5195 10.2362 39.6119C10.0643 38.9456 10.4541 37.7379 11.1444 36.3814C11.3845 35.9088 11.6615 35.4186 11.9639 34.9266C12.5584 33.9597 13.2509 32.9871 13.959 32.1362C14.8175 31.1035 15.698 30.249 16.451 29.7982C19.0473 28.2443 20.2854 29.1043 20.2854 29.1043C20.2891 29.1562 20.27 29.36 20.1795 29.5754Z" fill="#1F3A6F"/>
<path d="M18.2031 30.7209C18.2031 30.7209 18.1463 31.4272 17.2026 31.8591C16.3964 32.2284 12.9488 34.3247 11.9639 34.9269C12.5583 33.9601 13.2508 32.9874 13.959 32.1365C15.5287 31.5995 18.2031 30.7209 18.2031 30.7209Z" fill="#15315E"/>
<path d="M18.403 28.984C18.403 28.984 14.5039 29.9685 11.7507 32.3547C8.99745 34.7408 7.31919 36.0914 7.2404 36.4322C7.16181 36.773 8.10569 37.5728 8.21054 37.3763C8.31539 37.1797 12.0913 34.1248 12.0913 34.1248L16.9687 31.7255C16.9687 31.7255 18.2897 31.1748 18.4028 30.1521C18.5158 29.1295 18.4028 28.984 18.4028 28.984H18.403Z" fill="#1F3A6F"/>
<path d="M23.403 26.8189C23.3734 26.7992 25.3794 24.8228 23.9734 24.7048C22.5672 24.5868 20.7772 25.0883 20.5808 25.5701C20.3844 26.0519 20.0959 26.9664 20.4302 27.3007C20.7644 27.6349 23.4032 26.8189 23.4032 26.8189H23.403Z" fill="#1F3A6F"/>
<path d="M23.649 27.4781C23.649 28.3436 23.2333 29.0823 22.6491 29.3694C22.4808 29.4523 22.2986 29.4974 22.1082 29.4974C21.2575 29.4974 20.5676 28.5933 20.5676 27.4783C20.5676 26.3633 21.2575 25.4593 22.1082 25.4593C22.3877 25.4593 22.6495 25.5567 22.8756 25.727C23.3379 26.0756 23.649 26.7294 23.649 27.4783V27.4781Z" fill="#FDC8AA"/>
<path d="M23.6489 27.4779C23.6489 28.3433 23.2332 29.082 22.649 29.3691C23.876 28.3228 23.1232 26.299 22.8755 25.7266C23.3378 26.0752 23.6489 26.7289 23.6489 27.4779Z" fill="#EFA37D"/>
<path d="M20.6695 27.2711C20.6695 27.2564 21.8838 25.8012 22.4493 25.9044C23.0148 26.0076 23.4106 26.8759 23.5224 26.6753C23.6343 26.4746 23.5571 25.3471 23 25.3011C22.4427 25.2551 21.7283 25.124 21.3218 25.3994C20.9153 25.6748 20.463 26.2058 20.5219 26.5204C20.581 26.8351 20.5168 27.3136 20.5168 27.3136L20.6695 27.2709V27.2711Z" fill="#1F3A6F"/>
<path d="M20.9152 27.3893C20.9152 27.3893 20.2661 26.8288 20.2464 27.3893C20.2267 27.9499 20.8169 28.2251 20.8169 28.2251L20.9152 27.3893Z" fill="#FDC8AA"/>
<defs>
<linearGradient id="paint0_linear_3767_16304" x1="29.8666" y1="10.2726" x2="30.0598" y2="50.5645" gradientUnits="userSpaceOnUse">
<stop stop-color="#FED978"/>
<stop offset="1" stop-color="#FAC53B"/>
</linearGradient>
</defs>
</svg>
