<svg width="25" height="25" viewBox="0 0 25 25" fill="none" xmlns="http://www.w3.org/2000/svg">
<path d="M20.4385 12.3451C20.4385 12.6041 20.3356 12.8525 20.1524 13.0357C19.9693 13.2188 19.7209 13.3217 19.4618 13.3217H8.14301L12.3424 17.5113C12.5263 17.6952 12.6296 17.9447 12.6296 18.2047C12.6296 18.4648 12.5263 18.7142 12.3424 18.8981C12.1585 19.082 11.9091 19.1853 11.649 19.1853C11.3889 19.1853 11.1395 19.082 10.9556 18.8981L5.09601 13.0385C5.00447 12.9477 4.93182 12.8397 4.88224 12.7207C4.83266 12.6017 4.80713 12.474 4.80713 12.3451C4.80713 12.2162 4.83266 12.0885 4.88224 11.9695C4.93182 11.8505 5.00447 11.7425 5.09601 11.6517L10.9556 5.79209C11.0467 5.70104 11.1548 5.62881 11.2738 5.57953C11.3927 5.53025 11.5202 5.50488 11.649 5.50488C11.7778 5.50488 11.9053 5.53025 12.0243 5.57953C12.1432 5.62881 12.2513 5.70104 12.3424 5.79209C12.4335 5.88315 12.5057 5.99125 12.555 6.11022C12.6043 6.2292 12.6296 6.35671 12.6296 6.48548C12.6296 6.61426 12.6043 6.74177 12.555 6.86074C12.5057 6.97971 12.4335 7.08781 12.3424 7.17887L8.14301 11.3685H19.4618C19.7209 11.3685 19.9693 11.4714 20.1524 11.6545C20.3356 11.8377 20.4385 12.0861 20.4385 12.3451Z" fill="#404040"/>
</svg>
