<svg width="15" height="17" viewBox="0 0 15 17" fill="none" xmlns="http://www.w3.org/2000/svg">
<path d="M12.5 1.7H11.6667V0.85C11.6667 0.624566 11.5789 0.408365 11.4226 0.248959C11.2663 0.0895533 11.0543 0 10.8333 0C10.6123 0 10.4004 0.0895533 10.2441 0.248959C10.0878 0.408365 10 0.624566 10 0.85V1.7H5V0.85C5 0.624566 4.9122 0.408365 4.75592 0.248959C4.59964 0.0895533 4.38768 0 4.16667 0C3.94565 0 3.73369 0.0895533 3.57741 0.248959C3.42113 0.408365 3.33333 0.624566 3.33333 0.85V1.7H2.5C1.83696 1.7 1.20107 1.96866 0.732233 2.44688C0.263392 2.9251 0 3.5737 0 4.25V14.45C0 15.1263 0.263392 15.7749 0.732233 16.2531C1.20107 16.7313 1.83696 17 2.5 17H12.5C13.163 17 13.7989 16.7313 14.2678 16.2531C14.7366 15.7749 15 15.1263 15 14.45V4.25C15 3.5737 14.7366 2.9251 14.2678 2.44688C13.7989 1.96866 13.163 1.7 12.5 1.7ZM4.16667 12.75C4.00185 12.75 3.84073 12.7001 3.70369 12.6068C3.56665 12.5134 3.45984 12.3806 3.39677 12.2253C3.33369 12.07 3.31719 11.8991 3.34935 11.7342C3.3815 11.5693 3.46087 11.4178 3.57741 11.299C3.69395 11.1801 3.84244 11.0991 4.00409 11.0663C4.16574 11.0335 4.3333 11.0504 4.48557 11.1147C4.63784 11.179 4.76799 11.288 4.85956 11.4278C4.95113 11.5675 5 11.7319 5 11.9C5 12.1254 4.9122 12.3416 4.75592 12.501C4.59964 12.6604 4.38768 12.75 4.16667 12.75ZM10.8333 12.75H7.5C7.27899 12.75 7.06702 12.6604 6.91074 12.501C6.75446 12.3416 6.66667 12.1254 6.66667 11.9C6.66667 11.6746 6.75446 11.4584 6.91074 11.299C7.06702 11.1396 7.27899 11.05 7.5 11.05H10.8333C11.0543 11.05 11.2663 11.1396 11.4226 11.299C11.5789 11.4584 11.6667 11.6746 11.6667 11.9C11.6667 12.1254 11.5789 12.3416 11.4226 12.501C11.2663 12.6604 11.0543 12.75 10.8333 12.75ZM13.3333 7.65H1.66667V4.25C1.66667 4.02457 1.75446 3.80837 1.91074 3.64896C2.06702 3.48955 2.27899 3.4 2.5 3.4H3.33333V4.25C3.33333 4.47543 3.42113 4.69163 3.57741 4.85104C3.73369 5.01045 3.94565 5.1 4.16667 5.1C4.38768 5.1 4.59964 5.01045 4.75592 4.85104C4.9122 4.69163 5 4.47543 5 4.25V3.4H10V4.25C10 4.47543 10.0878 4.69163 10.2441 4.85104C10.4004 5.01045 10.6123 5.1 10.8333 5.1C11.0543 5.1 11.2663 5.01045 11.4226 4.85104C11.5789 4.69163 11.6667 4.47543 11.6667 4.25V3.4H12.5C12.721 3.4 12.933 3.48955 13.0893 3.64896C13.2455 3.80837 13.3333 4.02457 13.3333 4.25V7.65Z" fill="#777777"/>
</svg>
