<svg width="32" height="32" viewBox="0 0 32 32" fill="none" xmlns="http://www.w3.org/2000/svg">
<rect width="32" height="32" rx="4" fill="white" fill-opacity="0.3"/>
<g clip-path="url(#clip0_10673_8096)">
<path d="M11.0614 9.20769C11.1233 9.21709 11.1851 9.22648 11.247 9.23585C11.414 9.26117 11.5808 9.28672 11.7477 9.31231C11.9231 9.33918 12.0986 9.36585 12.274 9.39254C12.5686 9.43739 12.8632 9.48237 13.1578 9.52745C13.5346 9.58512 13.9115 9.64257 14.2884 9.69994C14.6139 9.7495 14.9394 9.79916 15.2649 9.84884C15.3688 9.86469 15.4727 9.88053 15.5766 9.89636C15.7406 9.92136 15.9045 9.94643 16.0685 9.97153C16.1283 9.98068 16.1881 9.98981 16.2479 9.99892C16.4297 10.0266 16.6115 10.0548 16.7932 10.0838C16.829 10.0895 16.829 10.0895 16.8655 10.0953C16.9337 10.1062 17.0017 10.1175 17.0698 10.129C17.0895 10.1321 17.1092 10.1353 17.1295 10.1385C17.435 10.1912 17.6856 10.3391 17.8772 10.5819C18.1025 10.9056 18.0907 11.2519 18.0893 11.6303C18.0893 11.6837 18.0894 11.7371 18.0895 11.7905C18.0896 11.9369 18.0894 12.0832 18.0891 12.2296C18.0888 12.3876 18.0889 12.5456 18.089 12.7036C18.089 12.9772 18.0888 13.2508 18.0885 13.5244C18.088 13.9199 18.0878 14.3155 18.0878 14.7111C18.0876 15.3529 18.0873 15.9947 18.0867 16.6366C18.0862 17.26 18.0857 17.8834 18.0855 18.5068C18.0855 18.5453 18.0855 18.5837 18.0854 18.6233C18.0854 18.8161 18.0853 19.0089 18.0852 19.2018C18.0846 20.8011 18.0835 22.4005 18.0823 23.9998C17.1928 23.9998 16.3034 23.9998 15.387 23.9998C15.3858 23.6279 15.3858 23.6279 15.3847 23.2485C15.3838 23.0711 15.3829 22.8936 15.3819 22.7162C15.3806 22.4866 15.3795 22.2569 15.379 22.0273C15.3786 21.8455 15.3778 21.6636 15.3766 21.4818C15.3759 21.3856 15.3755 21.2894 15.3755 21.1932C15.3754 21.0855 15.3746 20.9778 15.3737 20.8701C15.3738 20.8387 15.374 20.8072 15.3741 20.7748C15.3696 20.4479 15.2722 20.1598 15.0354 19.9276C14.7264 19.6902 14.4077 19.6504 14.0274 19.6522C13.9871 19.6522 13.9469 19.6521 13.9066 19.652C13.8227 19.6518 13.7388 19.652 13.6549 19.6524C13.5481 19.6529 13.4414 19.6526 13.3346 19.6521C13.2516 19.6518 13.1686 19.6519 13.0856 19.6521C13.0274 19.6522 12.9691 19.6519 12.9108 19.6517C12.5438 19.6545 12.2628 19.7294 11.9892 19.9808C11.788 20.1927 11.6931 20.4574 11.6909 20.748C11.6906 20.7768 11.6904 20.8056 11.6901 20.8353C11.6899 20.8665 11.6897 20.8978 11.6895 20.93C11.6893 20.9632 11.689 20.9963 11.6887 21.0305C11.6877 21.14 11.687 21.2496 11.6863 21.3591C11.6857 21.4351 11.6851 21.5111 11.6844 21.5871C11.683 21.7665 11.6817 21.946 11.6804 22.1255C11.679 22.3299 11.6773 22.5344 11.6757 22.7388C11.6724 23.1591 11.6693 23.5795 11.6663 23.9998C11.38 24.0025 11.0938 24.0046 10.8075 24.0059C10.6745 24.0065 10.5416 24.0073 10.4087 24.0087C10.2803 24.0099 10.1519 24.0106 10.0234 24.0109C9.97457 24.0112 9.9257 24.0116 9.87683 24.0122C9.40128 24.0181 9.40128 24.0181 9.20532 23.8826C9.14501 23.823 9.14501 23.823 9.10462 23.7636C9.09076 23.7439 9.0769 23.7243 9.06262 23.704C8.99181 23.5847 8.99604 23.4717 8.99631 23.3376C8.99625 23.3146 8.99618 23.2916 8.99611 23.2679C8.99591 23.1901 8.99592 23.1124 8.99593 23.0346C8.99584 22.9785 8.99573 22.9225 8.99561 22.8664C8.99531 22.7119 8.99521 22.5573 8.99513 22.4027C8.99501 22.2362 8.99473 22.0697 8.99448 21.9032C8.9939 21.5009 8.9936 21.0985 8.99334 20.6961C8.99321 20.5067 8.99306 20.3173 8.9929 20.128C8.99241 19.4985 8.99198 18.8691 8.99177 18.2397C8.99175 18.1989 8.99174 18.1582 8.99173 18.1175C8.99172 18.0973 8.99171 18.0771 8.99171 18.0563C8.99167 17.954 8.99163 17.8517 8.9916 17.7494C8.99159 17.7291 8.99159 17.7088 8.99158 17.6879C8.99135 17.0298 8.99066 16.3717 8.98971 15.7136C8.9887 15.0179 8.98813 14.3221 8.98803 13.6264C8.98797 13.2471 8.98771 12.8678 8.98696 12.4885C8.98633 12.1656 8.98609 11.8426 8.98637 11.5196C8.98651 11.3548 8.98645 11.19 8.98588 11.0252C8.98537 10.8742 8.98539 10.7233 8.98585 10.5724C8.98592 10.5178 8.98579 10.4633 8.98545 10.4087C8.9831 10.0154 9.02323 9.72608 9.28566 9.41765C9.76994 8.93253 10.4594 9.11489 11.0614 9.20769ZM11.1444 11.8435C11.0412 11.9821 11.0315 12.0817 11.051 12.2518C11.0979 12.3968 11.1786 12.4773 11.313 12.5502C11.4232 12.5938 11.5327 12.5907 11.6499 12.5896C11.6759 12.5897 11.7018 12.5898 11.7285 12.5899C11.7831 12.59 11.8377 12.5898 11.8923 12.5893C11.9756 12.5887 12.0588 12.5893 12.1421 12.5901C12.1953 12.59 12.2485 12.5898 12.3018 12.5896C12.3388 12.59 12.3388 12.59 12.3767 12.5903C12.5709 12.5873 12.6758 12.5272 12.818 12.3928C12.8867 12.2783 12.9058 12.1797 12.8967 12.0467C12.8579 11.9096 12.8013 11.8296 12.6898 11.7409C12.5475 11.6652 12.4277 11.6607 12.2699 11.6599C12.2458 11.6597 12.2216 11.6596 12.1967 11.6594C12.1455 11.6591 12.0944 11.6589 12.0433 11.6588C11.9653 11.6585 11.8874 11.6576 11.8095 11.6567C11.7597 11.6565 11.71 11.6563 11.6602 11.6562C11.637 11.6559 11.6139 11.6555 11.59 11.6551C11.41 11.6559 11.2591 11.6935 11.1444 11.8435ZM14.2151 11.9002C14.1607 12.0633 14.1591 12.2234 14.2316 12.38C14.3484 12.5058 14.4644 12.5783 14.6357 12.5892C14.6828 12.59 14.73 12.5901 14.7772 12.5896C14.8025 12.5897 14.8277 12.5898 14.8537 12.5899C14.9068 12.59 14.9599 12.5898 15.0129 12.5893C15.0938 12.5887 15.1745 12.5893 15.2554 12.5901C15.3072 12.59 15.359 12.5898 15.4108 12.5896C15.4347 12.5898 15.4586 12.5901 15.4833 12.5903C15.6502 12.5876 15.7473 12.5522 15.885 12.4569C15.9823 12.3521 16.01 12.2724 16.015 12.1328C16.0083 11.9878 15.9788 11.9034 15.8724 11.8015C15.7201 11.6677 15.5996 11.6609 15.4047 11.6599C15.3805 11.6597 15.3564 11.6596 15.3315 11.6594C15.2803 11.6591 15.2292 11.6589 15.178 11.6588C15.1001 11.6585 15.0222 11.6576 14.9443 11.6567C14.8945 11.6565 14.8447 11.6563 14.795 11.6562C14.7718 11.6559 14.7486 11.6555 14.7248 11.6551C14.5017 11.656 14.3634 11.7307 14.2151 11.9002ZM11.1444 13.7185C11.0412 13.8571 11.0315 13.9567 11.051 14.1268C11.0979 14.2718 11.1786 14.3523 11.313 14.4252C11.4232 14.4688 11.5327 14.4657 11.6499 14.4646C11.6759 14.4647 11.7018 14.4648 11.7285 14.4649C11.7831 14.465 11.8377 14.4648 11.8923 14.4643C11.9756 14.4637 12.0588 14.4643 12.1421 14.4651C12.1953 14.465 12.2485 14.4648 12.3018 14.4646C12.3388 14.465 12.3388 14.465 12.3767 14.4653C12.5709 14.4623 12.6758 14.4022 12.818 14.2678C12.8867 14.1533 12.9058 14.0547 12.8967 13.9217C12.8579 13.7846 12.8013 13.7046 12.6898 13.6159C12.5475 13.5402 12.4277 13.5357 12.2699 13.5349C12.2458 13.5347 12.2216 13.5346 12.1967 13.5344C12.1455 13.5341 12.0944 13.5339 12.0433 13.5338C11.9653 13.5335 11.8874 13.5326 11.8095 13.5317C11.7597 13.5315 11.71 13.5313 11.6602 13.5312C11.637 13.5309 11.6139 13.5305 11.59 13.5301C11.41 13.5309 11.2591 13.5685 11.1444 13.7185ZM14.2151 13.7752C14.1607 13.9383 14.1591 14.0984 14.2316 14.255C14.3484 14.3808 14.4644 14.4533 14.6357 14.4642C14.6828 14.465 14.73 14.4651 14.7772 14.4646C14.8025 14.4647 14.8277 14.4648 14.8537 14.4649C14.9068 14.465 14.9599 14.4648 15.0129 14.4643C15.0938 14.4637 15.1745 14.4643 15.2554 14.4651C15.3072 14.465 15.359 14.4648 15.4108 14.4646C15.4347 14.4648 15.4586 14.4651 15.4833 14.4653C15.6502 14.4626 15.7473 14.4272 15.885 14.3319C15.9823 14.2271 16.01 14.1474 16.015 14.0078C16.0083 13.8628 15.9788 13.7784 15.8724 13.6765C15.7201 13.5427 15.5996 13.5359 15.4047 13.5349C15.3805 13.5347 15.3564 13.5346 15.3315 13.5344C15.2803 13.5341 15.2292 13.5339 15.178 13.5338C15.1001 13.5335 15.0222 13.5326 14.9443 13.5317C14.8945 13.5315 14.8447 13.5313 14.795 13.5312C14.7718 13.5309 14.7486 13.5305 14.7248 13.5301C14.5017 13.531 14.3634 13.6057 14.2151 13.7752ZM11.1444 15.5935C11.0412 15.7321 11.0315 15.8317 11.051 16.0018C11.0979 16.1468 11.1786 16.2273 11.313 16.3002C11.4232 16.3438 11.5327 16.3407 11.6499 16.3396C11.6759 16.3397 11.7018 16.3398 11.7285 16.3399C11.7831 16.34 11.8377 16.3398 11.8923 16.3393C11.9756 16.3387 12.0588 16.3393 12.1421 16.3401C12.1953 16.34 12.2485 16.3398 12.3018 16.3396C12.3388 16.34 12.3388 16.34 12.3767 16.3403C12.5709 16.3373 12.6758 16.2772 12.818 16.1428C12.8867 16.0283 12.9058 15.9297 12.8967 15.7967C12.8579 15.6596 12.8013 15.5796 12.6898 15.4909C12.5475 15.4152 12.4277 15.4107 12.2699 15.4099C12.2458 15.4097 12.2216 15.4096 12.1967 15.4094C12.1455 15.4091 12.0944 15.4089 12.0433 15.4088C11.9653 15.4085 11.8874 15.4076 11.8095 15.4067C11.7597 15.4065 11.71 15.4063 11.6602 15.4062C11.637 15.4059 11.6139 15.4055 11.59 15.4051C11.41 15.4058 11.2591 15.4435 11.1444 15.5935ZM14.2151 15.6502C14.1607 15.8133 14.1591 15.9734 14.2316 16.13C14.3484 16.2558 14.4644 16.3283 14.6357 16.3392C14.6828 16.34 14.73 16.3401 14.7772 16.3396C14.8025 16.3397 14.8277 16.3398 14.8537 16.3399C14.9068 16.34 14.9599 16.3398 15.0129 16.3393C15.0938 16.3387 15.1745 16.3393 15.2554 16.3401C15.3072 16.34 15.359 16.3398 15.4108 16.3396C15.4347 16.3398 15.4586 16.3401 15.4833 16.3403C15.6502 16.3376 15.7473 16.3022 15.885 16.2069C15.9823 16.1021 16.01 16.0224 16.015 15.8828C16.0083 15.7378 15.9788 15.6534 15.8724 15.5515C15.7201 15.4177 15.5996 15.4109 15.4047 15.4099C15.3805 15.4097 15.3564 15.4096 15.3315 15.4094C15.2803 15.4091 15.2292 15.4089 15.178 15.4088C15.1001 15.4085 15.0222 15.4076 14.9443 15.4067C14.8945 15.4065 14.8447 15.4063 14.795 15.4062C14.7718 15.4059 14.7486 15.4055 14.7248 15.4051C14.5017 15.406 14.3634 15.4807 14.2151 15.6502ZM11.1444 17.4685C11.0412 17.6071 11.0315 17.7067 11.051 17.8768C11.0979 18.0218 11.1786 18.1023 11.313 18.1752C11.4232 18.2188 11.5327 18.2157 11.6499 18.2146C11.6759 18.2147 11.7018 18.2148 11.7285 18.2149C11.7831 18.215 11.8377 18.2148 11.8923 18.2143C11.9756 18.2137 12.0588 18.2143 12.1421 18.2151C12.1953 18.215 12.2485 18.2148 12.3018 18.2146C12.3388 18.215 12.3388 18.215 12.3767 18.2153C12.5709 18.2123 12.6758 18.1522 12.818 18.0178C12.8867 17.9033 12.9058 17.8047 12.8967 17.6717C12.8579 17.5346 12.8013 17.4546 12.6898 17.3659C12.5475 17.2902 12.4277 17.2857 12.2699 17.2849C12.2458 17.2847 12.2216 17.2846 12.1967 17.2844C12.1455 17.2841 12.0944 17.2839 12.0433 17.2838C11.9653 17.2835 11.8874 17.2826 11.8095 17.2817C11.7597 17.2815 11.71 17.2813 11.6602 17.2812C11.637 17.2809 11.6139 17.2805 11.59 17.2801C11.41 17.2809 11.2591 17.3185 11.1444 17.4685ZM14.2151 17.5252C14.1607 17.6883 14.1591 17.8484 14.2316 18.005C14.3484 18.1308 14.4644 18.2033 14.6357 18.2142C14.6828 18.215 14.73 18.2151 14.7772 18.2146C14.8025 18.2147 14.8277 18.2148 14.8537 18.2149C14.9068 18.215 14.9599 18.2148 15.0129 18.2143C15.0938 18.2137 15.1745 18.2143 15.2554 18.2151C15.3072 18.215 15.359 18.2148 15.4108 18.2146C15.4347 18.2148 15.4586 18.2151 15.4833 18.2153C15.6502 18.2126 15.7473 18.1772 15.885 18.0819C15.9823 17.9771 16.01 17.8974 16.015 17.7578C16.0083 17.6128 15.9788 17.5284 15.8724 17.4265C15.7201 17.2927 15.5996 17.2859 15.4047 17.2849C15.3805 17.2847 15.3564 17.2846 15.3315 17.2844C15.2803 17.2841 15.2292 17.2839 15.178 17.2838C15.1001 17.2835 15.0222 17.2826 14.9443 17.2817C14.8945 17.2815 14.8447 17.2813 14.795 17.2812C14.7718 17.2809 14.7486 17.2805 14.7248 17.2801C14.5017 17.281 14.3634 17.3557 14.2151 17.5252Z" fill="white"/>
<path d="M18.668 14.8301C19.0964 14.896 19.0964 14.896 19.2413 14.9263C19.2909 14.9366 19.2909 14.9366 19.3414 14.947C19.3762 14.9544 19.411 14.9617 19.4469 14.9692C19.5035 14.981 19.5035 14.981 19.5613 14.9931C19.6638 15.0144 19.7662 15.0359 19.8686 15.0574C19.9765 15.08 20.0844 15.1025 20.1923 15.125C20.3734 15.1629 20.5545 15.2008 20.7355 15.2387C20.944 15.2824 21.1524 15.326 21.3609 15.3695C21.5627 15.4116 21.7644 15.4538 21.9661 15.4961C22.0514 15.5139 22.1367 15.5318 22.222 15.5496C22.3415 15.5745 22.4609 15.5996 22.5804 15.6246C22.6152 15.6319 22.6501 15.6392 22.686 15.6466C22.8462 15.6804 23.0061 15.7154 23.1654 15.7534C23.1927 15.7599 23.22 15.7664 23.2481 15.7731C23.5281 15.8584 23.7425 16.0539 23.893 16.3012C23.9885 16.4851 24.0044 16.6422 24.0043 16.849C24.0044 16.8756 24.0045 16.9023 24.0046 16.9298C24.005 17.0193 24.0051 17.1089 24.0052 17.1985C24.0054 17.2626 24.0056 17.3268 24.0058 17.3909C24.0064 17.6018 24.0067 17.8127 24.007 18.0236C24.0071 18.0962 24.0072 18.1688 24.0073 18.2414C24.0079 18.563 24.0083 18.8847 24.0085 19.2063C24.0086 19.2652 24.0086 19.324 24.0086 19.3828C24.0087 19.4023 24.0087 19.4218 24.0087 19.4418C24.0089 19.7571 24.0097 20.0723 24.0106 20.3875C24.0116 20.7114 24.0121 21.0354 24.0122 21.3593C24.0123 21.5411 24.0125 21.7228 24.0133 21.9046C24.014 22.0756 24.0141 22.2467 24.0138 22.4178C24.0138 22.4805 24.014 22.5431 24.0144 22.6058C24.0169 23.0158 24.0137 23.3964 23.707 23.707C22.4729 24.7519 18.9125 24 18.668 24C18.668 20.9739 18.668 17.9479 18.668 14.8301ZM20.4081 17.5679C20.2882 17.7062 20.2689 17.8009 20.2712 17.9783C20.2832 18.0886 20.3227 18.147 20.3965 18.2285C20.6175 18.4025 20.8468 18.3813 21.1159 18.382C21.1796 18.3823 21.2433 18.3832 21.307 18.3842C21.6604 18.3951 21.6604 18.3951 21.9669 18.2446C22.0868 18.1063 22.1061 18.0116 22.1038 17.8342C22.0918 17.7239 22.0523 17.6655 21.9785 17.584C21.7575 17.41 21.5282 17.4312 21.2591 17.4305C21.1954 17.4302 21.1317 17.4293 21.068 17.4283C20.7146 17.4174 20.7146 17.4174 20.4081 17.5679ZM20.4081 19.4429C20.2882 19.5812 20.2689 19.6759 20.2712 19.8533C20.2832 19.9636 20.3227 20.022 20.3965 20.1035C20.6175 20.2775 20.8468 20.2563 21.1159 20.257C21.1796 20.2573 21.2433 20.2582 21.307 20.2592C21.6604 20.2701 21.6604 20.2701 21.9669 20.1196C22.0868 19.9813 22.1061 19.8866 22.1038 19.7092C22.0918 19.5989 22.0523 19.5405 21.9785 19.459C21.7575 19.285 21.5282 19.3062 21.2591 19.3055C21.1954 19.3052 21.1317 19.3043 21.068 19.3033C20.7146 19.2924 20.7146 19.2924 20.4081 19.4429ZM20.4081 21.3179C20.2882 21.4562 20.2689 21.5509 20.2712 21.7283C20.2832 21.8386 20.3227 21.897 20.3965 21.9785C20.6175 22.1525 20.8468 22.1313 21.1159 22.132C21.1796 22.1323 21.2433 22.1332 21.307 22.1342C21.6604 22.1451 21.6604 22.1451 21.9669 21.9946C22.0868 21.8563 22.1061 21.7616 22.1038 21.5842C22.0918 21.4739 22.0523 21.4155 21.9785 21.334C21.7575 21.16 21.5282 21.1812 21.2591 21.1805C21.1954 21.1802 21.1317 21.1793 21.068 21.1783C20.7146 21.1674 20.7146 21.1674 20.4081 21.3179Z" fill="white"/>
</g>
<defs>
<clipPath id="clip0_10673_8096">
<rect width="15" height="15" fill="white" transform="translate(9 9)"/>
</clipPath>
</defs>
</svg>
