<svg width="16" height="16" viewBox="0 0 16 16" fill="none" xmlns="http://www.w3.org/2000/svg">
<g clip-path="url(#clip0_3760_4775)">
<path d="M3.6491 2.16615C3.69861 2.17368 3.74812 2.18118 3.79763 2.18868C3.93116 2.20894 4.06466 2.22938 4.19816 2.24985C4.3385 2.27134 4.47886 2.29268 4.61922 2.31403C4.8549 2.34991 5.09056 2.3859 5.32622 2.42196C5.62769 2.4681 5.92918 2.51406 6.23069 2.55996C6.49112 2.5996 6.75154 2.63933 7.01195 2.67907C7.09507 2.69175 7.17818 2.70442 7.2613 2.71709C7.39247 2.73709 7.52363 2.75714 7.65479 2.77723C7.70262 2.78455 7.75045 2.79185 7.79828 2.79914C7.94379 2.82131 8.08923 2.84385 8.23457 2.86705C8.2632 2.87159 8.2632 2.87159 8.29241 2.87623C8.34692 2.88499 8.40139 2.89403 8.45584 2.90318C8.47161 2.9057 8.48739 2.90823 8.50364 2.91083C8.748 2.95298 8.94847 3.07129 9.10176 3.26548C9.28196 3.5245 9.27254 3.80155 9.27146 4.10423C9.27148 4.14695 9.27152 4.18967 9.27158 4.23239C9.27168 4.34949 9.2715 4.46659 9.27126 4.58369C9.27106 4.71008 9.27113 4.83647 9.27116 4.96285C9.27119 5.18173 9.27104 5.40061 9.27078 5.61949C9.2704 5.93596 9.27028 6.25242 9.27022 6.56888C9.27011 7.08234 9.2698 7.59579 9.26936 8.10925C9.26893 8.60799 9.2686 9.10673 9.2684 9.60547C9.26838 9.63622 9.26837 9.66697 9.26836 9.69865C9.2683 9.8529 9.26824 10.0072 9.26818 10.1614C9.2677 11.4409 9.26683 12.7204 9.26582 13.9999C8.55426 13.9999 7.8427 13.9999 7.10957 13.9999C7.10867 13.7023 7.10867 13.7023 7.10774 13.3988C7.10708 13.2569 7.10635 13.1149 7.10555 12.9729C7.10451 12.7893 7.10361 12.6056 7.10322 12.4219C7.10291 12.2764 7.10228 12.1309 7.10126 11.9854C7.10073 11.9085 7.10041 11.8315 7.10039 11.7546C7.10033 11.6684 7.0997 11.5823 7.09893 11.4961C7.09905 11.4709 7.09916 11.4458 7.09929 11.4199C7.09571 11.1583 7.01775 10.9279 6.82832 10.742C6.5811 10.5522 6.32619 10.5203 6.02193 10.5218C5.98972 10.5217 5.95751 10.5217 5.9253 10.5216C5.85817 10.5215 5.79104 10.5216 5.72391 10.5219C5.63849 10.5223 5.55309 10.5221 5.46768 10.5217C5.40128 10.5214 5.33488 10.5215 5.26848 10.5217C5.22188 10.5218 5.17528 10.5216 5.12868 10.5213C4.83503 10.5236 4.61021 10.5835 4.39137 10.7846C4.23042 10.9541 4.1545 11.1659 4.15274 11.3984C4.15251 11.4215 4.15228 11.4445 4.15204 11.4682C4.15191 11.4932 4.15177 11.5182 4.15163 11.544C4.1514 11.5705 4.15117 11.5971 4.15093 11.6244C4.15019 11.712 4.14961 11.7997 4.14903 11.8873C4.14855 11.9481 4.14806 12.0089 4.14756 12.0696C4.14639 12.2132 4.14533 12.3568 4.14432 12.5004C4.14316 12.664 4.14188 12.8275 4.14058 12.991C4.13791 13.3273 4.13541 13.6636 4.13301 13.9999C3.904 14.002 3.675 14.0037 3.44599 14.0047C3.33963 14.0052 3.23329 14.0059 3.12694 14.0069C3.02421 14.008 2.92148 14.0085 2.81875 14.0088C2.77965 14.0089 2.74056 14.0093 2.70146 14.0098C2.32102 14.0145 2.32102 14.0145 2.16426 13.9061C2.11601 13.8584 2.11601 13.8584 2.08369 13.8109C2.07261 13.7952 2.06152 13.7794 2.05009 13.7632C1.99345 13.6677 1.99683 13.5774 1.99705 13.4701C1.997 13.4517 1.99694 13.4333 1.99688 13.4143C1.99673 13.3521 1.99674 13.2899 1.99675 13.2277C1.99667 13.1828 1.99658 13.138 1.99649 13.0931C1.99625 12.9695 1.99616 12.8458 1.9961 12.7222C1.99601 12.589 1.99579 12.4558 1.99558 12.3226C1.99512 12.0007 1.99488 11.6788 1.99467 11.3569C1.99457 11.2054 1.99445 11.0539 1.99432 10.9024C1.99392 10.3988 1.99358 9.89527 1.99341 9.39173C1.9934 9.35916 1.99339 9.32658 1.99338 9.29401C1.99338 9.27786 1.99337 9.26171 1.99336 9.24506C1.99334 9.16323 1.99331 9.08139 1.99328 8.99955C1.99327 8.98331 1.99327 8.96707 1.99326 8.95034C1.99308 8.42385 1.99253 7.89737 1.99177 7.37088C1.99096 6.81428 1.9905 6.25769 1.99042 5.70109C1.99037 5.39767 1.99017 5.09426 1.98957 4.79084C1.98906 4.53244 1.98887 4.27405 1.9891 4.01566C1.98921 3.88381 1.98916 3.75197 1.98871 3.62012C1.98829 3.49939 1.98832 3.37866 1.98868 3.25792C1.98874 3.21427 1.98863 3.17063 1.98836 3.12699C1.98648 2.8123 2.01858 2.58087 2.22853 2.33412C2.61595 1.94602 3.16752 2.09191 3.6491 2.16615ZM3.71553 4.27476C3.63294 4.38567 3.62521 4.46539 3.64082 4.60142C3.67828 4.71741 3.74291 4.78186 3.85044 4.84016C3.93859 4.87505 4.0262 4.87259 4.11992 4.87169C4.14068 4.87178 4.16144 4.87187 4.18284 4.87196C4.22651 4.87202 4.27018 4.87185 4.31384 4.87146C4.38046 4.87095 4.44702 4.87145 4.51364 4.87205C4.55623 4.87199 4.59881 4.87187 4.6414 4.87169C4.67107 4.87197 4.67107 4.87197 4.70134 4.87226C4.85672 4.86981 4.94068 4.82179 5.0544 4.71421C5.10933 4.62265 5.12466 4.54378 5.11738 4.43736C5.0863 4.32771 5.041 4.26368 4.95186 4.19273C4.83798 4.13216 4.74215 4.12858 4.61595 4.12791C4.59662 4.12778 4.57728 4.12764 4.55736 4.12751C4.51644 4.12729 4.47552 4.12713 4.4346 4.12704C4.37226 4.12681 4.30993 4.12609 4.24759 4.12535C4.20778 4.12519 4.16797 4.12507 4.12816 4.12498C4.10962 4.12469 4.09109 4.1244 4.07199 4.1241C3.92801 4.12468 3.80724 4.15483 3.71553 4.27476ZM6.17207 4.32017C6.12857 4.45068 6.12727 4.57871 6.18526 4.70396C6.27871 4.8046 6.37153 4.86261 6.50853 4.87137C6.54627 4.87198 6.58403 4.87206 6.62178 4.87169C6.64197 4.87178 6.66215 4.87187 6.68295 4.87196C6.72542 4.87202 6.76789 4.87185 6.81035 4.87146C6.87502 4.87095 6.93962 4.87145 7.00429 4.87205C7.04573 4.87199 7.08717 4.87187 7.12861 4.87169C7.14776 4.87188 7.16691 4.87207 7.18663 4.87226C7.32019 4.8701 7.39784 4.84175 7.50801 4.76548C7.58585 4.68166 7.60803 4.61795 7.61201 4.50621C7.60663 4.39027 7.58301 4.32275 7.49794 4.24116C7.37605 4.13413 7.27966 4.12874 7.12376 4.12791C7.10443 4.12778 7.08509 4.12764 7.06517 4.12751C7.02425 4.12729 6.98333 4.12713 6.94241 4.12704C6.88007 4.12681 6.81774 4.12609 6.7554 4.12535C6.71559 4.12519 6.67578 4.12507 6.63597 4.12498C6.61743 4.12469 6.5989 4.1244 6.5798 4.1241C6.40138 4.12482 6.29072 4.18457 6.17207 4.32017ZM3.71553 5.77476C3.63294 5.88567 3.62521 5.96539 3.64082 6.10142C3.67828 6.21741 3.74291 6.28186 3.85044 6.34016C3.93859 6.37505 4.0262 6.37259 4.11992 6.37169C4.14068 6.37178 4.16144 6.37187 4.18284 6.37196C4.22651 6.37202 4.27018 6.37185 4.31384 6.37146C4.38046 6.37095 4.44702 6.37145 4.51364 6.37205C4.55623 6.37199 4.59881 6.37187 4.6414 6.37169C4.67107 6.37197 4.67107 6.37197 4.70134 6.37226C4.85672 6.36981 4.94068 6.32179 5.0544 6.21422C5.10933 6.12265 5.12466 6.04378 5.11738 5.93736C5.0863 5.82771 5.041 5.76368 4.95186 5.69273C4.83798 5.63216 4.74215 5.62858 4.61595 5.62791C4.59662 5.62778 4.57728 5.62764 4.55736 5.62751C4.51644 5.62729 4.47552 5.62713 4.4346 5.62704C4.37226 5.62681 4.30993 5.62609 4.24759 5.62535C4.20778 5.62519 4.16797 5.62507 4.12816 5.62498C4.10962 5.62469 4.09109 5.6244 4.07199 5.6241C3.92801 5.62468 3.80724 5.65483 3.71553 5.77476ZM6.17207 5.82017C6.12857 5.95068 6.12727 6.07871 6.18526 6.20396C6.27871 6.3046 6.37153 6.36261 6.50853 6.37137C6.54627 6.37198 6.58403 6.37206 6.62178 6.37169C6.64197 6.37178 6.66215 6.37187 6.68295 6.37196C6.72542 6.37202 6.76789 6.37185 6.81035 6.37146C6.87502 6.37095 6.93962 6.37145 7.00429 6.37205C7.04573 6.37199 7.08717 6.37187 7.12861 6.37169C7.14776 6.37188 7.16691 6.37207 7.18663 6.37226C7.32019 6.3701 7.39784 6.34175 7.50801 6.26548C7.58585 6.18166 7.60803 6.11795 7.61201 6.00621C7.60663 5.89027 7.58301 5.82275 7.49794 5.74116C7.37605 5.63413 7.27966 5.62874 7.12376 5.62791C7.10443 5.62778 7.08509 5.62764 7.06517 5.62751C7.02425 5.62729 6.98333 5.62713 6.94241 5.62704C6.88007 5.62681 6.81774 5.62609 6.7554 5.62535C6.71559 5.62519 6.67578 5.62507 6.63597 5.62498C6.61743 5.62469 6.5989 5.6244 6.5798 5.6241C6.40138 5.62482 6.29072 5.68457 6.17207 5.82017ZM3.71553 7.27476C3.63294 7.38567 3.62521 7.46539 3.64082 7.60142C3.67828 7.71741 3.74291 7.78186 3.85044 7.84016C3.93859 7.87505 4.0262 7.87259 4.11992 7.87169C4.14068 7.87178 4.16144 7.87187 4.18284 7.87196C4.22651 7.87202 4.27018 7.87185 4.31384 7.87146C4.38046 7.87095 4.44702 7.87145 4.51364 7.87205C4.55623 7.87199 4.59881 7.87187 4.6414 7.87169C4.67107 7.87197 4.67107 7.87197 4.70134 7.87226C4.85672 7.86981 4.94068 7.82179 5.0544 7.71422C5.10933 7.62265 5.12466 7.54378 5.11738 7.43736C5.0863 7.32771 5.041 7.26368 4.95186 7.19273C4.83798 7.13216 4.74215 7.12858 4.61595 7.12791C4.59662 7.12778 4.57728 7.12764 4.55736 7.12751C4.51644 7.12729 4.47552 7.12713 4.4346 7.12704C4.37226 7.12681 4.30993 7.12609 4.24759 7.12535C4.20778 7.12519 4.16797 7.12507 4.12816 7.12498C4.10962 7.12469 4.09109 7.1244 4.07199 7.1241C3.92801 7.12468 3.80724 7.15483 3.71553 7.27476ZM6.17207 7.32017C6.12857 7.45068 6.12727 7.57871 6.18526 7.70396C6.27871 7.8046 6.37153 7.86261 6.50853 7.87137C6.54627 7.87198 6.58403 7.87206 6.62178 7.87169C6.64197 7.87178 6.66215 7.87187 6.68295 7.87196C6.72542 7.87202 6.76789 7.87185 6.81035 7.87146C6.87502 7.87095 6.93962 7.87145 7.00429 7.87205C7.04573 7.87199 7.08717 7.87187 7.12861 7.87169C7.14776 7.87188 7.16691 7.87207 7.18663 7.87226C7.32019 7.8701 7.39784 7.84175 7.50801 7.76548C7.58585 7.68166 7.60803 7.61795 7.61201 7.50621C7.60663 7.39027 7.58301 7.32275 7.49794 7.24116C7.37605 7.13413 7.27966 7.12874 7.12376 7.12791C7.10443 7.12778 7.08509 7.12764 7.06517 7.12751C7.02425 7.12729 6.98333 7.12713 6.94241 7.12704C6.88007 7.12681 6.81774 7.12609 6.7554 7.12535C6.71559 7.12519 6.67578 7.12507 6.63597 7.12498C6.61743 7.12469 6.5989 7.1244 6.5798 7.1241C6.40138 7.12482 6.29072 7.18457 6.17207 7.32017ZM3.71553 8.77476C3.63294 8.88567 3.62521 8.96539 3.64082 9.10142C3.67828 9.21741 3.74291 9.28186 3.85044 9.34016C3.93859 9.37505 4.0262 9.37259 4.11992 9.37169C4.14068 9.37178 4.16144 9.37187 4.18284 9.37196C4.22651 9.37202 4.27018 9.37185 4.31384 9.37146C4.38046 9.37095 4.44702 9.37145 4.51364 9.37205C4.55623 9.37199 4.59881 9.37187 4.6414 9.37169C4.67107 9.37197 4.67107 9.37197 4.70134 9.37226C4.85672 9.36981 4.94068 9.32179 5.0544 9.21422C5.10933 9.12265 5.12466 9.04378 5.11738 8.93736C5.0863 8.82771 5.041 8.76368 4.95186 8.69273C4.83798 8.63216 4.74215 8.62858 4.61595 8.62791C4.59662 8.62778 4.57728 8.62764 4.55736 8.62751C4.51644 8.62729 4.47552 8.62713 4.4346 8.62704C4.37226 8.62681 4.30993 8.62609 4.24759 8.62535C4.20778 8.62519 4.16797 8.62507 4.12816 8.62498C4.10962 8.62469 4.09109 8.6244 4.07199 8.6241C3.92801 8.62468 3.80724 8.65483 3.71553 8.77476ZM6.17207 8.82017C6.12857 8.95068 6.12727 9.07871 6.18526 9.20396C6.27871 9.3046 6.37153 9.36261 6.50853 9.37137C6.54627 9.37198 6.58403 9.37206 6.62178 9.37169C6.64197 9.37178 6.66215 9.37187 6.68295 9.37196C6.72542 9.37202 6.76789 9.37185 6.81035 9.37146C6.87502 9.37095 6.93962 9.37145 7.00429 9.37205C7.04573 9.37199 7.08717 9.37187 7.12861 9.37169C7.14776 9.37188 7.16691 9.37207 7.18663 9.37226C7.32019 9.3701 7.39784 9.34175 7.50801 9.26548C7.58585 9.18166 7.60803 9.11795 7.61201 9.00621C7.60663 8.89027 7.58301 8.82275 7.49794 8.74116C7.37605 8.63413 7.27966 8.62874 7.12376 8.62791C7.10443 8.62778 7.08509 8.62764 7.06517 8.62751C7.02425 8.62729 6.98333 8.62713 6.94241 8.62704C6.88007 8.62681 6.81774 8.62609 6.7554 8.62535C6.71559 8.62519 6.67578 8.62507 6.63597 8.62498C6.61743 8.62469 6.5989 8.6244 6.5798 8.6241C6.40138 8.62482 6.29072 8.68457 6.17207 8.82017Z" fill="black"/>
<path d="M9.73438 6.66406C10.0772 6.7168 10.0772 6.7168 10.193 6.74102C10.2327 6.74924 10.2327 6.74924 10.2732 6.75764C10.301 6.76349 10.3288 6.76935 10.3575 6.77538C10.4028 6.78483 10.4028 6.78483 10.4491 6.79446C10.531 6.81153 10.613 6.8287 10.6949 6.84589C10.7812 6.86399 10.8675 6.882 10.9539 6.90003C11.0987 6.9303 11.2436 6.96062 11.3884 6.99099C11.5552 7.02595 11.722 7.06082 11.8888 7.09563C12.0501 7.12932 12.2115 7.16307 12.3729 7.19685C12.4411 7.21113 12.5094 7.2254 12.5776 7.23965C12.6732 7.25961 12.7687 7.27965 12.8643 7.29971C12.8922 7.30552 12.92 7.31133 12.9488 7.31731C13.077 7.3443 13.2049 7.37232 13.3323 7.40272C13.3542 7.40792 13.376 7.41312 13.3985 7.41848C13.6225 7.48668 13.794 7.64315 13.9144 7.84097C13.9908 7.98806 14.0035 8.11379 14.0034 8.27916C14.0035 8.3005 14.0036 8.32184 14.0037 8.34382C14.004 8.41548 14.0041 8.48714 14.0041 8.5588C14.0043 8.61012 14.0045 8.66144 14.0046 8.71275C14.0051 8.88145 14.0054 9.05015 14.0056 9.21884C14.0057 9.27694 14.0058 9.33503 14.0059 9.39312C14.0063 9.65044 14.0066 9.90775 14.0068 10.1651C14.0068 10.2121 14.0069 10.2592 14.0069 10.3063C14.0069 10.3218 14.0069 10.3374 14.007 10.3535C14.0071 10.6056 14.0077 10.8578 14.0085 11.11C14.0093 11.3691 14.0097 11.6283 14.0098 11.8874C14.0098 12.0328 14.01 12.1782 14.0106 12.3236C14.0112 12.4605 14.0113 12.5974 14.011 12.7343C14.011 12.7844 14.0112 12.8345 14.0115 12.8846C14.0135 13.2127 14.011 13.5171 13.7656 13.7656C12.7783 14.6015 9.92997 14 9.73438 14C9.73438 11.5791 9.73438 9.15828 9.73438 6.66406ZM11.1265 8.85435C11.0306 8.96497 11.0151 9.0407 11.0169 9.18268C11.0266 9.27089 11.0582 9.31761 11.1172 9.38281C11.294 9.52201 11.4774 9.50505 11.6927 9.50563C11.7437 9.50586 11.7946 9.50659 11.8456 9.50732C12.1283 9.51609 12.1283 9.51609 12.3735 9.39565C12.4694 9.28503 12.4849 9.2093 12.4831 9.06732C12.4734 8.97911 12.4418 8.93239 12.3828 8.86719C12.206 8.72799 12.0226 8.74495 11.8073 8.74437C11.7563 8.74414 11.7054 8.74342 11.6544 8.74268C11.3717 8.73391 11.3717 8.73391 11.1265 8.85435ZM11.1265 10.3544C11.0306 10.465 11.0151 10.5407 11.0169 10.6827C11.0266 10.7709 11.0582 10.8176 11.1172 10.8828C11.294 11.022 11.4774 11.0051 11.6927 11.0056C11.7437 11.0059 11.7946 11.0066 11.8456 11.0073C12.1283 11.0161 12.1283 11.0161 12.3735 10.8956C12.4694 10.785 12.4849 10.7093 12.4831 10.5673C12.4734 10.4791 12.4418 10.4324 12.3828 10.3672C12.206 10.228 12.0226 10.2449 11.8073 10.2444C11.7563 10.2441 11.7054 10.2434 11.6544 10.2427C11.3717 10.2339 11.3717 10.2339 11.1265 10.3544ZM11.1265 11.8544C11.0306 11.965 11.0151 12.0407 11.0169 12.1827C11.0266 12.2709 11.0582 12.3176 11.1172 12.3828C11.294 12.522 11.4774 12.5051 11.6927 12.5056C11.7437 12.5059 11.7946 12.5066 11.8456 12.5073C12.1283 12.5161 12.1283 12.5161 12.3735 12.3956C12.4694 12.285 12.4849 12.2093 12.4831 12.0673C12.4734 11.9791 12.4418 11.9324 12.3828 11.8672C12.206 11.728 12.0226 11.7449 11.8073 11.7444C11.7563 11.7441 11.7054 11.7434 11.6544 11.7427C11.3717 11.7339 11.3717 11.7339 11.1265 11.8544Z" fill="black"/>
</g>
<defs>
<clipPath id="clip0_3760_4775">
<rect width="12" height="12" fill="white" transform="translate(2 2)"/>
</clipPath>
</defs>
</svg>
