<svg width="31" height="34" viewBox="0 0 31 34" fill="none" xmlns="http://www.w3.org/2000/svg">
<rect x="1.13318" y="3.87662" width="19.1654" height="8.59992" fill="#FFD500"/>
<path d="M18.5363 2.53654H17.3005V1.26827C17.3005 0.931904 17.1703 0.609315 16.9386 0.371468C16.7068 0.133621 16.3925 0 16.0648 0C15.737 0 15.4227 0.133621 15.1909 0.371468C14.9592 0.609315 14.829 0.931904 14.829 1.26827V2.53654H7.4145V1.26827C7.4145 0.931904 7.28431 0.609315 7.05256 0.371468C6.82081 0.133621 6.50649 0 6.17875 0C5.85101 0 5.53669 0.133621 5.30494 0.371468C5.0732 0.609315 4.943 0.931904 4.943 1.26827V2.53654H3.70725C2.72403 2.53654 1.78107 2.9374 1.08583 3.65094C0.390584 4.36448 0 5.33225 0 6.34135V21.5606C0 22.5697 0.390584 23.5375 1.08583 24.251C1.78107 24.9645 2.72403 25.3654 3.70725 25.3654H18.5363C19.5195 25.3654 20.4624 24.9645 21.1577 24.251C21.8529 23.5375 22.2435 22.5697 22.2435 21.5606V6.34135C22.2435 5.33225 21.8529 4.36448 21.1577 3.65094C20.4624 2.9374 19.5195 2.53654 18.5363 2.53654ZM3.70725 5.07308H4.943V6.34135C4.943 6.67772 5.0732 7.00031 5.30494 7.23815C5.53669 7.476 5.85101 7.60962 6.17875 7.60962C6.50649 7.60962 6.82081 7.476 7.05256 7.23815C7.28431 7.00031 7.4145 6.67772 7.4145 6.34135V5.07308H14.829V6.34135C14.829 6.67772 14.9592 7.00031 15.1909 7.23815C15.4227 7.476 15.737 7.60962 16.0648 7.60962C16.3925 7.60962 16.7068 7.476 16.9386 7.23815C17.1703 7.00031 17.3005 6.67772 17.3005 6.34135V5.07308H18.5363C18.864 5.07308 19.1783 5.2067 19.4101 5.44455C19.6418 5.6824 19.772 6.00499 19.772 6.34135V11.4144H2.4715V6.34135C2.4715 6.00499 2.6017 5.6824 2.83344 5.44455C3.06519 5.2067 3.37951 5.07308 3.70725 5.07308ZM18.5363 22.8289H3.70725C3.37951 22.8289 3.06519 22.6952 2.83344 22.4574C2.6017 22.2196 2.4715 21.897 2.4715 21.5606V13.951H19.772V21.5606C19.772 21.897 19.6418 22.2196 19.4101 22.4574C19.1783 22.6952 18.864 22.8289 18.5363 22.8289Z" fill="black"/>
<mask id="path-3-outside-1_3767_20764" maskUnits="userSpaceOnUse" x="11.0441" y="14.1866" width="20" height="20" fill="black">
<rect fill="white" x="11.0441" y="14.1866" width="20" height="20"/>
<path fill-rule="evenodd" clip-rule="evenodd" d="M17.0386 24.0932C17.0386 21.9327 18.79 20.1813 20.9505 20.1813C23.1109 20.1813 24.8623 21.9327 24.8623 24.0932V24.0933L24.8633 24.0933C24.8632 26.2537 23.1119 28.0051 20.9514 28.0051C18.791 28.0051 17.0396 26.2537 17.0396 24.0933H13.0444V25.0507C13.0444 25.2638 13.1927 25.4492 13.3965 25.4955L15.1848 25.9495C15.2867 26.2738 15.4164 26.5888 15.5739 26.8946L14.6288 28.4698C14.5176 28.6551 14.5454 28.8867 14.6937 29.035L16.0094 30.3507C16.1577 30.4989 16.3893 30.5267 16.5746 30.4155L18.1498 29.4704C18.4555 29.628 18.7706 29.7577 19.0949 29.8596L19.5396 31.6479C19.5952 31.8517 19.7805 32 19.9936 32H21.8468C22.0599 32 22.2452 31.8517 22.3008 31.6479L22.7455 29.8596C23.0698 29.7577 23.3849 29.628 23.6906 29.4704L25.2658 30.4155C25.4511 30.5267 25.6827 30.4989 25.831 30.3507L27.1467 29.035C27.295 28.8867 27.3228 28.6551 27.2116 28.4698L26.2665 26.8946C26.424 26.5888 26.5537 26.2738 26.6556 25.9495L28.5057 25.4955C28.7095 25.4492 28.8578 25.2638 28.8578 25.0507V24.0933H28.8575V23.1359C28.8575 22.9227 28.7092 22.7374 28.5054 22.6911L26.7171 22.2371C26.6152 21.9128 26.4855 21.5978 26.328 21.292L27.2731 19.7168C27.3842 19.5315 27.3565 19.2999 27.2082 19.1516L25.8925 17.8359C25.7442 17.6877 25.5126 17.6599 25.3273 17.7711L23.7521 18.7161C23.4464 18.5586 23.1313 18.4289 22.807 18.327L22.3623 16.5387C22.3067 16.3349 22.1214 16.1866 21.9083 16.1866L20.0551 16.1866C19.842 16.1866 19.6567 16.3349 19.6011 16.5387L19.1564 18.327C18.8321 18.4289 18.517 18.5586 18.2113 18.7161L16.6361 17.7711C16.4508 17.6599 16.2192 17.6877 16.0709 17.8359L14.7552 19.1516C14.6069 19.2999 14.5791 19.5315 14.6903 19.7168L15.6354 21.292C15.4779 21.5978 15.3482 21.9128 15.2463 22.2371L13.3962 22.6911C13.1924 22.7374 13.0441 22.9227 13.0441 23.1359L13.0441 24.0933L17.0386 24.0933V24.0932Z"/>
</mask>
<path fill-rule="evenodd" clip-rule="evenodd" d="M17.0386 24.0932C17.0386 21.9327 18.79 20.1813 20.9505 20.1813C23.1109 20.1813 24.8623 21.9327 24.8623 24.0932V24.0933L24.8633 24.0933C24.8632 26.2537 23.1119 28.0051 20.9514 28.0051C18.791 28.0051 17.0396 26.2537 17.0396 24.0933H13.0444V25.0507C13.0444 25.2638 13.1927 25.4492 13.3965 25.4955L15.1848 25.9495C15.2867 26.2738 15.4164 26.5888 15.5739 26.8946L14.6288 28.4698C14.5176 28.6551 14.5454 28.8867 14.6937 29.035L16.0094 30.3507C16.1577 30.4989 16.3893 30.5267 16.5746 30.4155L18.1498 29.4704C18.4555 29.628 18.7706 29.7577 19.0949 29.8596L19.5396 31.6479C19.5952 31.8517 19.7805 32 19.9936 32H21.8468C22.0599 32 22.2452 31.8517 22.3008 31.6479L22.7455 29.8596C23.0698 29.7577 23.3849 29.628 23.6906 29.4704L25.2658 30.4155C25.4511 30.5267 25.6827 30.4989 25.831 30.3507L27.1467 29.035C27.295 28.8867 27.3228 28.6551 27.2116 28.4698L26.2665 26.8946C26.424 26.5888 26.5537 26.2738 26.6556 25.9495L28.5057 25.4955C28.7095 25.4492 28.8578 25.2638 28.8578 25.0507V24.0933H28.8575V23.1359C28.8575 22.9227 28.7092 22.7374 28.5054 22.6911L26.7171 22.2371C26.6152 21.9128 26.4855 21.5978 26.328 21.292L27.2731 19.7168C27.3842 19.5315 27.3565 19.2999 27.2082 19.1516L25.8925 17.8359C25.7442 17.6877 25.5126 17.6599 25.3273 17.7711L23.7521 18.7161C23.4464 18.5586 23.1313 18.4289 22.807 18.327L22.3623 16.5387C22.3067 16.3349 22.1214 16.1866 21.9083 16.1866L20.0551 16.1866C19.842 16.1866 19.6567 16.3349 19.6011 16.5387L19.1564 18.327C18.8321 18.4289 18.517 18.5586 18.2113 18.7161L16.6361 17.7711C16.4508 17.6599 16.2192 17.6877 16.0709 17.8359L14.7552 19.1516C14.6069 19.2999 14.5791 19.5315 14.6903 19.7168L15.6354 21.292C15.4779 21.5978 15.3482 21.9128 15.2463 22.2371L13.3962 22.6911C13.1924 22.7374 13.0441 22.9227 13.0441 23.1359L13.0441 24.0933L17.0386 24.0933V24.0932Z" fill="black"/>
<path d="M20.9505 20.1813V18.4439V20.1813ZM17.0386 24.0932L15.3012 24.0932V24.0932H17.0386ZM24.8623 24.0933H23.1248V25.8299L24.8614 25.8307L24.8623 24.0933ZM24.8633 24.0933L26.6007 24.0933L26.6007 22.3567L24.8641 22.3558L24.8633 24.0933ZM17.0396 24.0933L18.7771 24.0933L18.7771 22.3558H17.0396V24.0933ZM13.0444 24.0933V22.3558H11.307V24.0933H13.0444ZM13.3965 25.4955L13.8241 23.8115L13.8029 23.8061L13.7816 23.8012L13.3965 25.4955ZM15.1848 25.9495L16.8423 25.4286L16.5517 24.504L15.6123 24.2655L15.1848 25.9495ZM15.5739 26.8946L17.0638 27.7885L17.5615 26.9589L17.1185 26.0989L15.5739 26.8946ZM14.6288 28.4698L13.139 27.5758L13.139 27.5758L14.6288 28.4698ZM14.6937 29.035L13.4651 30.2635L13.4651 30.2635L14.6937 29.035ZM16.0094 30.3507L17.238 29.1221L17.238 29.1221L16.0094 30.3507ZM16.5746 30.4155L15.6807 28.9257L15.6807 28.9257L16.5746 30.4155ZM18.1498 29.4704L18.9455 27.9259L18.0854 27.4828L17.2559 27.9806L18.1498 29.4704ZM19.0949 29.8596L20.781 29.4403L20.5457 28.4943L19.6158 28.2021L19.0949 29.8596ZM19.5396 31.6479L17.8535 32.0672L17.8582 32.0862L17.8634 32.105L19.5396 31.6479ZM22.3008 31.6479L23.977 32.105L23.9821 32.0862L23.9869 32.0672L22.3008 31.6479ZM22.7455 29.8596L22.2246 28.2021L21.2947 28.4943L21.0594 29.4403L22.7455 29.8596ZM23.6906 29.4704L24.5845 27.9806L23.755 27.4828L22.8949 27.9259L23.6906 29.4704ZM25.2658 30.4155L26.1597 28.9257L26.1597 28.9257L25.2658 30.4155ZM25.831 30.3507L24.6024 29.1221H24.6024L25.831 30.3507ZM27.1467 29.035L28.3753 30.2635L28.3753 30.2635L27.1467 29.035ZM27.2116 28.4698L28.7014 27.5758L27.2116 28.4698ZM26.2665 26.8946L24.7219 26.0989L24.2789 26.9589L24.7766 27.7885L26.2665 26.8946ZM26.6556 25.9495L26.2415 24.2621L25.2914 24.4953L24.9981 25.4286L26.6556 25.9495ZM28.5057 25.4955L28.1206 23.8012L28.1061 23.8045L28.0916 23.8081L28.5057 25.4955ZM28.8578 24.0933H30.5952V22.3558H28.8578V24.0933ZM28.8575 24.0933H27.12V25.8307H28.8575V24.0933ZM28.5054 22.6911L28.0778 24.3751L28.099 24.3805L28.1203 24.3854L28.5054 22.6911ZM26.7171 22.2371L25.0596 22.758L25.3502 23.6826L26.2896 23.9211L26.7171 22.2371ZM26.328 21.292L24.8381 20.3981L24.3404 21.2277L24.7834 22.0877L26.328 21.292ZM27.2731 19.7168L25.7832 18.8229L25.7832 18.8229L27.2731 19.7168ZM27.2082 19.1516L25.9796 20.3802V20.3802L27.2082 19.1516ZM25.8925 17.8359L27.121 16.6074L27.121 16.6073L25.8925 17.8359ZM25.3273 17.7711L24.4334 16.2812L24.4334 16.2812L25.3273 17.7711ZM23.7521 18.7161L22.9564 20.2607L23.8165 20.7037L24.646 20.206L23.7521 18.7161ZM22.807 18.327L21.1209 18.7463L21.3562 19.6923L22.2861 19.9845L22.807 18.327ZM22.3623 16.5387L24.0484 16.1194L24.0436 16.1004L24.0385 16.0816L22.3623 16.5387ZM21.9083 16.1866V14.4492V16.1866ZM20.0551 16.1866V14.4492V16.1866ZM19.6011 16.5387L17.9249 16.0816L17.9197 16.1004L17.915 16.1194L19.6011 16.5387ZM19.1564 18.327L19.6773 19.9845L20.6072 19.6923L20.8424 18.7463L19.1564 18.327ZM18.2113 18.7161L17.3174 20.206L18.1469 20.7037L19.0069 20.2607L18.2113 18.7161ZM16.6361 17.7711L15.7422 19.2609L15.7422 19.2609L16.6361 17.7711ZM16.0709 17.8359L17.2995 19.0645L17.2995 19.0645L16.0709 17.8359ZM14.7552 19.1516L13.5266 17.9231L13.5266 17.9231L14.7552 19.1516ZM14.6903 19.7168L16.1802 18.8229L16.1802 18.8229L14.6903 19.7168ZM15.6354 21.292L17.18 22.0877L17.623 21.2277L17.1253 20.3981L15.6354 21.292ZM15.2463 22.2371L15.6604 23.9245L16.6105 23.6913L16.9038 22.758L15.2463 22.2371ZM13.3962 22.6911L13.7813 24.3854L13.7958 24.382L13.8103 24.3785L13.3962 22.6911ZM13.0441 23.1359L11.3067 23.1359L13.0441 23.1359ZM13.0441 24.0933L11.3067 24.0933L11.3067 25.8307H13.0441L13.0441 24.0933ZM17.0386 24.0933L17.0386 25.8307H18.7761V24.0933H17.0386ZM20.9505 18.4439C17.8305 18.4439 15.3012 20.9731 15.3012 24.0932L18.7761 24.0932C18.7761 22.8923 19.7496 21.9188 20.9505 21.9188V18.4439ZM26.5997 24.0932C26.5997 20.9731 24.0705 18.4439 20.9505 18.4439V21.9188C22.1513 21.9188 23.1248 22.8923 23.1248 24.0932H26.5997ZM26.5997 24.0933V24.0932H23.1248V24.0933H26.5997ZM24.8641 22.3558L24.8631 22.3558L24.8614 25.8307L24.8624 25.8307L24.8641 22.3558ZM23.1258 24.0933C23.1258 25.2941 22.1523 26.2676 20.9514 26.2676V29.7425C24.0714 29.7425 26.6007 27.2133 26.6007 24.0933L23.1258 24.0933ZM20.9514 26.2676C19.7506 26.2676 18.7771 25.2941 18.7771 24.0933L15.3022 24.0933C15.3022 27.2133 17.8315 29.7425 20.9514 29.7425V26.2676ZM17.0396 22.3558H13.0444V25.8307H17.0396V22.3558ZM11.307 24.0933V25.0507H14.7819V24.0933H11.307ZM11.307 25.0507C11.307 26.0676 12.0093 26.962 13.0114 27.1897L13.7816 23.8012C14.376 23.9363 14.7819 24.4601 14.7819 25.0507H11.307ZM12.969 27.1795L14.7572 27.6335L15.6123 24.2655L13.8241 23.8115L12.969 27.1795ZM13.5273 26.4704C13.6593 26.8905 13.827 27.2974 14.0294 27.6903L17.1185 26.0989C17.0059 25.8803 16.9141 25.6571 16.8423 25.4286L13.5273 26.4704ZM14.0841 26.0007L13.139 27.5758L16.1187 29.3637L17.0638 27.7885L14.0841 26.0007ZM13.139 27.5758C12.6278 28.4278 12.7392 29.5376 13.4651 30.2635L15.9223 27.8064C16.3517 28.2358 16.4075 28.8824 16.1187 29.3637L13.139 27.5758ZM13.4651 30.2635L14.7808 31.5792L17.238 29.1221L15.9223 27.8064L13.4651 30.2635ZM14.7808 31.5792C15.5068 32.3052 16.6166 32.4165 17.4685 31.9054L15.6807 28.9257C16.162 28.6369 16.8086 28.6927 17.238 29.1221L14.7808 31.5792ZM17.4685 31.9054L19.0437 30.9603L17.2559 27.9806L15.6807 28.9257L17.4685 31.9054ZM17.3541 31.015C17.747 31.2174 18.1539 31.3851 18.5739 31.5171L19.6158 28.2021C19.3873 28.1303 19.1641 28.0385 18.9455 27.9259L17.3541 31.015ZM17.4088 30.2789L17.8535 32.0672L21.2257 31.2285L20.781 29.4403L17.4088 30.2789ZM17.8634 32.105C18.116 33.0314 18.963 33.7374 19.9936 33.7374V30.2625C20.5981 30.2625 21.0744 30.672 21.2158 31.1907L17.8634 32.105ZM19.9936 33.7374H21.8468V30.2625H19.9936V33.7374ZM21.8468 33.7374C22.8774 33.7374 23.7244 33.0314 23.977 32.105L20.6246 31.1907C20.766 30.672 21.2423 30.2625 21.8468 30.2625V33.7374ZM23.9869 32.0672L24.4316 30.2789L21.0594 29.4403L20.6147 31.2285L23.9869 32.0672ZM23.2665 31.5171C23.6865 31.3851 24.0934 31.2174 24.4863 31.015L22.8949 27.9259C22.6763 28.0385 22.4531 28.1303 22.2246 28.2021L23.2665 31.5171ZM22.7967 30.9603L24.3719 31.9054L26.1597 28.9257L24.5845 27.9806L22.7967 30.9603ZM24.3719 31.9054C25.2238 32.4165 26.3336 32.3052 27.0596 31.5792L24.6024 29.1221C25.0318 28.6927 25.6784 28.6369 26.1597 28.9257L24.3719 31.9054ZM27.0595 31.5792L28.3753 30.2635L25.9181 27.8064L24.6024 29.1221L27.0595 31.5792ZM28.3753 30.2635C29.1012 29.5376 29.2126 28.4278 28.7014 27.5758L25.7217 29.3637C25.4329 28.8824 25.4887 28.2358 25.9181 27.8064L28.3753 30.2635ZM28.7014 27.5758L27.7563 26.0007L24.7766 27.7885L25.7217 29.3637L28.7014 27.5758ZM27.811 27.6903C28.0134 27.2974 28.1811 26.8905 28.3131 26.4704L24.9981 25.4286C24.9263 25.6571 24.8345 25.8803 24.7219 26.0989L27.811 27.6903ZM27.0697 27.6369L28.9198 27.1829L28.0916 23.8081L26.2415 24.2621L27.0697 27.6369ZM28.8907 27.1897C29.8929 26.962 30.5952 26.0676 30.5952 25.0507H27.1203C27.1203 24.4601 27.5262 23.9363 28.1206 23.8012L28.8907 27.1897ZM30.5952 25.0507V24.0933H27.1203V25.0507H30.5952ZM28.8578 22.3558H28.8575V25.8307H28.8578V22.3558ZM27.12 23.1359V24.0933H30.5949V23.1359H27.12ZM28.1203 24.3854C27.5259 24.2502 27.12 23.7265 27.12 23.1359H30.5949C30.5949 22.119 29.8926 21.2246 28.8904 20.9969L28.1203 24.3854ZM26.2896 23.9211L28.0778 24.3751L28.9329 21.0071L27.1447 20.5531L26.2896 23.9211ZM24.7834 22.0877C24.896 22.3063 24.9878 22.5295 25.0596 22.758L28.3746 21.7162C28.2426 21.2961 28.0749 20.8892 27.8725 20.4963L24.7834 22.0877ZM25.7832 18.8229L24.8381 20.3981L27.8178 22.1859L28.7629 20.6107L25.7832 18.8229ZM25.9796 20.3802C25.5502 19.9508 25.4944 19.3042 25.7832 18.8229L28.7629 20.6108C29.2741 19.7588 29.1627 18.649 28.4368 17.9231L25.9796 20.3802ZM24.6639 19.0645L25.9796 20.3802L28.4368 17.9231L27.121 16.6074L24.6639 19.0645ZM26.2212 19.2609C25.7399 19.5497 25.0933 19.4939 24.6639 19.0645L27.121 16.6073C26.3951 15.8814 25.2853 15.77 24.4334 16.2812L26.2212 19.2609ZM24.646 20.206L26.2212 19.2609L24.4334 16.2812L22.8582 17.2263L24.646 20.206ZM22.2861 19.9845C22.5146 20.0563 22.7378 20.1481 22.9564 20.2607L24.5478 17.1716C24.1549 16.9692 23.748 16.8015 23.328 16.6695L22.2861 19.9845ZM20.6762 16.9581L21.1209 18.7463L24.4931 17.9077L24.0484 16.1194L20.6762 16.9581ZM21.9083 17.9241C21.3038 17.9241 20.8275 17.5146 20.686 16.9959L24.0385 16.0816C23.7859 15.1552 22.9389 14.4492 21.9083 14.4492V17.9241ZM20.0551 17.9241L21.9083 17.9241V14.4492L20.0551 14.4492V17.9241ZM21.2773 16.9959C21.1359 17.5146 20.6596 17.9241 20.0551 17.9241V14.4492C19.0245 14.4492 18.1775 15.1552 17.9249 16.0816L21.2773 16.9959ZM20.8424 18.7463L21.2872 16.9581L17.915 16.1194L17.4703 17.9077L20.8424 18.7463ZM19.0069 20.2607C19.2256 20.1481 19.4488 20.0563 19.6773 19.9845L18.6354 16.6695C18.2154 16.8015 17.8085 16.9692 17.4156 17.1716L19.0069 20.2607ZM15.7422 19.2609L17.3174 20.206L19.1052 17.2263L17.53 16.2812L15.7422 19.2609ZM17.2995 19.0645C16.87 19.4939 16.2235 19.5497 15.7422 19.2609L17.53 16.2812C16.6781 15.77 15.5683 15.8814 14.8423 16.6074L17.2995 19.0645ZM15.9837 20.3802L17.2995 19.0645L14.8423 16.6073L13.5266 17.9231L15.9837 20.3802ZM16.1802 18.8229C16.469 19.3042 16.4132 19.9508 15.9837 20.3802L13.5266 17.9231C12.8007 18.649 12.6893 19.7588 13.2005 20.6107L16.1802 18.8229ZM17.1253 20.3981L16.1802 18.8229L13.2005 20.6107L14.1456 22.1859L17.1253 20.3981ZM16.9038 22.758C16.9756 22.5295 17.0673 22.3063 17.18 22.0877L14.0909 20.4963C13.8885 20.8892 13.7208 21.2961 13.5887 21.7162L16.9038 22.758ZM13.8103 24.3785L15.6604 23.9245L14.8322 20.5497L12.9821 21.0037L13.8103 24.3785ZM14.7816 23.1359C14.7816 23.7265 14.3757 24.2502 13.7813 24.3854L13.0112 20.9969C12.009 21.2246 11.3067 22.119 11.3067 23.1359L14.7816 23.1359ZM14.7816 24.0933L14.7816 23.1359L11.3067 23.1359L11.3067 24.0933L14.7816 24.0933ZM17.0386 22.3558L13.0441 22.3558L13.0441 25.8307L17.0386 25.8307L17.0386 22.3558ZM15.3012 24.0932V24.0933H18.7761V24.0932H15.3012Z" fill="white" mask="url(#path-3-outside-1_3767_20764)"/>
<rect x="4.77979" y="16.6874" width="7.63149" height="2.81783" rx="1.40892" fill="black"/>
<circle cx="20.9509" cy="24.0933" r="4.12427" fill="#FFD500"/>
</svg>
