<svg width="335" height="145" viewBox="0 0 335 145" fill="none" xmlns="http://www.w3.org/2000/svg">
<path d="M252.712 132.061L231.063 132.031C230.032 132.031 229.516 131.706 229.912 131.312L238.247 123.021C238.643 122.627 239.807 122.302 240.838 122.312L262.488 122.342C263.519 122.342 264.035 122.666 263.639 123.06L255.303 131.352C254.901 131.746 253.744 132.061 252.712 132.061Z" fill="#272941"/>
<path d="M255.201 128.801L235.111 128.772C234.577 128.772 234.259 128.653 234.403 128.516L239.746 123.198C239.89 123.06 240.436 122.942 240.97 122.942L261.06 122.972C261.594 122.972 261.912 123.09 261.768 123.228L256.424 128.545C256.286 128.693 255.741 128.801 255.201 128.801Z" fill="#F2F2F2"/>
<path d="M241.6 125.942C242.638 125.942 243.807 125.617 244.209 125.223C244.611 124.829 244.089 124.504 243.051 124.494C242.014 124.494 240.845 124.819 240.443 125.213C240.041 125.617 240.563 125.942 241.6 125.942Z" fill="url(#paint0_linear_10673_8437)"/>
<path d="M258.248 126.729L253.918 131.032C253.714 131.239 253.114 131.406 252.581 131.397L232.491 131.367C231.957 131.367 231.693 131.2 231.897 130.993L234.488 128.413C237.06 127.832 239.627 127.241 242.194 126.66C243.075 126.463 243.975 126.256 244.898 126.148C245.822 126.04 246.788 126.04 247.291 126.237C247.759 126.414 247.765 126.719 247.945 126.975C248.125 127.231 248.653 127.468 249.516 127.379C249.984 127.33 250.428 127.192 250.848 127.064C252.317 126.621 253.882 126.237 255.495 125.902C256.143 125.774 256.911 125.646 257.384 125.744C257.678 125.803 257.774 125.941 257.858 126.069C257.978 126.306 258.116 126.522 258.248 126.729Z" fill="url(#paint1_linear_10673_8437)"/>
<path d="M229.78 133.035L253.195 133.305C254.057 133.315 254.885 132.965 255.479 132.339L263.554 123.84C263.693 123.693 263.769 123.498 263.767 123.295L263.759 122.725L262.704 123.227L254.482 131.41L229.78 131.508V133.035Z" fill="#272941"/>
<path d="M124.628 110.137L125.707 109.073C125.941 108.842 125.941 108.463 125.707 108.233C125.473 108.002 125.09 108.002 124.856 108.233L123.776 109.297L122.697 108.233C122.463 108.002 122.079 108.002 121.845 108.233C121.611 108.463 121.611 108.842 121.845 109.073L122.925 110.137L121.845 111.202C121.611 111.433 121.611 111.811 121.845 112.042C122.079 112.273 122.463 112.273 122.697 112.042L123.776 110.977L124.856 112.042C125.09 112.273 125.473 112.273 125.707 112.042C125.941 111.811 125.941 111.433 125.707 111.202L124.628 110.137Z" fill="#FED500"/>
<path d="M281.889 62.7993L282.969 61.7346C283.203 61.5039 283.203 61.1254 282.969 60.8947C282.735 60.664 282.351 60.664 282.117 60.8947L281.038 61.9594L279.958 60.8947C279.724 60.664 279.341 60.664 279.107 60.8947C278.873 61.1254 278.873 61.5039 279.107 61.7346L280.186 62.7993L279.107 63.864C278.873 64.0947 278.873 64.4733 279.107 64.7039C279.341 64.9346 279.724 64.9346 279.958 64.7039L281.038 63.6392L282.117 64.7039C282.351 64.9346 282.735 64.9346 282.969 64.7039C283.203 64.4733 283.203 64.0947 282.969 63.864L281.889 62.7993Z" fill="#FED500"/>
<path d="M92.5493 38.2599L93.6288 37.1952C93.8626 36.9645 93.8626 36.5859 93.6288 36.3553C93.3949 36.1246 93.0111 36.1246 92.7772 36.3553L91.6977 37.42L90.6182 36.3553C90.3844 36.1246 90.0005 36.1246 89.7667 36.3553C89.5328 36.5859 89.5328 36.9645 89.7667 37.1952L90.8461 38.2599L89.7667 39.3246C89.5328 39.5553 89.5328 39.9338 89.7667 40.1645C90.0005 40.3952 90.3844 40.3952 90.6182 40.1645L91.6977 39.0998L92.7772 40.1645C93.0111 40.3952 93.3949 40.3952 93.6288 40.1645C93.8626 39.9338 93.8626 39.5553 93.6288 39.3246L92.5493 38.2599Z" fill="#FED500"/>
<path d="M250.949 40.9443H288.455C288.455 40.9443 290.662 39.6785 285.672 39.1166C280.683 38.5547 282.098 35.3133 280.893 35.8693C279.687 36.4253 278.518 38.3063 276.377 35.8042C273.277 32.1961 270.704 29.4397 269.073 33.2549C267.441 37.07 265.558 36.2774 264.713 35.4257C263.189 33.8937 260.563 32.9532 259.195 35.4257C257.828 37.8981 255.723 35.0294 254.212 34.8815C252.791 34.7395 253.006 38.2708 250.8 38.6967C248.593 39.1225 246.596 38.6967 246.65 39.6135C246.704 40.5303 250.476 40.9443 250.949 40.9443Z" fill="url(#paint2_linear_10673_8437)"/>
<path d="M43.3012 71.2107H86.546C86.546 71.2107 89.0947 69.7556 83.3376 69.1049C77.5804 68.4543 79.2176 64.7042 77.8263 65.3549C76.4349 66.0055 75.0916 68.1645 72.6328 65.278C69.0586 61.1197 66.09 57.9434 64.2129 62.3382C62.3359 66.739 60.1589 65.8221 59.1814 64.8402C57.4243 63.0717 54.3957 61.9892 52.8245 64.8402C51.2533 67.6913 48.8185 64.3848 47.0793 64.2133C45.4361 64.0476 45.688 68.1231 43.1453 68.6081C40.6025 69.099 38.2996 68.6081 38.3596 69.6669C38.4196 70.7375 42.7555 71.2107 43.3012 71.2107Z" fill="url(#paint3_linear_10673_8437)"/>
<path d="M230.78 135.016L209.137 134.986C208.105 134.986 207.632 134.661 208.081 134.267L217.527 125.976C217.977 125.582 219.182 125.257 220.213 125.267L241.857 125.296C242.888 125.296 243.362 125.621 242.912 126.015L233.467 134.307C233.017 134.701 231.812 135.016 230.78 135.016Z" fill="#272941"/>
<path d="M233.707 131.756L213.622 131.727C213.089 131.727 212.783 131.609 212.945 131.471L218.996 126.153C219.158 126.015 219.721 125.897 220.255 125.897L240.339 125.927C240.873 125.927 241.179 126.045 241.017 126.183L234.966 131.5C234.804 131.648 234.24 131.756 233.707 131.756Z" fill="#F2F2F2"/>
<path d="M220.49 128.897C221.527 128.897 222.739 128.572 223.194 128.178C223.65 127.784 223.17 127.459 222.133 127.449C221.095 127.439 219.884 127.774 219.428 128.168C218.972 128.572 219.446 128.897 220.49 128.897Z" fill="url(#paint4_linear_10673_8437)"/>
<path d="M237.03 129.696L232.124 133.999C231.89 134.206 231.272 134.373 230.739 134.363L210.655 134.334C210.121 134.334 209.875 134.166 210.109 133.96L213.041 131.38C215.692 130.799 218.337 130.208 220.981 129.627C221.887 129.43 222.817 129.223 223.758 129.115C224.694 129.006 225.659 129.006 226.139 129.203C226.583 129.381 226.547 129.686 226.691 129.942C226.835 130.198 227.332 130.434 228.208 130.346C228.688 130.296 229.143 130.159 229.581 130.03C231.11 129.587 232.724 129.203 234.385 128.869C235.051 128.74 235.836 128.612 236.292 128.711C236.58 128.77 236.658 128.908 236.718 129.036C236.82 129.262 236.922 129.479 237.03 129.696Z" fill="url(#paint5_linear_10673_8437)"/>
<path d="M207.914 134.545V134.823C207.914 135.252 208.261 135.599 208.689 135.599H232.633L243.08 126.687V125.643L232.526 134.397L207.914 134.545Z" fill="#272941"/>
<path d="M67.9456 110.471L77.2472 113.795C87.5823 113.795 97.9248 113.795 108.26 113.795C104.497 112.69 100.727 111.577 96.964 110.471H67.9456Z" fill="#EFBF68"/>
<path d="M97.3208 120.347L75.6606 124.87C74.6271 125.085 73.6154 124.432 73.3971 123.412L68.8118 102.049C68.5934 101.029 69.2557 100.031 70.2893 99.8161L91.9494 95.2935C92.9829 95.0781 93.9946 95.7314 94.2129 96.7508L98.7983 118.114C99.0093 119.127 98.3543 120.132 97.3208 120.347Z" fill="#272941"/>
<path d="M94.737 112.12L74.6344 116.319C74.0958 116.434 73.6008 116.226 73.5281 115.86L70.5876 102.17C70.5076 101.804 70.8788 101.423 71.4174 101.309L91.52 97.109C92.0585 96.9942 92.5535 97.2023 92.6263 97.5685L95.5667 111.258C95.6395 111.624 95.2683 112.012 94.737 112.12Z" fill="#F2F2F2"/>
<path d="M76.7086 108.264C77.7494 108.048 78.4118 107.036 78.1934 106.009C77.9751 104.983 76.9488 104.33 75.908 104.545C74.8672 104.76 74.2049 105.773 74.4233 106.799C74.6489 107.826 75.6679 108.479 76.7086 108.264Z" fill="url(#paint6_linear_10673_8437)"/>
<path d="M94.562 106.599L96.942 117.69C97.0584 118.221 96.7163 118.738 96.1777 118.845L76.0751 123.045C75.5366 123.16 75.0198 122.822 74.9033 122.291L73.4768 115.658C75.1363 113.734 76.7884 111.803 78.4406 109.879C79.0083 109.219 79.5906 108.544 80.3475 108.092C81.0972 107.64 82.0652 107.439 82.8731 107.79C83.6154 108.113 84.0958 108.838 84.6781 109.405C85.2603 109.973 86.1556 110.418 86.8688 110.023C87.2619 109.808 87.4875 109.391 87.7131 109.003C88.4919 107.647 89.4453 106.398 90.5516 105.278C90.9956 104.833 91.5706 104.373 92.182 104.495C92.575 104.581 92.8807 104.876 93.1573 105.163C93.6303 105.644 94.0961 106.125 94.562 106.599Z" fill="url(#paint7_linear_10673_8437)"/>
<path d="M101.63 120.924L79.9696 125.446C78.9361 125.662 77.9244 125.009 77.706 123.989L73.1207 102.626C72.9024 101.606 73.5647 100.608 74.5982 100.393L96.2584 95.8704C97.2919 95.655 98.3036 96.3083 98.5219 97.3277L103.107 118.691C103.318 119.704 102.663 120.709 101.63 120.924Z" fill="#272941"/>
<path d="M99.046 112.699L78.9434 116.898C78.4049 117.013 77.9099 116.805 77.8371 116.439L74.8967 102.749C74.8167 102.383 75.1879 102.003 75.7264 101.888L95.829 97.6884C96.3676 97.5735 96.8626 97.7817 96.9353 98.1478L99.8758 111.838C99.9485 112.204 99.5774 112.591 99.046 112.699Z" fill="#F2F2F2"/>
<path d="M81.0177 108.843C82.0585 108.627 82.7209 107.615 82.5025 106.589C82.2842 105.562 81.2579 104.909 80.2171 105.124C79.1763 105.34 78.514 106.352 78.7323 107.378C78.958 108.405 79.9769 109.058 81.0177 108.843Z" fill="url(#paint8_linear_10673_8437)"/>
<path d="M98.871 107.178L101.251 118.269C101.367 118.8 101.025 119.317 100.487 119.425L80.3842 123.624C79.8456 123.739 79.3289 123.402 79.2124 122.871L77.7859 116.238C79.4453 114.314 81.0975 112.383 82.7497 110.459C83.3174 109.798 83.8996 109.124 84.6566 108.671C85.4062 108.219 86.3742 108.018 87.1821 108.37C87.9245 108.693 88.4049 109.418 88.9871 109.985C89.5694 110.552 90.4646 110.997 91.1779 110.602C91.5709 110.387 91.7966 109.971 92.0222 109.583C92.801 108.226 93.7544 106.977 94.8607 105.857C95.3047 105.412 95.8797 104.953 96.491 105.075C96.8841 105.161 97.1898 105.455 97.4663 105.742C97.9394 106.223 98.4052 106.704 98.871 107.178Z" fill="url(#paint9_linear_10673_8437)"/>
<path d="M103.777 123.657L81.6366 123.578C80.5812 123.571 79.7297 122.724 79.7297 121.683L79.8097 99.8455C79.817 98.8046 80.6759 97.9647 81.7312 97.9647L103.872 98.0437C104.927 98.0509 105.779 98.8979 105.779 99.9389L105.699 121.776C105.699 122.817 104.84 123.657 103.777 123.657Z" fill="#272941"/>
<path d="M103.013 115.076L82.4664 115.004C81.9205 115.004 81.4766 114.703 81.4766 114.329L81.5275 100.338C81.5275 99.9647 81.9715 99.6632 82.5174 99.6704L103.064 99.7422C103.61 99.7422 104.054 100.044 104.054 100.417L104.003 114.408C104.003 114.774 103.559 115.076 103.013 115.076Z" fill="#F2F2F2"/>
<path d="M86.2146 107.561C87.2772 107.568 88.1434 106.714 88.1506 105.665C88.1579 104.617 87.2918 103.763 86.2292 103.756C85.1665 103.749 84.3004 104.603 84.2932 105.651C84.2932 106.699 85.152 107.553 86.2146 107.561Z" fill="url(#paint10_linear_10673_8437)"/>
<path d="M104.025 109.645L103.981 120.98C103.981 121.519 103.537 121.957 102.991 121.949L82.4449 121.878C81.899 121.878 81.455 121.44 81.4623 120.901L81.4841 114.117C83.5148 112.581 85.5454 111.038 87.5688 109.502C88.2675 108.978 88.9808 108.439 89.8105 108.152C90.6402 107.865 91.6301 107.872 92.3433 108.382C92.9984 108.855 93.3186 109.66 93.7626 110.334C94.2066 111.009 94.9853 111.626 95.7714 111.39C96.2008 111.26 96.5138 110.901 96.8122 110.571C97.8675 109.408 99.0685 108.382 100.379 107.52C100.903 107.176 101.565 106.845 102.14 107.097C102.504 107.262 102.737 107.614 102.948 107.951C103.312 108.518 103.668 109.078 104.025 109.645Z" fill="url(#paint11_linear_10673_8437)"/>
<path d="M108.261 113.807C109.964 115.903 111.667 117.999 113.37 120.095C111.667 119.657 109.964 119.219 108.261 118.781C108.261 117.123 108.261 115.465 108.261 113.807Z" fill="#EFBF68"/>
<path d="M77.2517 133.253L108.264 133.253L108.264 113.799L77.2517 113.799L77.2517 133.253Z" fill="#F2D270"/>
<path d="M67.9456 110.471L77.2472 113.802V133.249L67.9456 128.31V110.471Z" fill="#EFBF68"/>
<path d="M77.2475 113.802C75.2897 116.013 73.3318 118.232 71.3667 120.443C68.6592 119.129 65.9517 117.822 63.2441 116.509C64.809 114.499 66.3811 112.481 67.9459 110.471L77.2475 113.802Z" fill="#F2D270"/>
<path d="M35.2745 116.178L43.4989 119.502C52.6404 119.502 61.7819 119.502 70.9235 119.502C67.5973 118.396 64.2638 117.283 60.9377 116.178H35.2745Z" fill="#EFBF68"/>
<path d="M63.0917 132.175L41.0531 134.271C40.005 134.371 39.0661 133.611 38.9642 132.577L36.839 110.84C36.7371 109.806 37.5086 108.88 38.5567 108.78L60.5953 106.683C61.6434 106.583 62.5823 107.344 62.6841 108.378L64.8094 130.115C64.9186 131.155 64.1471 132.074 63.0917 132.175Z" fill="#272941"/>
<path d="M61.4614 123.72L41.0095 125.666C40.4636 125.716 39.9978 125.457 39.9614 125.091L38.6003 111.165C38.564 110.791 38.9715 110.454 39.5174 110.404L59.9694 108.458C60.5152 108.408 60.981 108.666 61.0174 109.033L62.3785 122.959C62.4221 123.325 62.0073 123.67 61.4614 123.72Z" fill="#F2F2F2"/>
<path d="M43.9936 117.89C45.049 117.79 45.8277 116.864 45.7258 115.816C45.6239 114.775 44.685 114.006 43.6224 114.107C42.5671 114.207 41.7883 115.134 41.8902 116.182C41.9921 117.23 42.931 117.991 43.9936 117.89Z" fill="url(#paint12_linear_10673_8437)"/>
<path d="M61.9197 118.21L63.026 129.495C63.077 130.033 62.6839 130.507 62.1381 130.557L41.6861 132.502C41.1402 132.553 40.6599 132.165 40.6089 131.627L39.9466 124.879C41.8098 123.149 43.6731 121.419 45.5363 119.688C46.1768 119.1 46.8318 118.49 47.6325 118.124C48.4331 117.757 49.4156 117.664 50.1726 118.102C50.8786 118.511 51.2716 119.279 51.7811 119.904C52.2905 120.536 53.1276 121.074 53.8918 120.758C54.3066 120.586 54.5832 120.198 54.8452 119.839C55.7768 118.576 56.8686 117.442 58.0841 116.451C58.5717 116.056 59.1976 115.661 59.7945 115.855C60.1729 115.984 60.4422 116.307 60.6897 116.623C61.0973 117.154 61.5121 117.686 61.9197 118.21Z" fill="url(#paint13_linear_10673_8437)"/>
<path d="M63.1569 133.454L41.3148 129.851C40.274 129.678 39.5681 128.709 39.7427 127.683L43.3964 106.14C43.5711 105.113 44.5537 104.417 45.5945 104.589L67.4366 108.193C68.4774 108.365 69.1834 109.334 69.0087 110.361L65.355 131.904C65.1876 132.93 64.1977 133.627 63.1569 133.454Z" fill="#272941"/>
<path d="M63.8051 124.869L43.5351 121.524C42.9965 121.438 42.6108 121.065 42.669 120.698L45.0126 106.901C45.0781 106.535 45.5585 106.305 46.1044 106.399L66.3744 109.744C66.9129 109.83 67.2987 110.203 67.2405 110.569L64.8969 124.367C64.8314 124.733 64.3437 124.955 63.8051 124.869Z" fill="#F2F2F2"/>
<path d="M48.4549 114.776C49.5029 114.948 50.5001 114.252 50.6747 113.218C50.8494 112.184 50.1434 111.201 49.0953 111.029C48.0473 110.856 47.0502 111.553 46.8755 112.586C46.7008 113.62 47.4068 114.604 48.4549 114.776Z" fill="url(#paint14_linear_10673_8437)"/>
<path d="M65.6896 119.663L63.7973 130.848C63.71 131.379 63.2005 131.738 62.6619 131.652L42.3919 128.307C41.8533 128.22 41.4894 127.718 41.5767 127.187L42.7121 120.496C44.9684 119.297 47.2247 118.106 49.4737 116.907C50.2451 116.498 51.0385 116.081 51.9046 115.931C52.7707 115.78 53.746 115.945 54.3647 116.562C54.9396 117.137 55.1143 117.976 55.4491 118.716C55.7766 119.455 56.4462 120.187 57.2614 120.08C57.7054 120.015 58.0766 119.714 58.4259 119.434C59.656 118.45 61.0097 117.632 62.4435 116.993C63.0185 116.735 63.7245 116.519 64.2558 116.857C64.5906 117.079 64.7653 117.46 64.9181 117.826C65.1729 118.443 65.4349 119.053 65.6896 119.663Z" fill="url(#paint15_linear_10673_8437)"/>
<path d="M68.2517 129.893L46.1548 131.329C45.0995 131.401 44.1897 130.611 44.1242 129.57L42.6685 107.776C42.5958 106.735 43.3964 105.837 44.4517 105.773L66.5486 104.337C67.6039 104.265 68.5137 105.055 68.5792 106.096L70.0348 127.89C70.1076 128.931 69.307 129.828 68.2517 129.893Z" fill="#272941"/>
<path d="M66.8835 121.395L46.3806 122.723C45.8347 122.759 45.3762 122.486 45.3471 122.113L44.4154 108.15C44.3936 107.777 44.8085 107.447 45.3543 107.411L65.8572 106.083C66.4031 106.047 66.8616 106.32 66.8907 106.693L67.8224 120.656C67.8515 121.029 67.4293 121.359 66.8835 121.395Z" fill="#F2F2F2"/>
<path d="M49.5975 115.044C50.6602 114.972 51.4608 114.067 51.3953 113.026C51.3225 111.978 50.4054 111.189 49.3501 111.253C48.2874 111.325 47.4868 112.23 47.5523 113.271C47.6251 114.319 48.5422 115.115 49.5975 115.044Z" fill="url(#paint16_linear_10673_8437)"/>
<path d="M67.5093 115.905L68.2663 127.219C68.3027 127.757 67.8951 128.224 67.3419 128.253L46.839 129.581C46.2932 129.617 45.8274 129.207 45.791 128.669L45.3397 121.907C47.2612 120.234 49.1754 118.561 51.0896 116.882C51.7446 116.307 52.4215 115.726 53.2294 115.381C54.0373 115.037 55.0271 114.979 55.7695 115.439C56.4609 115.869 56.8321 116.645 57.3198 117.291C57.8147 117.937 58.6299 118.497 59.4014 118.21C59.8235 118.052 60.1073 117.671 60.3839 117.32C61.3519 116.085 62.4801 114.979 63.7319 114.032C64.2341 113.651 64.8673 113.278 65.4642 113.486C65.8353 113.623 66.0974 113.96 66.3303 114.283C66.7233 114.829 67.1163 115.367 67.5093 115.905Z" fill="url(#paint17_linear_10673_8437)"/>
<path d="M70.9232 119.502C72.4298 121.598 73.9364 123.694 75.443 125.79C73.9364 125.353 72.4298 124.915 70.9232 124.477C70.9232 122.818 70.9232 121.16 70.9232 119.502Z" fill="#EFBF68"/>
<path d="M43.5013 138.96L70.9258 138.96L70.9258 119.506L43.5013 119.506L43.5013 138.96Z" fill="#F2D270"/>
<path d="M35.2745 116.178L43.4989 119.502V138.956L35.2745 134.017V116.178Z" fill="#EFBF68"/>
<path d="M43.4986 119.503C41.7664 121.714 40.0342 123.933 38.3019 126.144C35.9074 124.83 33.5128 123.523 31.1183 122.21C32.5012 120.2 33.8913 118.182 35.2742 116.172L43.4986 119.503Z" fill="#F2D270"/>
<path d="M301.972 113.291H276.166V136.445H301.972V113.291Z" fill="#F2D270"/>
<path opacity="0.46" d="M281.685 113.291H276.179V136.445H281.685V113.291Z" fill="#ECAB60"/>
<path d="M277.883 107.933H245.848V136.684H277.883V107.933Z" fill="#F2D270"/>
<path d="M265.133 107.933H259.2V114.272H265.133V107.933Z" fill="#FFF0D1"/>
<path opacity="0.46" d="M252.675 107.933H245.838V136.684H252.675V107.933Z" fill="#ECAB60"/>
<path d="M291.707 113.291H286.937V118.391H291.707V113.291Z" fill="#FFF0D1"/>
<path d="M276.166 89.0745H255.031V108.037H276.166V89.0745Z" fill="#F2D270"/>
<path d="M267.77 89.0745H263.863V93.2515H267.77V89.0745Z" fill="#FFF0D1"/>
<path opacity="0.46" d="M259.552 89.0745H255.042V108.037H259.552V89.0745Z" fill="#ECAB60"/>
<path d="M248.143 140.491L226.451 140.461C225.414 140.461 224.436 140.136 224.256 139.742L220.568 131.451C220.394 131.057 221.09 130.732 222.121 130.742L243.813 130.772C244.85 130.772 245.828 131.097 246.008 131.49L249.696 139.782C249.876 140.166 249.18 140.491 248.143 140.491Z" fill="#272941"/>
<path d="M245.912 137.233L225.78 137.203C225.246 137.203 224.76 137.085 224.694 136.947L222.331 131.629C222.265 131.492 222.649 131.373 223.189 131.373L243.321 131.403C243.855 131.403 244.341 131.521 244.407 131.659L246.769 136.977C246.829 137.114 246.452 137.233 245.912 137.233Z" fill="#F2F2F2"/>
<path d="M228.173 134.373C229.216 134.373 229.918 134.048 229.738 133.654C229.558 133.26 228.574 132.935 227.531 132.925C226.487 132.925 225.786 133.25 225.966 133.644C226.14 134.048 227.129 134.373 228.173 134.373Z" fill="url(#paint18_linear_10673_8437)"/>
<path d="M245.966 135.161L247.879 139.464C247.969 139.671 247.615 139.838 247.076 139.828L226.943 139.799C226.41 139.799 225.9 139.631 225.81 139.424L224.664 136.844C226.386 136.263 228.107 135.673 229.828 135.092C230.422 134.895 231.027 134.688 231.789 134.58C232.551 134.471 233.522 134.471 234.308 134.668C235.033 134.845 235.483 135.151 236.035 135.407C236.587 135.663 237.456 135.899 238.188 135.81C238.584 135.761 238.83 135.623 239.069 135.495C239.903 135.052 240.899 134.668 242.038 134.333C242.494 134.205 243.081 134.077 243.693 134.176C244.077 134.235 244.371 134.373 244.635 134.501C245.078 134.737 245.522 134.954 245.966 135.161Z" fill="url(#paint19_linear_10673_8437)"/>
<path d="M224.451 139.837L220.544 131.369V132.067C220.544 132.392 220.612 132.714 220.744 133.011L224.135 140.647C224.26 140.927 224.537 141.108 224.844 141.108L248.455 141.107C249.157 141.107 249.725 140.538 249.725 139.837H224.451Z" fill="#272941"/>
<path d="M171.88 139.696C171.633 139.837 171.286 140.004 170.851 140.104C170.15 140.264 169.548 140.184 169.207 140.111C169.114 139.489 169.047 138.741 169.067 137.912C169.094 136.817 169.254 135.874 169.435 135.126C170.343 135.24 171.252 135.36 172.161 135.473C172.067 136.877 171.974 138.287 171.88 139.696Z" fill="#FAB492"/>
<path d="M176.057 141.924C175.95 141.71 175.796 141.523 175.602 141.376C175.469 141.276 175.315 141.202 175.155 141.162C174.994 141.122 174.827 141.115 174.66 141.135C174.286 141.189 173.05 141.189 172.388 140.601C172.235 140.461 172.001 140.2 171.881 139.705C171.734 139.779 171.52 139.866 171.252 139.939C171.039 139.999 170.838 140.033 170.457 140.066C170.137 140.093 169.716 140.12 169.201 140.113C169.054 140.407 168.867 140.881 168.814 141.503C168.753 142.205 168.887 142.766 168.994 143.087C169.007 143.207 169.054 143.32 169.114 143.421C169.181 143.521 169.268 143.601 169.368 143.661C170.223 143.975 175.449 143.494 175.963 143.18C176.05 143.113 176.117 143.033 176.164 142.933C176.211 142.833 176.224 142.726 176.217 142.619C176.224 142.372 176.164 142.138 176.057 141.924Z" fill="#273879"/>
<path d="M168.172 138.382C168.847 138.582 169.729 138.783 170.772 138.843C171.654 138.896 172.422 138.836 173.05 138.749C173.304 137.994 178.022 123.768 178.309 118.469C178.376 117.26 178.229 116.157 177.668 115.148C176.679 113.371 174.841 112.649 173.919 112.288C170.498 110.952 165.533 109.014 159.345 106.756C157.073 106.782 155.129 107.858 154.434 109.515C153.445 111.887 155.49 114.34 156.085 115.055C157.895 117.226 160.428 117.834 164.644 118.81C167.203 119.405 169.355 119.672 170.812 119.799C170.037 122.425 169.308 125.512 168.814 129C168.326 132.488 168.166 135.649 168.172 138.382Z" fill="#385B65"/>
<path d="M159.739 112.94C160.528 113.595 161.898 114.638 163.782 115.56C167.985 117.624 171.333 117.444 171.961 119.348C172.268 120.291 171.747 121.219 171.486 121.714C168.078 128.229 168.68 138.426 168.179 138.372C167.804 138.332 167.711 132.586 168.96 126.445C169.515 123.718 170.223 121.467 170.825 119.789C168.727 119.609 166.381 119.295 163.849 118.754C161.704 118.299 159.753 117.758 158.009 117.19C158.577 115.787 159.158 114.364 159.739 112.94Z" fill="#2E4D54"/>
<path d="M134.361 138.902C134.1 138.789 133.766 138.608 133.425 138.314C132.877 137.846 132.59 137.318 132.443 136.991C132.891 136.543 133.445 136.049 134.127 135.568C135.022 134.933 135.877 134.505 136.586 134.211C137.033 135.013 137.481 135.808 137.922 136.61C136.733 137.379 135.543 138.14 134.361 138.902Z" fill="#FAB492"/>
<path d="M135.049 143.577C135.156 143.363 135.216 143.129 135.223 142.889C135.223 142.722 135.196 142.555 135.129 142.401C135.069 142.247 134.976 142.107 134.855 141.987C134.588 141.72 133.853 140.724 133.94 139.835C133.96 139.628 134.033 139.287 134.361 138.893C134.214 138.82 134.013 138.699 133.799 138.532C133.626 138.399 133.479 138.252 133.225 137.971C133.011 137.73 132.737 137.403 132.436 136.989C132.116 137.049 131.614 137.176 131.087 137.496C130.485 137.864 130.118 138.305 129.917 138.586C129.83 138.666 129.764 138.766 129.723 138.88C129.683 138.993 129.67 139.114 129.683 139.227C129.937 140.102 133.425 144.018 133.987 144.252C134.087 144.285 134.2 144.292 134.307 144.265C134.414 144.245 134.508 144.192 134.588 144.118C134.782 143.978 134.935 143.798 135.049 143.577Z" fill="#273879"/>
<path d="M134.006 135.048C134.407 135.576 134.815 136.111 135.236 136.645C135.664 137.186 136.085 137.714 136.506 138.229C145.673 134.306 151.513 132.108 154.4 131.48C154.861 131.38 156.278 131.099 157.42 129.956C158.864 128.52 159.051 126.555 159.151 125.573C159.505 121.918 160.02 116.612 160.501 110.044C159.859 107.866 158.289 106.289 156.505 106.075C153.952 105.767 152.155 108.4 151.627 109.175C149.81 111.828 150.05 114.835 150.344 118.43C150.491 120.254 150.859 122.833 151.848 125.86C149.061 126.355 145.005 127.431 140.689 129.943C137.815 131.62 135.61 133.471 134.006 135.048Z" fill="#385B65"/>
<path d="M134.006 135.052C141.544 132.512 144.765 130.708 146.288 129.506C146.716 129.171 148.186 127.949 150.464 127.173C151.62 126.779 152.616 126.626 153.224 126.559C152.629 125.129 151.527 121.895 152.215 117.879C152.636 115.426 153.571 113.562 154.286 112.393C153.926 112.273 153.124 111.945 152.442 111.157C151.827 110.448 151.607 109.707 151.52 109.339C151.373 109.573 151.166 109.927 150.952 110.375C149.509 113.375 149.796 116.268 150.083 118.821C150.277 120.545 150.725 123.024 151.841 125.87C149.442 126.124 145.506 126.859 141.27 129.212C137.849 131.116 135.477 133.394 134.006 135.052Z" fill="#2E4D54"/>
<path d="M169.475 97.835C169.475 97.835 174.954 95.1087 176.043 93.2043C178.001 89.7765 179.284 82.0119 179.284 82.0119C181.062 79.8603 181.85 77.4548 181.068 76.6462C179.665 75.2163 179.257 79.2121 178.188 79.3859C178.188 79.3859 177.988 77.7488 177.146 78.1029C176.304 78.4571 176.698 81.7981 176.698 81.7981C175.121 84.7716 173.538 88.4801 172.756 90.0705C172.355 90.2375 166.869 91.9548 164.764 94.5274C166.301 96.3315 167.477 98.0956 169.475 97.835Z" fill="#FAB492"/>
<path d="M175.669 94.1736C173.397 96.6393 171.005 97.3543 169.475 97.8421C169.041 97.9757 168.58 97.9757 168.145 97.8488C165.492 97.1405 162.8 92.6434 164.062 92.1891C164.37 92.0755 164.483 91.7681 167.965 91.1667C170.831 90.6656 171.506 90.6121 172.301 90.0041C172.762 89.6499 173.163 89.1822 174.025 87.3045C174.613 86.0149 175.368 84.1706 176.037 81.8319C177.346 81.9589 178.663 82.0925 179.972 82.2195C179.685 84.8856 178.943 88.2934 177.072 91.8216C176.631 92.6769 176.15 93.4587 175.669 94.1736Z" fill="url(#paint20_linear_10673_8437)"/>
<path d="M165.192 112.024C164.597 112.78 163.695 112.967 162.171 113.254C161.109 113.454 159.445 113.648 157.354 113.361C156.672 113.174 154.066 112.439 152.436 111.577C152.155 111.43 151.727 111.183 151.52 110.708C151.233 110.047 151.533 109.332 151.64 109.078C152.656 106.665 153.545 104.2 154.607 101.801C156.037 98.5802 156.913 94.9318 156.913 94.9318C157.32 93.2479 157.48 92.0786 158.516 90.9226C158.797 90.6085 160.026 89.2253 161.998 89.085C162.759 89.0316 163.387 89.1786 163.782 89.3055L165.232 89.82C167.397 90.1541 168.265 90.9894 168.673 91.6108C169.702 93.1878 168.686 94.8583 166.595 103.057C165.653 106.746 165.599 107.407 165.586 107.942C165.539 109.966 165.96 111.042 165.192 112.024Z" fill="#FDDC50"/>
<path d="M165.693 92.8609C165.746 92.647 165.793 92.4265 165.846 92.2127C165.82 92.2394 165.619 92.4399 165.318 92.4132C165.064 92.3931 164.911 92.2394 164.877 92.1993C165.038 92.4599 165.191 92.7205 165.352 92.9811C165.064 94.2775 164.804 95.4535 164.577 96.4892C164.483 96.9235 164.43 97.1708 164.376 97.4247C164.129 98.6742 163.989 99.5763 163.949 99.857C163.855 100.445 163.741 100.953 162.833 104.087C161.797 107.662 161.597 108.21 161.784 108.323C162.138 108.53 163.628 107.047 164.644 105.249C166.535 101.908 166.301 98.3134 166.16 96.2219C166.067 94.7786 165.853 93.6093 165.693 92.8609Z" fill="#365448"/>
<path d="M164.971 87.9821C164.797 88.089 164.223 88.4231 163.581 88.2427C163.514 88.2226 163.287 88.1558 162.973 87.8952C162.338 87.374 162.091 86.7058 161.884 86.1312C161.597 85.336 161.423 84.8683 161.563 84.2802C161.597 84.1466 161.603 84.1666 162.118 83.1643C162.592 82.2288 162.626 82.1353 162.793 82.015C163.053 81.8279 163.24 81.8814 164.229 81.8279C165.278 81.7745 165.151 81.7076 165.699 81.7143C166.528 81.7277 167.243 81.7344 167.637 82.2088C167.777 82.3759 167.858 82.5763 168.011 82.9706C168.185 83.4049 168.272 83.6254 168.259 83.7858C168.218 84.5208 166.635 84.5742 165.713 85.6033C165.352 86.0176 164.964 86.7125 164.971 87.9821Z" fill="black"/>
<path d="M162.786 90.2621C163.983 91.6787 166.241 93.102 165.673 90.5761L165.64 88.6183V87.7697L163.368 87.4957L163.261 88.0102L162.786 90.2621Z" fill="#FAB492"/>
<path d="M163.174 88.3702C163.655 89.1119 165.179 89.4927 165.633 89.2589V87.7688L163.461 86.5326L163.174 88.3702Z" fill="#EF9F84"/>
<path d="M167.049 84.1337C167.31 85.2897 167.397 87.7821 166.348 88.5773C165.686 89.0784 163.555 88.5973 163.307 86.9602C163.187 86.8667 162.96 86.6528 162.86 86.3054C162.719 85.8376 162.853 85.2496 163.087 85.1961C163.408 85.1226 163.735 86.0915 164.042 86.0247C164.33 85.9579 164.149 85.1293 164.55 84.6014C164.851 84.2072 165.512 83.9132 167.049 84.1337Z" fill="#FAB492"/>
<path d="M155.65 95.5059C155.65 95.5059 150.959 91.5702 150.345 89.4653C149.242 85.6766 149.817 77.8252 149.817 77.8252C148.594 75.3194 148.387 72.7936 149.336 72.1922C151.033 71.1298 150.498 75.1123 151.494 75.5266C151.494 75.5266 152.075 73.983 152.804 74.5243C153.539 75.0655 152.376 78.2194 152.376 78.2194C153.211 81.4803 153.886 85.4561 154.274 87.18C154.621 87.4406 159.559 90.3874 161.002 93.381C159.091 94.7842 157.541 96.2275 155.65 95.5059Z" fill="#FAB492"/>
<path d="M150.491 90.4872C152.122 93.414 154.28 94.6702 155.657 95.4988C156.044 95.7259 156.492 95.8395 156.946 95.8128C159.692 95.746 163.361 92.004 162.238 91.269C161.964 91.0886 161.931 90.7612 158.683 89.358C156.011 88.202 155.369 87.9881 154.741 87.213C154.374 86.7586 154.093 86.2107 153.699 84.186C153.431 82.7962 153.131 80.825 153.024 78.3994C151.721 78.219 150.411 78.0386 149.108 77.8582C148.761 80.5109 148.687 84.0056 149.676 87.8745C149.91 88.81 150.191 89.6787 150.491 90.4872Z" fill="#FDDC50"/>
<path d="M165.379 87.5812C165.533 87.5812 165.833 87.5745 165.967 87.3807C166.094 87.1869 165.92 86.9998 166.04 86.8395C166.214 86.6056 166.789 86.6791 166.856 86.8595C166.896 86.9664 166.749 87.0867 166.809 87.2471C166.822 87.2872 166.862 87.3473 166.896 87.3473C166.976 87.3406 166.969 87.0399 167.063 87.0199C167.13 87.0065 167.23 87.1468 167.277 87.2738C167.45 87.7215 167.13 88.3162 166.782 88.6637C166.689 88.7639 166.395 89.0445 165.927 89.1648C165.112 89.3653 164.25 88.951 163.768 88.3496C163.307 87.7749 163.281 87.1335 163.267 86.766C163.241 85.8973 163.555 84.9752 163.802 84.9818C163.989 84.9885 164.123 85.5365 164.143 85.6033C164.236 85.9975 164.116 86.1245 164.203 86.5722C164.25 86.806 164.29 87.0065 164.443 87.1936C164.771 87.5878 165.292 87.5878 165.379 87.5812Z" fill="black"/>
<path d="M182.578 122.096C181.696 122.664 180.761 123.466 180.781 124.415C180.801 125.638 182.378 126.179 182.345 127.302C182.325 127.863 181.91 128.618 180.166 129.48" stroke="#FED500" stroke-width="0.775362" stroke-miterlimit="10" stroke-linecap="round"/>
<path d="M146.175 87.1019C145.567 87.9505 144.999 89.0464 145.366 89.9218C145.841 91.051 147.504 90.9642 147.885 92.0266C148.079 92.5545 147.966 93.4098 146.669 94.8598" stroke="#FED500" stroke-width="0.775362" stroke-miterlimit="10" stroke-linecap="round"/>
<path d="M181.65 93.9501C180.601 93.9435 179.378 94.1105 178.877 94.919C178.229 95.9548 179.258 97.2644 178.616 98.1932C178.296 98.6543 177.534 99.0619 175.603 98.8347" stroke="#FED500" stroke-width="0.775362" stroke-miterlimit="10" stroke-linecap="round"/>
<path d="M162.165 90.5791C162.232 90.5858 161.958 91.4144 162.392 91.9222C162.893 92.5102 163.989 92.263 163.989 92.3164C163.989 92.3766 162.633 92.9045 162.071 92.1628C161.604 91.5413 162.091 90.5658 162.165 90.5791Z" fill="#F1CA44"/>
<path d="M166.508 92.0909C166.501 92.0441 167.25 92.0909 167.397 91.7501C167.537 91.4094 166.996 90.9149 167.023 90.8948C167.056 90.8681 167.925 91.5229 167.738 91.9372C167.557 92.3315 166.515 92.1511 166.508 92.0909Z" fill="#F1CA44"/>
<path d="M153.151 111.915C153.532 111.4 154.073 110.625 154.621 109.623C155.837 107.411 156.352 105.473 157.334 100.689C157.735 98.7513 158.156 96.6064 158.59 94.2744C155.603 92.0893 152.616 89.911 149.63 87.726C149.984 89.3163 150.739 91.5681 152.349 93.0916C152.623 93.3522 153.097 93.7532 153.612 94.1474C154.775 95.0294 155.837 95.6241 156.612 96.005C154.955 100.362 153.305 104.718 151.647 109.075C151.567 109.222 151.267 109.79 151.447 110.458C151.561 110.886 151.815 111.153 151.948 111.287C152.389 111.741 152.924 111.875 153.151 111.915Z" fill="#F1CA44"/>
<path d="M190.854 80.5523L135.029 73.0747C132.364 72.7178 130.499 70.2714 130.855 67.6062L138.327 11.7864C138.684 9.12115 141.131 7.25608 143.796 7.61297L199.621 15.0848C202.287 15.4417 204.152 17.8881 203.795 20.5534L196.323 76.3789C195.966 79.0384 193.514 80.9092 190.854 80.5523Z" fill="#272941"/>
<path d="M189.427 75.9458L137.619 69.0093C136.238 68.8251 135.276 67.5645 135.461 66.1829L142.397 14.3753C142.581 12.9938 143.842 12.0325 145.223 12.2167L197.031 19.1532C198.413 19.3374 199.374 20.598 199.19 21.9796L192.253 73.7871C192.069 75.1687 190.808 76.13 189.427 75.9458Z" fill="#F2F2F2"/>
<path d="M151.906 33.6204C154.589 33.9773 157.053 32.095 157.41 29.4125C157.767 26.73 155.884 24.2663 153.202 23.9094C150.519 23.5525 148.055 25.4348 147.699 28.1173C147.342 30.7998 149.224 33.2635 151.906 33.6204Z" fill="url(#paint21_linear_10673_8437)"/>
<path d="M196.133 44.8079L192.253 73.7914C192.069 75.1729 190.808 76.14 189.427 75.95L137.619 69.0136C136.238 68.8294 135.276 67.5687 135.461 66.1872L137.78 48.8547C143.416 45.585 149.046 42.3154 154.675 39.0458C156.61 37.929 158.59 36.7892 160.783 36.3287C162.976 35.8625 165.469 36.2136 167.092 37.7448C168.594 39.1724 169.124 41.331 170.022 43.2019C170.92 45.0785 172.681 46.9148 174.742 46.5694C175.87 46.3737 176.78 45.5562 177.649 44.8137C180.694 42.183 184.062 39.9553 187.665 38.1881C189.11 37.4743 190.883 36.8526 192.253 37.6815C193.117 38.2226 193.594 39.1954 194.015 40.128C194.723 41.6879 195.431 43.2479 196.133 44.8079Z" fill="url(#paint22_linear_10673_8437)"/>
<path d="M201.745 37.5883C212.051 37.5883 220.405 29.2649 220.405 18.9976C220.405 8.7302 212.051 0.40686 201.745 0.40686C191.44 0.40686 183.086 8.7302 183.086 18.9976C183.086 29.2649 191.44 37.5883 201.745 37.5883Z" fill="url(#paint23_linear_10673_8437)"/>
<path d="M201.746 35.0242C210.628 35.0242 217.828 27.8503 217.828 19.0008C217.828 10.1513 210.628 2.97742 201.746 2.97742C192.863 2.97742 185.663 10.1513 185.663 19.0008C185.663 27.8503 192.863 35.0242 201.746 35.0242Z" fill="url(#paint24_linear_10673_8437)"/>
<path d="M203.804 18.9948L207.486 15.3262C208.053 14.7618 208.053 13.8395 207.486 13.2751C206.92 12.7107 205.994 12.7107 205.427 13.2751L201.745 16.9437L198.063 13.2751C197.497 12.7107 196.571 12.7107 196.004 13.2751C195.438 13.8395 195.438 14.7618 196.004 15.3262L199.687 18.9948L196.004 22.6634C195.438 23.2278 195.438 24.1501 196.004 24.7145C196.288 24.9967 196.661 25.1412 197.034 25.1412C197.407 25.1412 197.78 24.9967 198.063 24.7145L201.745 21.0459L205.427 24.7145C205.711 24.9967 206.084 25.1412 206.457 25.1412C206.83 25.1412 207.203 24.9967 207.486 24.7145C208.053 24.1501 208.053 23.2278 207.486 22.6634L203.804 18.9948Z" fill="white"/>
<path opacity="0.5" d="M214.975 19.5694C214.961 19.356 214.934 19.1358 214.823 18.9499C214.499 18.3924 213.607 18.4681 213.165 18.9362C212.723 19.3973 212.606 20.0787 212.516 20.7051C212.295 22.1711 212.164 23.7129 211.404 25.0138C210.713 26.1976 209.801 27.2507 208.737 28.1111C208.074 28.6479 207.314 29.1848 206.519 29.5152C205.835 29.7974 204.896 29.7629 204.426 30.4444C204.094 30.9262 204.433 31.5456 204.979 31.6007C205.635 31.6626 206.34 31.5387 206.982 31.3873C211.977 30.2103 215.362 24.47 214.975 19.5694Z" fill="#F79468"/>
<path d="M243.086 56.1191H213.669C211.312 56.1191 209.381 58.042 209.381 60.3991V69.9206C209.381 72.2777 211.312 74.2006 213.669 74.2006H215.7V78.8217L214.646 79.6281L214.669 81.7139L215.7 80.8532L224.384 74.2006H243.078C245.435 74.2006 247.366 72.2777 247.366 69.9206V60.4069C247.366 58.0498 245.443 56.1191 243.086 56.1191Z" fill="#1F357A"/>
<path d="M215.034 72.5893H212.615C210.467 72.5893 208.722 70.8447 208.722 68.697V59.1755C208.722 57.0278 210.467 55.2832 212.615 55.2832H242.009C244.156 55.2832 245.901 57.0278 245.901 59.1755V68.697C245.901 70.8447 244.156 72.5893 242.009 72.5893H223.191L215.034 78.8465V72.5893Z" fill="url(#paint25_linear_10673_8437)"/>
<path d="M242.009 55.6709C243.939 55.6709 245.513 57.2449 245.513 59.1755V68.697C245.513 70.6276 243.939 72.2016 242.009 72.2016H223.322H223.059L222.849 72.3644L215.414 78.0633V72.9847V72.2094H214.638H212.607C210.676 72.2094 209.102 70.6354 209.102 68.7047V59.1755C209.102 57.2449 210.676 55.6709 212.607 55.6709H242.009ZM242.009 54.8955H212.615C210.257 54.8955 208.335 56.8184 208.335 59.1755V68.697C208.335 71.0541 210.257 72.977 212.615 72.977H214.646V79.6296L223.322 72.977H242.009C244.366 72.977 246.289 71.0541 246.289 68.697V59.1755C246.289 56.8262 244.366 54.8955 242.009 54.8955Z" fill="#1F357A"/>
<path d="M214.801 66V61.1791H216.698C218.131 61.1791 218.96 62.0444 218.96 63.5545V63.5612C218.96 65.118 218.141 66 216.698 66H214.801ZM215.81 65.1681H216.538C217.43 65.1681 217.931 64.6069 217.931 63.5779V63.5712C217.931 62.5789 217.413 62.011 216.538 62.011H215.81V65.1681ZM221.986 66.0768C220.867 66.0768 220.189 65.3452 220.189 64.1659V64.1625C220.189 62.9932 220.874 62.2415 221.946 62.2415C223.019 62.2415 223.687 62.9765 223.687 64.089V64.393H221.154C221.164 64.9977 221.489 65.3485 222.006 65.3485C222.434 65.3485 222.671 65.1214 222.738 64.981L222.748 64.961H223.657L223.65 64.9944C223.536 65.4554 223.062 66.0768 221.986 66.0768ZM221.963 62.9732C221.539 62.9732 221.225 63.2605 221.164 63.7817H222.751C222.691 63.2471 222.387 62.9732 221.963 62.9732ZM225.066 66V60.9152H226.042V66H225.066ZM229.215 66.0768C228.096 66.0768 227.417 65.3452 227.417 64.1659V64.1625C227.417 62.9932 228.102 62.2415 229.175 62.2415C230.247 62.2415 230.915 62.9765 230.915 64.089V64.393H228.383C228.393 64.9977 228.717 65.3485 229.235 65.3485C229.663 65.3485 229.9 65.1214 229.967 64.981L229.977 64.961H230.885L230.879 64.9944C230.765 65.4554 230.291 66.0768 229.215 66.0768ZM229.191 62.9732C228.767 62.9732 228.453 63.2605 228.393 63.7817H229.98C229.92 63.2471 229.616 62.9732 229.191 62.9732ZM233.788 66.0134C232.893 66.0134 232.532 65.7227 232.532 65.0078V63.0567H231.964V62.3217H232.532V61.4431H233.517V62.3217H234.276V63.0567H233.517V64.7839C233.517 65.1147 233.658 65.2617 233.988 65.2617C234.115 65.2617 234.182 65.255 234.276 65.245V65.9699C234.155 65.9933 233.975 66.0134 233.788 66.0134ZM237.225 66.0768C236.106 66.0768 235.428 65.3452 235.428 64.1659V64.1625C235.428 62.9932 236.113 62.2415 237.185 62.2415C238.258 62.2415 238.926 62.9765 238.926 64.089V64.393H236.393C236.403 64.9977 236.727 65.3485 237.245 65.3485C237.673 65.3485 237.91 65.1214 237.977 64.981L237.987 64.961H238.896L238.889 64.9944C238.775 65.4554 238.301 66.0768 237.225 66.0768ZM237.202 62.9732C236.778 62.9732 236.463 63.2605 236.403 63.7817H237.99C237.93 63.2471 237.626 62.9732 237.202 62.9732Z" fill="#1F357A"/>
<path d="M176.625 79.6657C176.611 79.4652 176.558 78.4696 177.179 77.9885C177.273 77.915 177.393 77.8281 177.54 77.8415C177.867 77.8816 178.121 78.4896 178.195 79.3783C177.674 79.4786 177.146 79.5721 176.625 79.6657Z" fill="#FAB492"/>
<path d="M151.501 75.5179C151.681 74.97 152.042 74.5825 152.443 74.5491C152.503 74.5424 152.683 74.529 152.844 74.6426C153.111 74.8297 153.198 75.2841 153.024 75.7785C152.51 75.6917 152.002 75.6048 151.501 75.5179Z" fill="#FAB492"/>
<defs>
<linearGradient id="paint0_linear_10673_8437" x1="240.284" y1="125.622" x2="244.285" y2="125.824" gradientUnits="userSpaceOnUse">
<stop stop-color="#174265"/>
<stop offset="0.2601" stop-color="#1E4F72"/>
<stop offset="0.7341" stop-color="#2A6588"/>
<stop offset="1" stop-color="#2E6D90"/>
</linearGradient>
<linearGradient id="paint1_linear_10673_8437" x1="231.75" y1="132.3" x2="257.881" y2="133.619" gradientUnits="userSpaceOnUse">
<stop stop-color="#174265"/>
<stop offset="0.2601" stop-color="#1E4F72"/>
<stop offset="0.7341" stop-color="#2A6588"/>
<stop offset="1" stop-color="#2E6D90"/>
</linearGradient>
<linearGradient id="paint2_linear_10673_8437" x1="267.794" y1="31.5573" x2="267.794" y2="42.552" gradientUnits="userSpaceOnUse">
<stop stop-color="#F1F7FC"/>
<stop offset="1" stop-color="#C7E5F8"/>
</linearGradient>
<linearGradient id="paint3_linear_10673_8437" x1="62.7331" y1="2432.79" x2="62.7331" y2="2949.17" gradientUnits="userSpaceOnUse">
<stop stop-color="#F1F7FC"/>
<stop offset="1" stop-color="#C7E5F8"/>
</linearGradient>
<linearGradient id="paint4_linear_10673_8437" x1="219.22" y1="128.582" x2="223.1" y2="129.295" gradientUnits="userSpaceOnUse">
<stop stop-color="#174265"/>
<stop offset="0.2601" stop-color="#1E4F72"/>
<stop offset="0.7341" stop-color="#2A6588"/>
<stop offset="1" stop-color="#2E6D90"/>
</linearGradient>
<linearGradient id="paint5_linear_10673_8437" x1="209.795" y1="135.261" x2="235.137" y2="139.919" gradientUnits="userSpaceOnUse">
<stop stop-color="#174265"/>
<stop offset="0.2601" stop-color="#1E4F72"/>
<stop offset="0.7341" stop-color="#2A6588"/>
<stop offset="1" stop-color="#2E6D90"/>
</linearGradient>
<linearGradient id="paint6_linear_10673_8437" x1="74.4912" y1="107.041" x2="78.1091" y2="105.736" gradientUnits="userSpaceOnUse">
<stop stop-color="#174265"/>
<stop offset="0.2601" stop-color="#1E4F72"/>
<stop offset="0.7341" stop-color="#2A6588"/>
<stop offset="1" stop-color="#2E6D90"/>
</linearGradient>
<linearGradient id="paint7_linear_10673_8437" x1="73.5592" y1="118.597" x2="95.9683" y2="110.513" gradientUnits="userSpaceOnUse">
<stop stop-color="#174265"/>
<stop offset="0.2601" stop-color="#1E4F72"/>
<stop offset="0.7341" stop-color="#2A6588"/>
<stop offset="1" stop-color="#2E6D90"/>
</linearGradient>
<linearGradient id="paint8_linear_10673_8437" x1="78.8004" y1="107.618" x2="82.4183" y2="106.313" gradientUnits="userSpaceOnUse">
<stop stop-color="#174265"/>
<stop offset="0.2601" stop-color="#1E4F72"/>
<stop offset="0.7341" stop-color="#2A6588"/>
<stop offset="1" stop-color="#2E6D90"/>
</linearGradient>
<linearGradient id="paint9_linear_10673_8437" x1="77.8685" y1="119.174" x2="100.277" y2="111.09" gradientUnits="userSpaceOnUse">
<stop stop-color="#174265"/>
<stop offset="0.2601" stop-color="#1E4F72"/>
<stop offset="0.7341" stop-color="#2A6588"/>
<stop offset="1" stop-color="#2E6D90"/>
</linearGradient>
<linearGradient id="paint10_linear_10673_8437" x1="84.3147" y1="105.9" x2="88.1329" y2="105.396" gradientUnits="userSpaceOnUse">
<stop stop-color="#174265"/>
<stop offset="0.2601" stop-color="#1E4F72"/>
<stop offset="0.7341" stop-color="#2A6588"/>
<stop offset="1" stop-color="#2E6D90"/>
</linearGradient>
<linearGradient id="paint11_linear_10673_8437" x1="80.936" y1="117.006" x2="104.586" y2="113.882" gradientUnits="userSpaceOnUse">
<stop stop-color="#174265"/>
<stop offset="0.2601" stop-color="#1E4F72"/>
<stop offset="0.7341" stop-color="#2A6588"/>
<stop offset="1" stop-color="#2E6D90"/>
</linearGradient>
<linearGradient id="paint12_linear_10673_8437" x1="41.9314" y1="116.431" x2="45.6773" y2="115.544" gradientUnits="userSpaceOnUse">
<stop stop-color="#174265"/>
<stop offset="0.2601" stop-color="#1E4F72"/>
<stop offset="0.7341" stop-color="#2A6588"/>
<stop offset="1" stop-color="#2E6D90"/>
</linearGradient>
<linearGradient id="paint13_linear_10673_8437" x1="39.6908" y1="127.807" x2="62.8931" y2="122.314" gradientUnits="userSpaceOnUse">
<stop stop-color="#174265"/>
<stop offset="0.2601" stop-color="#1E4F72"/>
<stop offset="0.7341" stop-color="#2A6588"/>
<stop offset="1" stop-color="#2E6D90"/>
</linearGradient>
<linearGradient id="paint14_linear_10673_8437" x1="46.8515" y1="112.843" x2="50.7017" y2="112.97" gradientUnits="userSpaceOnUse">
<stop stop-color="#174265"/>
<stop offset="0.2601" stop-color="#1E4F72"/>
<stop offset="0.7341" stop-color="#2A6588"/>
<stop offset="1" stop-color="#2E6D90"/>
</linearGradient>
<linearGradient id="paint15_linear_10673_8437" x1="41.6988" y1="123.261" x2="65.5471" y2="124.05" gradientUnits="userSpaceOnUse">
<stop stop-color="#174265"/>
<stop offset="0.2601" stop-color="#1E4F72"/>
<stop offset="0.7341" stop-color="#2A6588"/>
<stop offset="1" stop-color="#2E6D90"/>
</linearGradient>
<linearGradient id="paint16_linear_10673_8437" x1="47.585" y1="113.524" x2="51.3572" y2="112.754" gradientUnits="userSpaceOnUse">
<stop stop-color="#174265"/>
<stop offset="0.2601" stop-color="#1E4F72"/>
<stop offset="0.7341" stop-color="#2A6588"/>
<stop offset="1" stop-color="#2E6D90"/>
</linearGradient>
<linearGradient id="paint17_linear_10673_8437" x1="44.9928" y1="124.831" x2="68.3582" y2="120.058" gradientUnits="userSpaceOnUse">
<stop stop-color="#174265"/>
<stop offset="0.2601" stop-color="#1E4F72"/>
<stop offset="0.7341" stop-color="#2A6588"/>
<stop offset="1" stop-color="#2E6D90"/>
</linearGradient>
<linearGradient id="paint18_linear_10673_8437" x1="226.43" y1="134.053" x2="227.786" y2="132.156" gradientUnits="userSpaceOnUse">
<stop stop-color="#174265"/>
<stop offset="0.2601" stop-color="#1E4F72"/>
<stop offset="0.7341" stop-color="#2A6588"/>
<stop offset="1" stop-color="#2E6D90"/>
</linearGradient>
<linearGradient id="paint19_linear_10673_8437" x1="227.58" y1="140.732" x2="236.434" y2="128.338" gradientUnits="userSpaceOnUse">
<stop stop-color="#174265"/>
<stop offset="0.2601" stop-color="#1E4F72"/>
<stop offset="0.7341" stop-color="#2A6588"/>
<stop offset="1" stop-color="#2E6D90"/>
</linearGradient>
<linearGradient id="paint20_linear_10673_8437" x1="171.466" y1="83.4796" x2="172.143" y2="99.8566" gradientUnits="userSpaceOnUse">
<stop stop-color="#FDDC50"/>
<stop offset="1" stop-color="#F68F5F"/>
</linearGradient>
<linearGradient id="paint21_linear_10673_8437" x1="147.659" y1="28.7672" x2="157.458" y2="28.7672" gradientUnits="userSpaceOnUse">
<stop stop-color="#174265"/>
<stop offset="0.2601" stop-color="#1E4F72"/>
<stop offset="0.7341" stop-color="#2A6588"/>
<stop offset="1" stop-color="#2E6D90"/>
</linearGradient>
<linearGradient id="paint22_linear_10673_8437" x1="135.436" y1="56.0537" x2="196.131" y2="56.0537" gradientUnits="userSpaceOnUse">
<stop stop-color="#174265"/>
<stop offset="0.2601" stop-color="#1E4F72"/>
<stop offset="0.7341" stop-color="#2A6588"/>
<stop offset="1" stop-color="#2E6D90"/>
</linearGradient>
<linearGradient id="paint23_linear_10673_8437" x1="232.228" y1="43.0821" x2="180.622" y2="2.00781" gradientUnits="userSpaceOnUse">
<stop stop-color="#EE795C"/>
<stop offset="1" stop-color="#C74428"/>
</linearGradient>
<linearGradient id="paint24_linear_10673_8437" x1="201.728" y1="18.7346" x2="206.545" y2="91.4495" gradientUnits="userSpaceOnUse">
<stop stop-color="#EE795C"/>
<stop offset="1" stop-color="#C74428"/>
</linearGradient>
<linearGradient id="paint25_linear_10673_8437" x1="263.723" y1="44.7519" x2="208.339" y2="73.9359" gradientUnits="userSpaceOnUse">
<stop stop-color="#F0F7FF"/>
<stop offset="1" stop-color="#C4E6FF"/>
</linearGradient>
</defs>
</svg>
