<svg width="191" height="160" viewBox="0 0 191 160" fill="none" xmlns="http://www.w3.org/2000/svg">
<path d="M90.8706 11.3496V17.9867" stroke="#8D9CFD" stroke-width="1.5" stroke-linecap="round"/>
<path d="M87.5532 14.6685H94.1902" stroke="#8D9CFD" stroke-width="1.5" stroke-linecap="round"/>
<path d="M40.0335 137.739H35.334V142.439H40.0335V137.739Z" stroke="#8D9CFD" stroke-width="1.5"/>
<path d="M49.4156 154.337C47.9145 151.737 47.5078 148.647 48.2848 145.747C49.0618 142.847 50.9589 140.375 53.5589 138.874L66.8096 131.224C67.3352 130.333 67.7369 129.375 68.0035 128.376C68.3924 126.941 68.4927 125.443 68.2987 123.968C68.1046 122.494 67.6199 121.072 66.8728 119.787C65.8761 118.067 64.4456 116.639 62.7242 115.645C61.0028 114.652 59.0508 114.127 57.0632 114.124C56.3941 114.124 55.7262 114.184 55.0678 114.303L20.2915 134.38C17.6938 135.839 14.6256 136.215 11.7522 135.427C8.87878 134.639 6.43191 132.75 4.94222 130.17C3.45253 127.589 3.04013 124.526 3.79446 121.643C4.54879 118.761 6.40903 116.292 8.97174 114.772L53.5963 89.0089C54.947 87.151 55.7005 84.9261 55.7567 82.6297C55.813 80.3333 55.1692 78.0742 53.911 76.1524C52.6528 74.2306 50.8397 72.737 48.7125 71.8701C46.5854 71.0032 44.2448 70.8039 42.0016 71.2988L16.8659 85.8118C14.2682 87.2711 11.2 87.6475 8.32656 86.8594C5.45317 86.0713 3.0063 84.1822 1.51661 81.6019C0.0269238 79.0215 -0.385475 75.9579 0.368853 73.0754C1.12318 70.193 2.98342 67.7241 5.54613 66.2043L117.498 1.56812C118.786 0.808856 120.212 0.312293 121.693 0.107102C123.174 -0.0980882 124.681 -0.00784025 126.127 0.372635C127.573 0.75311 128.93 1.41628 130.118 2.32384C131.306 3.2314 132.303 4.36537 133.051 5.66029C133.798 6.9552 134.282 8.3854 134.474 9.8683C134.666 11.3512 134.562 12.8574 134.169 14.3C133.775 15.7425 133.1 17.0929 132.182 18.273C131.264 19.4531 130.121 20.4397 128.819 21.1757L98.6765 38.5787C97.35 40.2462 96.5209 42.2542 96.2847 44.3718C96.0484 46.4894 96.4144 48.6308 97.3408 50.5497C98.2671 52.4686 99.7162 54.0871 101.521 55.2193C103.326 56.3514 105.414 56.9512 107.545 56.9497C108.162 56.9496 108.777 56.8987 109.386 56.7974L158.24 28.5909C159.528 27.8425 160.95 27.3556 162.426 27.158C163.903 26.9604 165.403 27.056 166.842 27.4393C168.281 27.8227 169.631 28.4863 170.813 29.392C171.995 30.2978 172.987 31.428 173.732 32.7177C174.476 34.0075 174.959 35.4315 175.152 36.9082C175.346 38.3849 175.246 39.8853 174.858 41.3232C174.471 42.7612 173.803 44.1086 172.894 45.2882C171.985 46.4678 170.852 47.4563 169.56 48.1972L111.09 81.9564C109.835 83.6409 109.074 85.641 108.891 87.7332C108.709 89.8254 109.111 91.9272 110.055 93.8037C110.998 95.6801 112.444 97.2572 114.233 98.3587C116.021 99.4602 118.08 100.043 120.18 100.041C120.406 100.041 120.632 100.034 120.857 100.02L144.007 86.6585C145.295 85.9153 146.716 85.4329 148.19 85.2389C149.664 85.0449 151.161 85.1431 152.597 85.5278C154.033 85.9126 155.379 86.5765 156.559 87.4815C157.738 88.3865 158.728 89.515 159.471 90.8024C160.214 92.0899 160.696 93.5111 160.89 94.985C161.084 96.4589 160.986 97.9566 160.601 99.3925C160.217 100.828 159.553 102.174 158.648 103.354C157.743 104.533 156.614 105.523 155.327 106.266L64.8799 158.481C63.5926 159.225 62.1713 159.708 60.6973 159.903C59.2232 160.097 57.7253 159.999 56.2892 159.614C54.853 159.23 53.5068 158.566 52.3274 157.66C51.148 156.755 50.1585 155.626 49.4156 154.338V154.337Z" fill="#F2F6FF"/>
<path d="M160.26 27.8177L157.606 25.1646L154.953 27.8177L157.606 30.4709L160.26 27.8177Z" stroke="#F05B5D" stroke-width="1.5"/>
<path d="M156.659 123.826H161.968L159.233 118.759L156.659 123.826Z" stroke="#FFD500" stroke-width="1.5" stroke-linejoin="round"/>
<path d="M178.747 92.9035C185.396 92.9035 190.786 87.5136 190.786 80.8649C190.786 74.2161 185.396 68.8262 178.747 68.8262C172.098 68.8262 166.708 74.2161 166.708 80.8649C166.708 87.5136 172.098 92.9035 178.747 92.9035Z" fill="#F2F6FF"/>
<path d="M185.079 64.7226C185.079 63.1628 183.815 61.8984 182.255 61.8984C180.696 61.8984 179.431 63.1628 179.431 64.7226C179.431 66.2823 180.696 67.5467 182.255 67.5467C183.815 67.5467 185.079 66.2823 185.079 64.7226Z" stroke="#8D9CFD" stroke-width="1.5"/>
<path d="M9.71631 102.97H15.0255L12.2902 97.9028L9.71631 102.97Z" stroke="#F05B5D" stroke-width="1.5" stroke-linejoin="round"/>
<path d="M29.6058 35.3349C29.6058 33.7751 28.3414 32.5107 26.7816 32.5107C25.2219 32.5107 23.9575 33.7751 23.9575 35.3349C23.9575 36.8946 25.2219 38.159 26.7816 38.159C28.3414 38.159 29.6058 36.8946 29.6058 35.3349Z" stroke="#FFD500" stroke-width="1.5"/>
<path d="M97.2642 143.786V149" stroke="#8D9CFD" stroke-width="1.5" stroke-linecap="round"/>
<path d="M94.6582 146.392H99.8715" stroke="#8D9CFD" stroke-width="1.5" stroke-linecap="round"/>
<g filter="url(#filter0_d_2445_19985)">
<path d="M94.1075 122.162L86.0068 125.896L79.5532 119.725L70.6833 120.617L66.576 112.678L57.8981 110.632L56.5823 101.785L49.0368 97.0221L50.6551 88.2259L45.0596 81.2627L49.4366 73.4703L46.3975 65.0613L53.0589 59.1172L52.9055 50.1736L61.1294 46.722L63.8784 38.213L72.7736 37.6278L78.1271 30.4756L86.7297 32.8203L94.1075 27.7998L101.485 32.8203L110.088 30.4756L115.441 37.6278L124.337 38.213L127.086 46.722L135.31 50.1736L135.156 59.1172L141.818 65.0613L138.778 73.4703L143.155 81.2627L137.56 88.2259L139.178 97.0221L131.633 101.785L130.317 110.632L121.639 112.678L117.532 120.617L108.662 119.725L102.208 125.896L94.1075 122.162Z" fill="#FFD500"/>
</g>
<path d="M78.317 90.0778L81.9354 93.7481C83.2674 95.0993 85.4422 95.1144 86.793 93.7833L94.6931 85.9946L102.479 93.8932C103.812 95.2444 105.986 95.2595 107.337 93.9275L111.005 90.3117C112.357 88.9797 112.373 86.8049 111.04 85.4528L103.254 77.5544L111.155 69.7667C112.505 68.4347 112.522 66.2599 111.188 64.9078L107.572 61.2375C106.239 59.8872 104.064 59.8711 102.714 61.2023L94.8123 68.9909L87.0265 61.0916C85.6937 59.7412 83.5188 59.7253 82.1681 61.0564L78.4998 64.673C77.1486 66.0058 77.1322 68.1798 78.4646 69.5319L86.251 77.4312L78.3522 85.2206C77.0009 86.5518 76.9846 88.7274 78.317 90.0778Z" fill="#353535"/>
<defs>
<filter id="filter0_d_2445_19985" x="39.0596" y="24.7998" width="110.096" height="110.096" filterUnits="userSpaceOnUse" color-interpolation-filters="sRGB">
<feFlood flood-opacity="0" result="BackgroundImageFix"/>
<feColorMatrix in="SourceAlpha" type="matrix" values="0 0 0 0 0 0 0 0 0 0 0 0 0 0 0 0 0 0 127 0" result="hardAlpha"/>
<feOffset dy="3"/>
<feGaussianBlur stdDeviation="3"/>
<feColorMatrix type="matrix" values="0 0 0 0 0 0 0 0 0 0 0 0 0 0 0 0 0 0 0.1 0"/>
<feBlend mode="normal" in2="BackgroundImageFix" result="effect1_dropShadow_2445_19985"/>
<feBlend mode="normal" in="SourceGraphic" in2="effect1_dropShadow_2445_19985" result="shape"/>
</filter>
</defs>
</svg>
