<svg width="16" height="16" viewBox="0 0 16 16" fill="none" xmlns="http://www.w3.org/2000/svg">
<path fill-rule="evenodd" clip-rule="evenodd" d="M16 1.54754C16 1.83858 15.9265 2.11219 15.778 2.36837L15.7616 2.3858C15.7616 2.398 15.7584 2.40671 15.7535 2.41368C15.7486 2.41891 15.7453 2.42936 15.7453 2.44156L9.59674 10.3326V14.0691C9.59674 14.6041 9.45796 15.0589 9.17878 15.4354C8.89959 15.8118 8.50939 16 8.0098 16C7.49714 16 7.09878 15.8118 6.81469 15.4354C6.53061 15.0589 6.38857 14.6023 6.38857 14.0691V10.3135L0.306939 2.47642C0.101224 2.19758 0 1.88738 0 1.54754C0 1.32796 0.0391837 1.1258 0.119184 0.937589C0.199184 0.749374 0.303673 0.585557 0.434286 0.446139C0.564898 0.30672 0.718367 0.196928 0.894694 0.118506C1.07102 0.0400828 1.26204 0 1.46612 0H1.51673H14.529C14.9388 0 15.2865 0.151617 15.5706 0.454852C15.858 0.756345 16 1.12232 16 1.54754Z" fill="#777777"/>
</svg>
