<svg width="28" height="28" viewBox="0 0 28 28" fill="none" xmlns="http://www.w3.org/2000/svg">
<path d="M12.1313 0.498108C12.108 0.527075 11.7601 1.21186 11.3537 2.01841L10.6169 3.4805L10.3036 3.6197C9.5609 3.96195 9.76985 3.98529 7.88424 3.34691L6.20167 2.77265L4.61191 4.36242L3.02187 5.95218L3.54973 7.57091L4.07758 9.18964L3.88607 9.68853L3.68893 10.1874L2.0643 10.9996L0.439941 11.8123V13.7269C0.439941 14.777 0.445847 15.7925 0.463283 15.9722L0.486625 16.3088L1.98358 17.0631L3.48054 17.8232L3.61975 18.1309C3.962 18.8792 3.98534 18.6706 3.34696 20.5562L2.7727 22.2388L4.36246 23.8285L5.95223 25.4183L7.57096 24.8904L9.18969 24.3623L9.68858 24.5538L10.1875 24.7512L10.9996 26.3759L11.8118 28.0005L13.9587 27.989C15.1424 27.9831 16.1461 27.9715 16.204 27.9715C16.2678 27.9715 16.5288 27.5131 17.0626 26.4687L17.8227 24.9602L18.1304 24.821C18.8787 24.4787 18.6757 24.4495 20.5557 25.0937L22.2382 25.668L23.828 24.0782L25.4178 22.4885L24.8899 20.8698L24.3618 19.251L24.5533 18.7521L24.7507 18.2532L26.3753 17.4411L28 16.628L27.9884 15.6707C27.9825 15.1429 27.9769 14.1333 27.9769 13.4254L27.971 12.1374L26.4625 11.3773L24.9597 10.6171L24.8145 10.3039C24.4779 9.56114 24.4489 9.76418 25.0932 7.88448L25.6675 6.20191L24.0777 4.61215L22.488 3.0221L20.8692 3.54996L19.2505 4.07782L18.7516 3.8863L18.2527 3.68917L17.4405 2.06453L16.6278 0.440176H14.4056C12.9899 0.440176 12.1603 0.463516 12.1313 0.498108ZM16.3376 3.52099C16.7206 4.3042 17.0688 4.96564 17.1208 4.99461C17.1672 5.01795 17.6546 5.21509 18.2058 5.42404L19.2038 5.81269L20.6136 5.3543C21.5186 5.05845 22.0526 4.90743 22.1106 4.9423C22.157 4.96536 22.5574 5.34839 23.004 5.79526L23.8047 6.60181L23.2765 8.13927L22.7543 9.68263L23.2068 10.7156L23.6652 11.7541L24.2105 12.05C24.5063 12.2182 25.1098 12.5314 25.5508 12.7463L26.3464 13.1409L26.3405 14.394V15.6415L24.9132 16.3378C24.13 16.7208 23.4686 17.0746 23.4453 17.121C23.4219 17.1674 23.2248 17.6607 23.0102 18.206L22.6272 19.2041L22.9809 20.2949C23.1784 20.8984 23.387 21.5424 23.4509 21.728L23.5611 22.0762L22.7025 22.9407L21.8381 23.8052L20.2947 23.277L18.7513 22.7492L17.7187 23.2076L16.686 23.666L16.4191 24.1533C16.2681 24.4143 15.9551 25.0178 15.7228 25.4877L15.299 26.3466H14.0459L12.7984 26.3407L12.1021 24.9191C11.7249 24.1359 11.3709 23.4745 11.3188 23.4452C11.2724 23.4219 10.7792 23.2247 10.2339 23.0102L9.23581 22.6271L8.14494 22.9809C7.54143 23.1783 6.89742 23.387 6.71182 23.4508L6.36366 23.5611L5.49917 22.7025L4.63469 21.838L5.15692 20.2946L5.68478 18.7572L5.22639 17.7186L4.7739 16.686L4.2286 16.3901C3.93275 16.2219 3.32924 15.9084 2.88828 15.6938L2.09354 15.2993V14.0461L2.09945 12.7986L3.52104 12.1023C4.30425 11.7193 4.96569 11.3711 4.99466 11.3191C5.018 11.2727 5.21514 10.7853 5.42409 10.2341L5.81274 9.23604L5.34281 7.79702L4.87289 6.36389L5.73737 5.49941L6.60186 4.63492L8.13931 5.16278L9.68268 5.68502L10.7153 5.23253L11.7539 4.77413L12.0208 4.28677C12.1715 4.02579 12.4851 3.42228 12.7171 2.94645L13.1406 2.0935H14.3938L15.6413 2.0994L16.3376 3.52099Z" fill="#0C0C0C"/>
<circle cx="14.0208" cy="14.0207" r="5.43234" fill="#FFD500"/>
<path d="M13.3786 8.0757C11.4581 8.34849 9.57816 9.74674 8.66165 11.58C8.08711 12.7347 7.9015 13.901 8.09892 15.1193C8.62115 18.328 11.7135 20.7418 14.8351 20.3762C18.6297 19.9352 21.2695 16.042 20.1615 12.5317C19.2332 9.58419 16.2972 7.65808 13.3786 8.0757ZM15.4676 9.81057C16.7905 10.1472 17.8929 11.0986 18.421 12.352C18.6823 12.9729 18.7632 13.4254 18.7632 14.2494C18.7573 15.1721 18.6415 15.6651 18.241 16.4427C17.6957 17.5043 16.6628 18.3109 15.4386 18.636C14.7482 18.8216 13.6981 18.8216 13.0074 18.636C11.5684 18.2588 10.5068 17.319 9.9671 15.9612C9.74662 15.3867 9.67125 14.9575 9.67687 14.1915C9.68278 12.8453 10.1237 11.7488 11.0113 10.9017C11.754 10.1998 12.5487 9.8342 13.7268 9.67165C14.0693 9.62496 15.044 9.70033 15.4676 9.81057Z" fill="#0C0C0C"/>
</svg>
