<svg width="40" height="40" viewBox="0 0 40 40" fill="none" xmlns="http://www.w3.org/2000/svg">
<rect opacity="0.338565" width="40" height="40" fill="white" fill-opacity="0.01"/>
<path d="M18.1313 6.49837C18.108 6.52733 17.7601 7.21212 17.3537 8.01867L16.6169 9.48076L16.3036 9.61996C15.5609 9.96221 15.7699 9.98555 13.8842 9.34717L12.2017 8.77291L10.6119 10.3627L9.02187 11.9524L9.54973 13.5712L10.0776 15.1899L9.88607 15.6888L9.68893 16.1877L8.0643 16.9999L6.43994 17.8126V19.7272C6.43994 20.7773 6.44585 21.7928 6.46328 21.9725L6.48662 22.3091L7.98358 23.0634L9.48054 23.8235L9.61975 24.1312C9.962 24.8795 9.98534 24.6708 9.34696 26.5564L8.7727 28.239L10.3625 29.8288L11.9522 31.4185L13.571 30.8907L15.1897 30.3625L15.6886 30.5541L16.1875 30.7515L16.9996 32.3761L17.8118 34.0007L19.9587 33.9892C21.1424 33.9833 22.1461 33.9718 22.204 33.9718C22.2678 33.9718 22.5288 33.5134 23.0626 32.4689L23.8227 30.9604L24.1304 30.8212C24.8787 30.479 24.6757 30.4497 26.5557 31.094L28.2382 31.6683L29.828 30.0785L31.4178 28.4887L30.8899 26.87L30.3618 25.2513L30.5533 24.7524L30.7507 24.2535L32.3753 23.4413L34 22.6283L33.9884 21.671C33.9825 21.1431 33.9769 20.1336 33.9769 19.4257L33.971 18.1377L32.4625 17.3775L30.9597 16.6174L30.8145 16.3041C30.4779 15.5614 30.4489 15.7644 31.0932 13.8847L31.6675 12.2022L30.0777 10.6124L28.488 9.02236L26.8692 9.55022L25.2505 10.0781L24.7516 9.88656L24.2527 9.68943L23.4405 8.06479L22.6278 6.44044H20.4056C18.9899 6.44044 18.1603 6.46378 18.1313 6.49837ZM22.3376 9.52125C22.7206 10.3045 23.0688 10.9659 23.1208 10.9949C23.1672 11.0182 23.6546 11.2154 24.2058 11.4243L25.2038 11.813L26.6136 11.3546C27.5186 11.0587 28.0526 10.9077 28.1106 10.9426C28.157 10.9656 28.5574 11.3487 29.004 11.7955L29.8047 12.6021L29.2765 14.1395L28.7543 15.6829L29.2068 16.7158L29.6652 17.7544L30.2105 18.0502C30.5063 18.2184 31.1098 18.5317 31.5508 18.7466L32.3464 19.1411L32.3405 20.3942V21.6418L30.9132 22.3381C30.13 22.7211 29.4686 23.0749 29.4453 23.1213C29.4219 23.1677 29.2248 23.661 29.0102 24.2062L28.6272 25.2043L28.9809 26.2952C29.1784 26.8987 29.387 27.5427 29.4509 27.7283L29.5611 28.0765L28.7025 28.941L27.8381 29.8054L26.2947 29.2773L24.7513 28.7494L23.7187 29.2078L22.686 29.6662L22.4191 30.1536C22.2681 30.4146 21.9551 31.0181 21.7228 31.488L21.299 32.3469H20.0459L18.7984 32.341L18.1021 30.9194C17.7249 30.1362 17.3709 29.4747 17.3188 29.4455C17.2724 29.4221 16.7792 29.225 16.2339 29.0104L15.2358 28.6274L14.1449 28.9812C13.5414 29.1786 12.8974 29.3873 12.7118 29.4511L12.3637 29.5613L11.4992 28.7028L10.6347 27.8383L11.1569 26.2949L11.6848 24.7575L11.2264 23.7189L10.7739 22.6862L10.2286 22.3904C9.93275 22.2222 9.32924 21.9086 8.88828 21.6941L8.09354 21.2995V20.0464L8.09945 18.7989L9.52104 18.1025C10.3043 17.7195 10.9657 17.3714 10.9947 17.3193C11.018 17.2729 11.2151 16.7856 11.4241 16.2344L11.8127 15.2363L11.3428 13.7973L10.8729 12.3642L11.7374 11.4997L12.6019 10.6352L14.1393 11.163L15.6827 11.6853L16.7153 11.2328L17.7539 10.7744L18.0208 10.287C18.1715 10.0261 18.4851 9.42254 18.7171 8.94671L19.1406 8.09376H20.3938L21.6413 8.09966L22.3376 9.52125Z" fill="#0C0C0C"/>
<circle cx="20.0207" cy="20.021" r="5.43234" fill="#FFD500"/>
<path d="M19.3789 14.0757C17.4584 14.3485 15.5784 15.7468 14.6619 17.5801C14.0874 18.7348 13.9017 19.901 14.0992 21.1193C14.6214 24.328 17.7137 26.7418 20.8353 26.3762C24.6299 25.9352 27.2698 22.042 26.1617 18.5317C25.2334 15.5842 22.2974 13.6581 19.3789 14.0757ZM21.4678 15.8106C22.7907 16.1472 23.8931 17.0986 24.4212 18.352C24.6825 18.973 24.7635 19.4255 24.7635 20.2494C24.7576 21.1721 24.6417 21.6651 24.2413 22.4427C23.696 23.5043 22.663 24.3109 21.4388 24.636C20.7484 24.8216 19.6983 24.8216 19.0077 24.636C17.5686 24.2589 16.507 23.319 15.9673 21.9613C15.7469 21.3867 15.6715 20.9576 15.6771 20.1915C15.683 18.8453 16.124 17.7488 17.0115 16.9017C17.7542 16.1998 18.549 15.8342 19.727 15.6717C20.0696 15.625 21.0443 15.7003 21.4678 15.8106Z" fill="#0C0C0C"/>
</svg>
