<svg width="33" height="24" viewBox="0 0 33 24" fill="none" xmlns="http://www.w3.org/2000/svg">
<rect x="0.75" y="0.75" width="18.5" height="22.5" rx="3.25" stroke="#0C0C0C" stroke-width="1.5"/>
<rect x="4.75" y="4.75" width="10.5" height="14.5" rx="1.25" fill="#FFD500" stroke="black" stroke-width="1.5"/>
<path d="M31.192 13.9893L31.1957 13.9867C31.8657 13.5033 31.8715 12.4954 31.1925 12.0114L31.192 12.0111L24.8859 7.5237L24.8839 7.52233C24.0772 6.95237 22.9813 7.53665 22.9813 8.5128V10.6177H10.0295H9.21787L9.33712 11.4206C9.48324 12.4043 10.0443 13.3743 10.7648 14.0941C11.48 14.8086 12.4515 15.3728 13.4848 15.3728H22.9813V17.4876C22.9813 18.4573 24.0777 19.0518 24.8859 18.4767C24.8859 18.4767 24.8859 18.4767 24.8859 18.4767L31.192 13.9893L31.192 13.9893Z" fill="white" stroke="#0C0C0C" stroke-width="1.4"/>
</svg>
