<svg width="20" height="20" viewBox="0 0 20 20" fill="none" xmlns="http://www.w3.org/2000/svg">
<path fill-rule="evenodd" clip-rule="evenodd" d="M8.75061 3.12568C8.01192 3.12568 7.28047 3.27118 6.59802 3.55386C5.91556 3.83654 5.29546 4.25087 4.77313 4.7732C4.2508 5.29553 3.83647 5.91563 3.55379 6.59809C3.2711 7.28054 3.12561 8.01199 3.12561 8.75068C3.12561 9.48937 3.2711 10.2208 3.55379 10.9033C3.83647 11.5857 4.2508 12.2058 4.77313 12.7282C5.29546 13.2505 5.91556 13.6648 6.59802 13.9475C7.28047 14.2302 8.01192 14.3757 8.75061 14.3757C10.2425 14.3757 11.6732 13.783 12.7281 12.7282C13.783 11.6733 14.3756 10.2425 14.3756 8.75068C14.3756 7.25884 13.783 5.8281 12.7281 4.7732C11.6732 3.71831 10.2425 3.12568 8.75061 3.12568ZM1.87561 8.75068C1.87576 7.64659 2.14181 6.55878 2.65127 5.57926C3.16073 4.59974 3.8986 3.75733 4.80247 3.12328C5.70635 2.48923 6.74963 2.0822 7.84408 1.93662C8.93852 1.79103 10.0519 1.91118 11.0901 2.28689C12.1283 2.66261 13.0608 3.28284 13.8086 4.09511C14.5564 4.90739 15.0975 5.88783 15.3863 6.95348C15.6751 8.01914 15.7029 9.13866 15.4675 10.2174C15.2321 11.2961 14.7404 12.3022 14.0339 13.1507L17.9423 17.059C18.0037 17.1162 18.0529 17.1852 18.0871 17.2619C18.1213 17.3386 18.1396 17.4213 18.1411 17.5052C18.1426 17.5892 18.1271 17.6725 18.0957 17.7503C18.0643 17.8282 18.0175 17.8989 17.9581 17.9582C17.8988 18.0176 17.8281 18.0643 17.7503 18.0958C17.6724 18.1272 17.5891 18.1427 17.5052 18.1412C17.4213 18.1397 17.3385 18.1213 17.2618 18.0872C17.1852 18.053 17.1162 18.0038 17.0589 17.9423L13.1506 14.034C12.1466 14.8703 10.9251 15.4031 9.62921 15.5701C8.33329 15.737 7.01663 15.5313 5.83345 14.9769C4.65028 14.4224 3.6496 13.5423 2.94864 12.4396C2.24768 11.3369 1.87547 10.0573 1.87561 8.75068Z" fill="#989898"/>
</svg>
