<svg width="26" height="26" viewBox="0 0 26 26" fill="none" xmlns="http://www.w3.org/2000/svg">
<path fill-rule="evenodd" clip-rule="evenodd" d="M9.99214 0.969482C8.69153 0.969482 7.63717 2.02384 7.63717 3.32445C7.63717 4.62506 8.69153 5.67942 9.99214 5.67942H14.7021C16.0027 5.67942 17.057 4.62506 17.057 3.32445C17.057 2.02384 16.0027 0.969482 14.7021 0.969482H9.99214ZM5.74976 3.32445H5.87095C5.87095 5.60052 7.71607 7.44564 9.99214 7.44564H14.7021C16.9781 7.44564 18.8233 5.60052 18.8233 3.32445H18.9445C21.1536 3.32445 22.9445 5.11531 22.9445 7.32445V20.5192C22.9445 22.7283 21.1536 24.5192 18.9445 24.5192H5.74976C3.54062 24.5192 1.74976 22.7283 1.74976 20.5192V7.32445C1.74976 5.11531 3.54062 3.32445 5.74976 3.32445ZM11.464 10.3895C11.464 9.90174 11.8594 9.50636 12.3471 9.50636H17.057C17.5448 9.50636 17.9402 9.90174 17.9402 10.3895C17.9402 10.8772 17.5448 11.2726 17.057 11.2726H12.3471C11.8594 11.2726 11.464 10.8772 11.464 10.3895ZM12.3471 14.2163C11.8594 14.2163 11.464 14.6117 11.464 15.0994C11.464 15.5871 11.8594 15.9825 12.3471 15.9825H17.057C17.5448 15.9825 17.9402 15.5871 17.9402 15.0994C17.9402 14.6117 17.5448 14.2163 17.057 14.2163H12.3471ZM11.464 19.8093C11.464 19.3216 11.8594 18.9262 12.3471 18.9262H17.057C17.5448 18.9262 17.9402 19.3216 17.9402 19.8093C17.9402 20.2971 17.5448 20.6925 17.057 20.6925H12.3471C11.8594 20.6925 11.464 20.2971 11.464 19.8093ZM9.4034 10.3895C9.4034 11.0398 8.87622 11.567 8.22591 11.567C7.57561 11.567 7.04843 11.0398 7.04843 10.3895C7.04843 9.73916 7.57561 9.21199 8.22591 9.21199C8.87622 9.21199 9.4034 9.73916 9.4034 10.3895ZM8.22591 16.2769C8.87622 16.2769 9.4034 15.7497 9.4034 15.0994C9.4034 14.4491 8.87622 13.9219 8.22591 13.9219C7.57561 13.9219 7.04843 14.4491 7.04843 15.0994C7.04843 15.7497 7.57561 16.2769 8.22591 16.2769ZM9.4034 19.8093C9.4034 20.4596 8.87622 20.9868 8.22591 20.9868C7.57561 20.9868 7.04843 20.4596 7.04843 19.8093C7.04843 19.159 7.57561 18.6319 8.22591 18.6319C8.87622 18.6319 9.4034 19.159 9.4034 19.8093Z" fill="#ffd500"/>
</svg>
