<svg width="19" height="26" viewBox="0 0 19 26" fill="none" xmlns="http://www.w3.org/2000/svg">
<path fill-rule="evenodd" clip-rule="evenodd" d="M4.31763 5.71432C4.31763 4.29351 4.86363 2.93091 5.83551 1.92625C6.80739 0.921589 8.12555 0.357178 9.5 0.357178C10.8745 0.357178 12.1926 0.921589 13.1645 1.92625C14.1364 2.93091 14.6824 4.29351 14.6824 5.71432C14.6824 7.13512 14.1364 8.49773 13.1645 9.50239C12.1926 10.507 10.8745 11.0715 9.5 11.0715C8.12555 11.0715 6.80739 10.507 5.83551 9.50239C4.86363 8.49773 4.31763 7.13512 4.31763 5.71432ZM0.000137509 22.506C0.038971 19.928 1.05693 17.4691 2.83427 15.6602C4.61162 13.8513 7.0058 12.8375 9.5 12.8375C11.9942 12.8375 14.3884 13.8513 16.1657 15.6602C17.9431 17.4691 18.961 19.928 18.9999 22.506C19.0029 22.6795 18.9568 22.8502 18.8675 22.9972C18.7781 23.1441 18.6492 23.2609 18.4966 23.3333C15.6741 24.6711 12.605 25.3615 9.5 25.3572C6.29154 25.3572 3.24315 24.6333 0.503404 23.3333C0.350795 23.2609 0.221915 23.1441 0.132532 22.9972C0.0431499 22.8502 -0.00285817 22.6795 0.000137509 22.506Z" fill="#929292"/>
</svg>
