<svg width="22px" height="22px" viewBox="0 0 22 22" fill="none" xmlns="http://www.w3.org/2000/svg">
<rect width="10.4762" height="10.4762" rx="5.2381" fill="#FFD500" data-originalfillcolor="#FFD500"></rect>
<rect x="11.5238" width="10.4762" height="10.4762" rx="5.2381" fill="#FFD500" data-originalfillcolor="#FFD500"></rect>
<rect y="11.5238" width="10.4762" height="10.4762" rx="5.2381" fill="#FFD500" data-originalfillcolor="#FFD500"></rect>
<path fill-rule="evenodd" clip-rule="evenodd" d="M16.7619 14.5023C15.514 14.5023 14.5023 15.514 14.5023 16.7619C14.5023 18.0098 15.514 19.0215 16.7619 19.0215C18.0098 19.0215 19.0215 18.0098 19.0215 16.7619C19.0215 15.514 18.0098 14.5023 16.7619 14.5023ZM16.7619 11.5238C19.6548 11.5238 22 13.869 22 16.7619C22 19.6548 19.6548 22 16.7619 22C13.869 22 11.5238 19.6548 11.5238 16.7619C11.5238 13.869 13.869 11.5238 16.7619 11.5238Z" fill="#FFD500" data-originalfillcolor="#FFD500"></path>
</svg>