<svg width="24" height="26" viewBox="0 0 24 26" fill="none" xmlns="http://www.w3.org/2000/svg">
<path d="M23.9244 11.9694C23.8865 11.6181 23.4931 11.3537 23.1528 11.3537C22.0533 11.3537 21.0774 10.6815 20.6682 9.64095C20.2504 8.57546 20.52 7.3331 21.3392 6.55023C21.5972 6.30448 21.6287 5.89299 21.4124 5.60735C20.8494 4.86286 20.2098 4.19027 19.5113 3.60742C19.238 3.37908 18.8365 3.41086 18.5993 3.68429C17.8841 4.50943 16.5992 4.81605 15.6064 4.38456C14.5735 3.93187 13.9216 2.84131 13.9857 1.67073C14.0067 1.30281 13.7485 0.983114 13.3965 0.940408C12.5001 0.832292 11.5958 0.829157 10.6967 0.933056C10.3492 0.973059 10.0912 1.28519 10.1027 1.64846C10.1416 2.80757 9.48235 3.8789 8.45949 4.31536C7.47855 4.7328 6.20264 4.42845 5.48887 3.61055C5.25295 3.34113 4.85844 3.30804 4.58329 3.53152C3.86422 4.11935 3.21023 4.79237 2.64207 5.5308C2.42069 5.81785 2.45338 6.23388 2.71359 6.4805C3.54901 7.26855 3.81834 8.52162 3.3846 9.59954C2.97047 10.6272 1.94615 11.2892 0.77362 11.2892C0.39312 11.2764 0.122328 11.5427 0.0802926 11.9032C-0.0251595 12.8419 -0.0263012 13.799 0.0752068 14.7454C0.113091 15.0983 0.518189 15.3604 0.862154 15.3604C1.90733 15.3327 2.91017 16.0063 3.33146 17.0731C3.75067 18.1385 3.48081 19.3804 2.66024 20.1643C2.40356 20.4101 2.37076 20.8206 2.58748 21.1059C3.14474 21.8457 3.78492 22.5188 4.48552 23.1066C4.76056 23.3373 5.16058 23.305 5.39898 23.0312C6.11701 22.2041 7.40164 21.8981 8.39046 22.3304C9.4263 22.7819 10.0779 23.8724 10.0143 25.0433C9.99342 25.4112 10.2523 25.7319 10.603 25.7736C11.0617 25.8295 11.5229 25.8572 11.9855 25.8572C12.4245 25.8572 12.8637 25.8322 13.3028 25.7813C13.6507 25.7413 13.9083 25.4288 13.8966 25.0654C13.8564 23.9069 14.5172 22.8354 15.5388 22.3998C16.5263 21.9797 17.7965 22.2872 18.5107 23.1039C18.7478 23.3728 19.1399 23.4054 19.4162 23.1828C20.1341 22.5965 20.7868 21.9238 21.3574 21.1834C21.579 20.8969 21.5476 20.4803 21.2859 20.2333C20.4507 19.4458 20.1799 18.1922 20.6137 17.1153C21.0214 16.1015 22.0076 15.4208 23.0683 15.4208L23.2168 15.4249C23.5611 15.454 23.8776 15.1778 23.9192 14.8118C24.0252 13.8722 24.0263 12.9162 23.9244 11.9694ZM11.9999 20.5636C8.17904 20.5636 5.0818 17.3373 5.0818 13.3573C5.0818 9.37736 8.17914 6.15107 11.9999 6.15107C15.8207 6.15107 18.918 9.37736 18.918 13.3573C18.918 14.7082 18.5605 15.9718 17.9395 17.0523L14.9102 13.8967C15.1295 13.3581 15.2454 12.7742 15.2453 12.1715C15.2453 10.9914 14.8041 9.88204 14.0029 9.04771C13.2019 8.21338 12.1369 7.75389 11.0042 7.75389C10.6262 7.75389 10.25 7.80621 9.886 7.90947C9.72657 7.95477 9.59621 8.09164 9.55376 8.25803C9.51037 8.42821 9.55926 8.6026 9.68692 8.73569C9.68692 8.73569 11.1825 10.3055 11.6828 10.8267C11.7352 10.8813 11.7351 11.0115 11.7278 11.0585L11.7231 11.0927C11.6727 11.6657 11.5754 12.3536 11.4952 12.6179C11.4844 12.6291 11.4742 12.6385 11.4632 12.6499C11.4517 12.6619 11.4411 12.6735 11.43 12.6854C11.1729 12.7713 10.5024 12.8738 9.9436 12.9259L9.9437 12.9228L9.91859 12.9294C9.91412 12.9299 9.90582 12.9306 9.89482 12.9306C9.83441 12.9306 9.74557 12.913 9.66481 12.829C9.14399 12.2864 7.7071 10.8004 7.7071 10.8004C7.57819 10.6665 7.44596 10.6384 7.35784 10.6384C7.15244 10.6384 6.96852 10.793 6.9106 11.0148C6.51505 12.5395 6.93437 14.1797 8.00519 15.2952C8.80636 16.1296 9.87146 16.5891 11.0043 16.5891C11.5829 16.5891 12.1435 16.4686 12.6604 16.2401L15.7226 19.4299C14.6475 20.1465 13.3709 20.5636 11.9999 20.5636Z" fill="#929292"/>
</svg>
