<svg width="24" height="26" viewBox="0 0 24 26" fill="none" xmlns="http://www.w3.org/2000/svg">
<path d="M23.9243 11.9694C23.8864 11.6181 23.4929 11.3537 23.1527 11.3537C22.0531 11.3537 21.0773 10.6815 20.668 9.64095C20.2503 8.57546 20.5198 7.3331 21.3391 6.55023C21.5971 6.30448 21.6285 5.89299 21.4122 5.60735C20.8493 4.86286 20.2097 4.19027 19.5112 3.60742C19.2379 3.37908 18.8363 3.41086 18.5992 3.68429C17.8839 4.50943 16.5991 4.81605 15.6062 4.38456C14.5734 3.93187 13.9215 2.84131 13.9855 1.67073C14.0066 1.30281 13.7484 0.983114 13.3964 0.940408C12.5 0.832292 11.5956 0.829157 10.6966 0.933056C10.3491 0.973059 10.0911 1.28519 10.1026 1.64846C10.1415 2.80757 9.48223 3.8789 8.45936 4.31536C7.47843 4.7328 6.20252 4.42845 5.48875 3.61055C5.25283 3.34113 4.85832 3.30804 4.58317 3.53152C3.8641 4.11935 3.21011 4.79237 2.64195 5.5308C2.42057 5.81785 2.45326 6.23388 2.71346 6.4805C3.54888 7.26855 3.81822 8.52162 3.38448 9.59954C2.97035 10.6272 1.94603 11.2892 0.773498 11.2892C0.392998 11.2764 0.122206 11.5427 0.0801706 11.9032C-0.0252816 12.8419 -0.0264233 13.799 0.0750848 14.7454C0.112969 15.0983 0.518067 15.3604 0.862032 15.3604C1.90721 15.3327 2.91005 16.0063 3.33134 17.0731C3.75055 18.1385 3.48069 19.3804 2.66012 20.1643C2.40344 20.4101 2.37064 20.8206 2.58736 21.1059C3.14461 21.8457 3.7848 22.5188 4.48539 23.1066C4.76044 23.3373 5.16045 23.305 5.39886 23.0312C6.11689 22.2041 7.40152 21.8981 8.39034 22.3304C9.42618 22.7819 10.0778 23.8724 10.0142 25.0433C9.9933 25.4112 10.2522 25.7319 10.6029 25.7736C11.0616 25.8295 11.5228 25.8572 11.9854 25.8572C12.4244 25.8572 12.8635 25.8322 13.3027 25.7813C13.6506 25.7413 13.9082 25.4288 13.8965 25.0654C13.8563 23.9069 14.5171 22.8354 15.5387 22.3998C16.5261 21.9797 17.7963 22.2872 18.5105 23.1039C18.7477 23.3728 19.1398 23.4054 19.4161 23.1828C20.1339 22.5965 20.7867 21.9238 21.3573 21.1834C21.5789 20.8969 21.5475 20.4803 21.2858 20.2333C20.4506 19.4458 20.1798 18.1922 20.6136 17.1153C21.0212 16.1015 22.0075 15.4208 23.0682 15.4208L23.2166 15.4249C23.561 15.454 23.8775 15.1778 23.9191 14.8118C24.0251 13.8722 24.0262 12.9162 23.9243 11.9694ZM11.9998 20.5636C8.17892 20.5636 5.08168 17.3373 5.08168 13.3573C5.08168 9.37736 8.17902 6.15107 11.9998 6.15107C15.8206 6.15107 18.9179 9.37736 18.9179 13.3573C18.9179 14.7082 18.5604 15.9718 17.9394 17.0523L14.9101 13.8967C15.1294 13.3581 15.2453 12.7742 15.2451 12.1715C15.2451 10.9914 14.8039 9.88204 14.0028 9.04771C13.2018 8.21338 12.1368 7.75389 11.0041 7.75389C10.6261 7.75389 10.2499 7.80621 9.88587 7.90947C9.72645 7.95477 9.59609 8.09164 9.55364 8.25803C9.51025 8.42821 9.55914 8.6026 9.6868 8.73569C9.6868 8.73569 11.1823 10.3055 11.6827 10.8267C11.7351 10.8813 11.735 11.0115 11.7277 11.0585L11.723 11.0927C11.6725 11.6657 11.5753 12.3536 11.4951 12.6179C11.4843 12.6291 11.4741 12.6385 11.4631 12.6499C11.4516 12.6619 11.441 12.6735 11.4299 12.6854C11.1728 12.7713 10.5023 12.8738 9.94348 12.9259L9.94358 12.9228L9.91846 12.9294C9.914 12.9299 9.9057 12.9306 9.8947 12.9306C9.83429 12.9306 9.74544 12.913 9.66469 12.829C9.14387 12.2864 7.70698 10.8004 7.70698 10.8004C7.57807 10.6665 7.44584 10.6384 7.35772 10.6384C7.15232 10.6384 6.9684 10.793 6.91048 11.0148C6.51493 12.5395 6.93425 14.1797 8.00507 15.2952C8.80623 16.1296 9.87134 16.5891 11.0042 16.5891C11.5828 16.5891 12.1433 16.4686 12.6603 16.2401L15.7225 19.4299C14.6474 20.1465 13.3708 20.5636 11.9998 20.5636Z" fill="#FFD500"/>
</svg>
