<svg width="27" height="24" viewBox="0 0 27 24" fill="none" xmlns="http://www.w3.org/2000/svg">
<mask id="mask0_3767_18853" style="mask-type:luminance" maskUnits="userSpaceOnUse" x="0" y="0" width="27" height="24">
<path d="M0.870083 0H26.5987V24H0.870083V0Z" fill="white"/>
</mask>
<g mask="url(#mask0_3767_18853)">
<path d="M26.2555 9.62764L14.2834 0.227094C14.2459 0.197602 14.2064 0.171546 14.1646 0.148639C14.1228 0.126019 14.0796 0.106835 14.0346 0.0910867C13.9897 0.0756248 13.9436 0.0638853 13.8966 0.0561543C13.8496 0.0481371 13.8024 0.0441284 13.7549 0.0441284C13.7073 0.0441284 13.6601 0.0481371 13.6131 0.0561543C13.5662 0.0638853 13.5204 0.0756248 13.4754 0.0910867C13.4305 0.106835 13.3869 0.126019 13.3451 0.148639C13.3033 0.171546 13.2638 0.197602 13.2266 0.227094L1.25422 9.62764C1.21957 9.65512 1.18721 9.6849 1.15715 9.71726C1.1268 9.74961 1.0996 9.78397 1.07469 9.82062C1.05006 9.85699 1.0283 9.89536 1.0094 9.93516C0.990504 9.97524 0.974756 10.0165 0.962444 10.0589C0.950132 10.1012 0.940969 10.1442 0.935243 10.188C0.92923 10.2318 0.926939 10.2756 0.928084 10.3197C0.92923 10.3641 0.933525 10.4076 0.941255 10.4511C0.949273 10.4946 0.96044 10.5373 0.974756 10.5788C0.989359 10.6206 1.00683 10.661 1.02744 10.6999C1.04834 10.7392 1.07182 10.7761 1.09845 10.8116C1.12479 10.8468 1.15371 10.88 1.1855 10.911C1.21699 10.9416 1.25078 10.97 1.28686 10.9954C1.32294 11.0212 1.36044 11.0438 1.39996 11.0636C1.43947 11.0833 1.48042 11.1 1.52251 11.1134C1.5646 11.1269 1.60726 11.1372 1.65107 11.1438C1.69459 11.1506 1.73869 11.1541 1.78278 11.1541H5.2033V21.4096C5.2033 21.4935 5.20759 21.5774 5.21561 21.6607C5.22391 21.7443 5.23623 21.8274 5.25255 21.9098C5.26915 21.992 5.28948 22.0733 5.31382 22.1538C5.33816 22.2342 5.36651 22.313 5.39857 22.3906C5.43093 22.4682 5.46672 22.544 5.50624 22.6182C5.54604 22.6921 5.58899 22.7642 5.63566 22.8338C5.68233 22.9037 5.73244 22.971 5.7857 23.036C5.83895 23.101 5.89536 23.1631 5.95492 23.2224C6.01419 23.2819 6.07632 23.338 6.14132 23.3913C6.20632 23.4446 6.2736 23.4947 6.34347 23.5413C6.41333 23.588 6.48549 23.631 6.55936 23.6708C6.63352 23.7103 6.7094 23.7461 6.787 23.7781C6.86459 23.8102 6.94362 23.8385 7.02408 23.8629C7.10454 23.8872 7.18586 23.9078 7.26832 23.9242C7.35078 23.9405 7.43382 23.9528 7.51743 23.9611C7.60104 23.9691 7.68493 23.9734 7.76883 23.9734H11.1893C11.2457 23.9734 11.3013 23.968 11.3563 23.9568C11.4112 23.9459 11.4648 23.9299 11.5166 23.9084C11.5687 23.8869 11.618 23.8606 11.6646 23.8294C11.7113 23.7982 11.7546 23.7627 11.7941 23.7232C11.8339 23.6834 11.8694 23.6401 11.9006 23.5934C11.9318 23.5468 11.9581 23.4975 11.9796 23.4457C12.0011 23.3939 12.0171 23.3406 12.0283 23.2854C12.0392 23.2304 12.0446 23.1748 12.0446 23.1187V17.9911C12.0446 17.935 12.0475 17.8791 12.0529 17.8236C12.0584 17.7677 12.0667 17.7125 12.0775 17.6575C12.0884 17.6028 12.1019 17.5484 12.1182 17.4949C12.1345 17.4413 12.1534 17.3886 12.1749 17.3368C12.1964 17.2853 12.2201 17.2346 12.2465 17.1854C12.2731 17.1358 12.3017 17.088 12.3329 17.0413C12.3639 16.9949 12.3974 16.95 12.4329 16.9067C12.4684 16.8635 12.5059 16.822 12.5457 16.7825C12.5852 16.743 12.6267 16.7052 12.67 16.6697C12.7132 16.6342 12.7581 16.6009 12.8048 16.5697C12.8512 16.5388 12.8993 16.5099 12.9488 16.4836C12.9981 16.4572 13.0488 16.4334 13.1003 16.412C13.1521 16.3905 13.2048 16.3716 13.2584 16.3553C13.3122 16.3392 13.3663 16.3255 13.4213 16.3146C13.4763 16.3037 13.5315 16.2954 13.5874 16.29C13.6429 16.2846 13.699 16.2817 13.7549 16.2817C13.8104 16.2831 13.866 16.2874 13.9212 16.294C13.9765 16.3006 14.0312 16.31 14.0856 16.3218C14.14 16.3338 14.1935 16.3481 14.2465 16.365C14.2995 16.3822 14.3516 16.4017 14.4025 16.4234C14.4538 16.4455 14.5036 16.4698 14.5526 16.4964C14.6013 16.5231 14.6488 16.552 14.6949 16.5832C14.741 16.6144 14.7854 16.6476 14.8283 16.6831C14.8713 16.7183 14.9122 16.7559 14.9517 16.7951C14.991 16.8343 15.0285 16.8755 15.0637 16.9185C15.0992 16.9612 15.1324 17.0058 15.1636 17.0516C15.1948 17.0977 15.2237 17.1453 15.2507 17.1939C15.2773 17.2426 15.3016 17.2927 15.3234 17.3437C15.3454 17.3949 15.3649 17.4468 15.3818 17.4997C15.399 17.5527 15.4133 17.6063 15.4253 17.6607C15.4371 17.7151 15.4465 17.7698 15.4531 17.825C15.4597 17.88 15.464 17.9355 15.4651 17.9911V23.1187C15.4651 23.1748 15.4709 23.2304 15.4817 23.2854C15.4926 23.3406 15.5089 23.3939 15.5304 23.4457C15.5519 23.4975 15.5782 23.5468 15.6094 23.5934C15.6406 23.6401 15.6762 23.6834 15.7157 23.7232C15.7555 23.7627 15.7987 23.7982 15.8454 23.8294C15.892 23.8606 15.9413 23.8869 15.9931 23.9084C16.0449 23.9299 16.0985 23.9459 16.1535 23.9568C16.2087 23.968 16.2643 23.9734 16.3204 23.9734H19.7409C19.8251 23.9734 19.909 23.9691 19.9926 23.9611C20.0762 23.9528 20.1592 23.9405 20.2414 23.9242C20.3239 23.9078 20.4055 23.8872 20.4857 23.8629C20.5661 23.8385 20.6451 23.8102 20.7227 23.7781C20.8003 23.7461 20.8762 23.7103 20.9504 23.6708C21.0245 23.631 21.0964 23.588 21.1663 23.5413C21.2361 23.4947 21.3037 23.4446 21.3684 23.3913C21.4334 23.338 21.4955 23.2819 21.5551 23.2224C21.6144 23.1631 21.6708 23.101 21.724 23.036C21.7776 22.971 21.8274 22.9037 21.8741 22.8338C21.9207 22.7642 21.964 22.6921 22.0035 22.6182C22.0433 22.544 22.0791 22.4682 22.1112 22.3906C22.1432 22.313 22.1716 22.2342 22.1959 22.1538C22.2205 22.0733 22.2409 21.992 22.2572 21.9098C22.2735 21.8274 22.2858 21.7443 22.2941 21.6607C22.3024 21.5774 22.3064 21.4935 22.3064 21.4096V11.1541H25.7272C25.7713 11.1541 25.8151 11.1506 25.859 11.1438C25.9025 11.1372 25.9454 11.1269 25.9875 11.1134C26.0296 11.1 26.0703 11.0833 26.1098 11.0636C26.1493 11.0438 26.1871 11.0212 26.2232 10.9954C26.259 10.97 26.2927 10.9416 26.3245 10.911C26.356 10.88 26.3852 10.8468 26.4116 10.8116C26.4379 10.7761 26.4617 10.7392 26.4823 10.6999C26.5029 10.661 26.5207 10.6206 26.535 10.5788C26.5496 10.5373 26.5607 10.4946 26.5685 10.4511C26.5762 10.4076 26.5808 10.3641 26.5819 10.3197C26.5828 10.2756 26.5805 10.2318 26.5748 10.188C26.5691 10.1442 26.5599 10.1012 26.5476 10.0589C26.535 10.0165 26.5192 9.97524 26.5006 9.93516C26.4817 9.89536 26.46 9.85699 26.435 9.82062C26.4104 9.78397 26.3829 9.74961 26.3529 9.71726C26.3228 9.6849 26.2905 9.65512 26.2555 9.62764Z" fill="url(#paint0_linear_3767_18853)"/>
</g>
<defs>
<linearGradient id="paint0_linear_3767_18853" x1="13.755" y1="0.0441284" x2="13.755" y2="23.9734" gradientUnits="userSpaceOnUse">
<stop stop-color="#EEA401"/>
<stop offset="1" stop-color="#FFE200"/>
</linearGradient>
</defs>
</svg>
