<svg width="38" height="38" viewBox="0 0 38 38" fill="none" xmlns="http://www.w3.org/2000/svg">
<path fill-rule="evenodd" clip-rule="evenodd" d="M16.2526 18.1466L15.6144 15.6512L18.9851 13.4998C18.9192 13.3984 18.9512 13.2624 19.0555 13.2011L19.8842 12.7132C19.9714 12.6425 20.096 12.6536 20.1705 12.7387L25.353 17.7893C25.3785 17.8184 25.396 17.8541 25.4039 17.8926L25.6167 18.9381C25.7888 19.7834 25.2644 20.6265 24.4549 20.8062L23.1478 21.0119L23.1377 20.9624C23.1212 20.8812 23.1496 20.7972 23.2112 20.7448L23.4416 20.6327V18.2515C23.4457 18.2024 23.4653 18.1561 23.4975 18.12L23.9896 17.8926L19.8842 14.0712L16.7692 15.966L17.5981 18.1466H17.9939V15.7836C17.9939 15.6491 18.0983 15.5401 18.227 15.5401H20.1001C20.1791 15.5401 20.2528 15.582 20.2958 15.6512L21.173 17.0656C21.1975 17.105 21.2105 17.151 21.2105 17.1979V19.4272C21.2105 19.5616 21.1061 19.6706 20.9774 19.6706H15.0154C14.8866 19.6706 14.7823 19.5616 14.7823 19.4272V18.39C14.7823 18.2556 14.8866 18.1466 15.0154 18.1466H16.2526ZM15.2339 22.1657C14.691 22.1657 14.2508 21.7061 14.2508 21.1392C14.2508 20.5723 14.691 20.1127 15.2339 20.1127H21.429C21.9719 20.1127 22.4121 20.5723 22.4121 21.1392C22.4121 21.7061 21.9719 22.1657 21.429 22.1657H15.2339Z" fill="#E9445A"/>
<path fill-rule="evenodd" clip-rule="evenodd" d="M19 36.4167C22.9583 36.4167 33.25 25.0137 33.25 17.2408C33.25 9.46793 26.8701 3.16675 19 3.16675C11.1299 3.16675 4.75 9.46793 4.75 17.2408C4.75 25.0137 15.0417 36.4167 19 36.4167ZM23.5322 23.9083C25.5782 22.4771 26.9163 20.1032 26.9163 17.4168C26.9163 13.0445 23.3719 9.50009 18.9997 9.50009C14.6274 9.50009 11.083 13.0445 11.083 17.4168C11.083 20.1032 12.4211 22.4771 14.4672 23.9083C15.7511 24.8065 17.3139 25.3334 18.9997 25.3334C20.6855 25.3334 22.2482 24.8065 23.5322 23.9083Z" fill="#E9445A"/>
</svg>
