<svg width="27" height="26" viewBox="0 0 27 26" fill="none" xmlns="http://www.w3.org/2000/svg">
<path fill-rule="evenodd" clip-rule="evenodd" d="M10.4924 0.969482C9.19177 0.969482 8.13742 2.02384 8.13742 3.32445C8.13742 4.62506 9.19177 5.67942 10.4924 5.67942H15.2023C16.5029 5.67942 17.5573 4.62506 17.5573 3.32445C17.5573 2.02384 16.5029 0.969482 15.2023 0.969482H10.4924ZM6.25 3.32445H6.37119C6.37119 5.60052 8.21631 7.44564 10.4924 7.44564H15.2023C17.4784 7.44564 19.3235 5.60052 19.3235 3.32445H19.4447C21.6538 3.32445 23.4447 5.11531 23.4447 7.32445V20.5192C23.4447 22.7283 21.6538 24.5192 19.4447 24.5192H6.25C4.04086 24.5192 2.25 22.7283 2.25 20.5192V7.32445C2.25 5.11531 4.04086 3.32445 6.25 3.32445ZM11.9642 10.3895C11.9642 9.90174 12.3596 9.50636 12.8474 9.50636H17.5573C18.045 9.50636 18.4404 9.90174 18.4404 10.3895C18.4404 10.8772 18.045 11.2726 17.5573 11.2726H12.8474C12.3596 11.2726 11.9642 10.8772 11.9642 10.3895ZM12.8474 14.2163C12.3596 14.2163 11.9642 14.6117 11.9642 15.0994C11.9642 15.5871 12.3596 15.9825 12.8474 15.9825H17.5573C18.045 15.9825 18.4404 15.5871 18.4404 15.0994C18.4404 14.6117 18.045 14.2163 17.5573 14.2163H12.8474ZM11.9642 19.8093C11.9642 19.3216 12.3596 18.9262 12.8474 18.9262H17.5573C18.045 18.9262 18.4404 19.3216 18.4404 19.8093C18.4404 20.2971 18.045 20.6925 17.5573 20.6925H12.8474C12.3596 20.6925 11.9642 20.2971 11.9642 19.8093ZM9.90364 10.3895C9.90364 11.0398 9.37647 11.567 8.72616 11.567C8.07585 11.567 7.54868 11.0398 7.54868 10.3895C7.54868 9.73916 8.07585 9.21199 8.72616 9.21199C9.37647 9.21199 9.90364 9.73916 9.90364 10.3895ZM8.72616 16.2769C9.37647 16.2769 9.90364 15.7497 9.90364 15.0994C9.90364 14.4491 9.37647 13.9219 8.72616 13.9219C8.07585 13.9219 7.54868 14.4491 7.54868 15.0994C7.54868 15.7497 8.07585 16.2769 8.72616 16.2769ZM9.90364 19.8093C9.90364 20.4596 9.37647 20.9868 8.72616 20.9868C8.07585 20.9868 7.54868 20.4596 7.54868 19.8093C7.54868 19.159 8.07585 18.6319 8.72616 18.6319C9.37647 18.6319 9.90364 19.159 9.90364 19.8093Z" fill="#929292"/>
</svg>
