<svg width="22" height="15" viewBox="0 0 22 15" fill="none" xmlns="http://www.w3.org/2000/svg">
<path fill-rule="evenodd" clip-rule="evenodd" d="M0 1.50086C0 0.672429 0.671573 0 1.5 0H15.7945C16.6229 0 17.2945 0.672429 17.2945 1.50086C17.2945 2.32928 16.6229 3.00171 15.7945 3.00171H1.5C0.671575 3.00171 0 2.32928 0 1.50086ZM0 7.30408C0 6.47565 0.671573 5.80322 1.5 5.80322H12.8443C13.6727 5.80322 14.3443 6.47565 14.3443 7.30408C14.3443 8.13251 13.6727 8.80493 12.8443 8.80493H1.5C0.671574 8.80493 0 8.13251 0 7.30408ZM1.5 11.4065C0.671573 11.4065 0 12.0789 0 12.9073C0 13.7358 0.671574 14.4082 1.5 14.4082H9.99576C10.8242 14.4082 11.4958 13.7358 11.4958 12.9073C11.4958 12.0789 10.8242 11.4065 9.99576 11.4065H1.5Z" fill="#777777"/>
<path d="M18.5 6V14M18.5 14L16 10.8889M18.5 14L21 10.8889" stroke="#777777" stroke-width="2" stroke-linecap="round" stroke-linejoin="round"/>
</svg>
