<svg width="191" height="160" viewBox="0 0 191 160" fill="none" xmlns="http://www.w3.org/2000/svg">
<path d="M90.8711 11.3491V17.9862" stroke="#8D9CFD" stroke-width="1.5" stroke-linecap="round"/>
<path d="M87.5532 14.668H94.1902" stroke="#8D9CFD" stroke-width="1.5" stroke-linecap="round"/>
<path d="M40.0331 137.739H35.3335V142.439H40.0331V137.739Z" stroke="#8D9CFD" stroke-width="1.5"/>
<path d="M49.4156 154.337C47.9145 151.737 47.5078 148.647 48.2848 145.747C49.0618 142.847 50.9589 140.375 53.5589 138.874L66.8096 131.224C67.3352 130.333 67.7369 129.375 68.0035 128.376C68.3924 126.941 68.4927 125.443 68.2986 123.968C68.1046 122.494 67.6199 121.072 66.8728 119.787C65.8761 118.067 64.4456 116.639 62.7242 115.645C61.0028 114.652 59.0508 114.127 57.0632 114.124C56.394 114.124 55.7262 114.184 55.0678 114.303L20.2915 134.38C17.6938 135.839 14.6256 136.215 11.7522 135.427C8.87878 134.639 6.43191 132.75 4.94222 130.17C3.45253 127.589 3.04013 124.526 3.79446 121.643C4.54879 118.761 6.40903 116.292 8.97174 114.772L53.5963 89.0089C54.947 87.151 55.7005 84.9261 55.7567 82.6297C55.813 80.3333 55.1692 78.0742 53.911 76.1524C52.6528 74.2306 50.8397 72.737 48.7125 71.8701C46.5853 71.0032 44.2448 70.8039 42.0016 71.2988L16.8659 85.8118C14.2682 87.2711 11.2 87.6475 8.32656 86.8594C5.45317 86.0713 3.0063 84.1822 1.51661 81.6019C0.0269237 79.0215 -0.385475 75.9579 0.368853 73.0754C1.12318 70.193 2.98342 67.7241 5.54613 66.2043L117.498 1.56812C118.786 0.808856 120.212 0.312293 121.693 0.107102C123.174 -0.0980882 124.681 -0.00784025 126.127 0.372635C127.573 0.75311 128.93 1.41628 130.118 2.32384C131.306 3.2314 132.303 4.36537 133.051 5.66029C133.798 6.9552 134.282 8.3854 134.474 9.8683C134.666 11.3512 134.562 12.8574 134.169 14.3C133.775 15.7425 133.1 17.0929 132.182 18.273C131.264 19.4531 130.121 20.4397 128.819 21.1757L98.6765 38.5787C97.35 40.2462 96.5209 42.2542 96.2846 44.3718C96.0484 46.4894 96.4144 48.6308 97.3408 50.5497C98.2671 52.4686 99.7161 54.0871 101.521 55.2193C103.326 56.3514 105.414 56.9512 107.545 56.9497C108.162 56.9496 108.777 56.8987 109.386 56.7974L158.24 28.5909C159.528 27.8425 160.95 27.3556 162.426 27.158C163.903 26.9604 165.403 27.056 166.842 27.4393C168.281 27.8227 169.631 28.4863 170.813 29.392C171.995 30.2978 172.987 31.428 173.732 32.7177C174.476 34.0075 174.959 35.4315 175.152 36.9082C175.346 38.3849 175.246 39.8853 174.858 41.3232C174.471 42.7612 173.803 44.1086 172.894 45.2882C171.985 46.4678 170.852 47.4563 169.56 48.1972L111.09 81.9564C109.835 83.6409 109.074 85.641 108.891 87.7332C108.709 89.8254 109.111 91.9272 110.055 93.8037C110.998 95.6801 112.444 97.2572 114.233 98.3587C116.021 99.4602 118.08 100.043 120.18 100.041C120.406 100.041 120.632 100.034 120.856 100.02L144.007 86.6585C145.295 85.9153 146.716 85.4329 148.19 85.2389C149.664 85.0449 151.161 85.1431 152.597 85.5278C154.033 85.9126 155.379 86.5765 156.559 87.4815C157.738 88.3865 158.728 89.515 159.471 90.8024C160.214 92.0899 160.696 93.5111 160.89 94.985C161.084 96.4589 160.986 97.9566 160.601 99.3925C160.217 100.828 159.553 102.174 158.648 103.354C157.743 104.533 156.614 105.523 155.327 106.266L64.8799 158.481C63.5926 159.225 62.1713 159.708 60.6973 159.903C59.2232 160.097 57.7253 159.999 56.2892 159.614C54.853 159.23 53.5068 158.566 52.3274 157.66C51.148 156.755 50.1585 155.626 49.4156 154.338V154.337Z" fill="#F2F6FF"/>
<path d="M160.26 27.8182L157.606 25.165L154.953 27.8182L157.606 30.4714L160.26 27.8182Z" stroke="#F05B5D" stroke-width="1.5"/>
<path d="M156.659 123.826H161.968L159.233 118.759L156.659 123.826Z" stroke="#FFD500" stroke-width="1.5" stroke-linejoin="round"/>
<path d="M178.747 92.9026C185.396 92.9026 190.786 87.5127 190.786 80.8639C190.786 74.2151 185.396 68.8252 178.747 68.8252C172.098 68.8252 166.708 74.2151 166.708 80.8639C166.708 87.5127 172.098 92.9026 178.747 92.9026Z" fill="#F2F6FF"/>
<path d="M185.079 64.7226C185.079 63.1628 183.815 61.8984 182.255 61.8984C180.695 61.8984 179.431 63.1628 179.431 64.7226C179.431 66.2823 180.695 67.5467 182.255 67.5467C183.815 67.5467 185.079 66.2823 185.079 64.7226Z" stroke="#8D9CFD" stroke-width="1.5"/>
<path d="M9.71631 102.971H15.0255L12.2902 97.9038L9.71631 102.971Z" stroke="#F05B5D" stroke-width="1.5" stroke-linejoin="round"/>
<path d="M29.6058 35.3349C29.6058 33.7751 28.3414 32.5107 26.7816 32.5107C25.2219 32.5107 23.9575 33.7751 23.9575 35.3349C23.9575 36.8946 25.2219 38.159 26.7816 38.159C28.3414 38.159 29.6058 36.8946 29.6058 35.3349Z" stroke="#FFD500" stroke-width="1.5"/>
<path d="M97.2646 143.787V149.001" stroke="#8D9CFD" stroke-width="1.5" stroke-linecap="round"/>
<path d="M94.6587 146.394H99.872" stroke="#8D9CFD" stroke-width="1.5" stroke-linecap="round"/>
<g filter="url(#filter0_d_2445_19875)">
<path d="M94.108 122.163L86.0073 125.896L79.5536 119.726L70.6837 120.618L66.5765 112.679L57.8986 110.632L56.5828 101.785L49.0373 97.0226L50.6556 88.2263L45.0601 81.2631L49.4371 73.4708L46.398 65.0618L53.0593 59.1177L52.906 50.1741L61.1299 46.7225L63.8789 38.2135L72.7741 37.6283L78.1276 30.4761L86.7302 32.8208L94.108 27.8003L101.486 32.8208L110.088 30.4761L115.442 37.6283L124.337 38.2135L127.086 46.7225L135.31 50.1741L135.157 59.1177L141.818 65.0618L138.779 73.4708L143.156 81.2631L137.56 88.2263L139.179 97.0226L131.633 101.785L130.317 110.632L121.639 112.679L117.532 120.618L108.662 119.726L102.209 125.896L94.108 122.163Z" fill="#FFD500"/>
</g>
<path d="M76.6829 77.4682L88.7954 89.5644L113.246 67.0539" stroke="#353535" stroke-width="8.86" stroke-linecap="round"/>
<defs>
<filter id="filter0_d_2445_19875" x="39.0601" y="24.8003" width="110.096" height="110.096" filterUnits="userSpaceOnUse" color-interpolation-filters="sRGB">
<feFlood flood-opacity="0" result="BackgroundImageFix"/>
<feColorMatrix in="SourceAlpha" type="matrix" values="0 0 0 0 0 0 0 0 0 0 0 0 0 0 0 0 0 0 127 0" result="hardAlpha"/>
<feOffset dy="3"/>
<feGaussianBlur stdDeviation="3"/>
<feColorMatrix type="matrix" values="0 0 0 0 0 0 0 0 0 0 0 0 0 0 0 0 0 0 0.1 0"/>
<feBlend mode="normal" in2="BackgroundImageFix" result="effect1_dropShadow_2445_19875"/>
<feBlend mode="normal" in="SourceGraphic" in2="effect1_dropShadow_2445_19875" result="shape"/>
</filter>
</defs>
</svg>
