<svg width="20" height="22" viewBox="0 0 20 22" fill="none" xmlns="http://www.w3.org/2000/svg">
<g filter="url(#filter0_d_3537_5379)">
<path d="M17.9751 9.4539C17.9055 8.63502 17.7043 7.83788 17.3846 7.10008C17.2225 6.73207 17.0346 6.37756 16.8147 6.04558C16.7612 5.96176 16.7029 5.88087 16.646 5.79978C16.6175 5.75924 16.5867 5.72007 16.5571 5.68031C16.5272 5.64074 16.4978 5.60099 16.4662 5.56279L16.373 5.44724C16.3413 5.40944 16.3081 5.37261 16.2758 5.3354L16.1783 5.22435L16.1539 5.19673L16.1284 5.1701L16.077 5.11702C15.8062 4.83224 15.5125 4.5741 15.2016 4.34416C14.8897 4.11521 14.5608 3.91465 14.2201 3.74308C13.5388 3.40013 12.81 3.17372 12.0725 3.07324C12.7889 3.27772 13.462 3.60088 14.0604 4.01747C14.3597 4.22587 14.6404 4.45757 14.8981 4.71003C15.1549 4.96347 15.3886 5.23689 15.5951 5.52676L15.6342 5.58062L15.6538 5.60764L15.672 5.63565L15.7448 5.7471C15.7688 5.78431 15.7936 5.82093 15.8171 5.85834L15.8849 5.97233C15.9079 6.00994 15.929 6.04891 15.9503 6.0875C15.9715 6.12628 15.9937 6.16427 16.0137 6.20364C16.0538 6.28237 16.0949 6.36013 16.1311 6.44043C16.2824 6.75831 16.4017 7.0899 16.4964 7.42579C16.6814 8.09955 16.7537 8.79739 16.7155 9.47897C16.6756 10.1604 16.5247 10.8249 16.2702 11.4293C16.0145 12.0318 15.6518 12.5812 15.2148 13.0534C14.7764 13.5244 14.2644 13.9179 13.7143 14.2133C13.3888 14.3868 13.0504 14.5256 12.7071 14.6273L12.4253 13.3844L8.74756 16.8421L13.5477 18.3337L13.2497 17.0197C13.8444 16.7764 14.4002 16.4603 14.9054 16.0872C15.603 15.5696 16.2066 14.9438 16.6934 14.2411C17.1783 13.5375 17.5456 12.7547 17.7628 11.9339C17.9776 11.1138 18.0419 10.272 17.9745 9.45332L17.9751 9.4539Z" fill="white"/>
<path d="M5.10199 14.6243C4.84512 14.3708 4.6115 14.0974 4.40499 13.8075L4.36586 13.7537L4.3463 13.7267L4.32809 13.6986L4.25525 13.5872C4.23123 13.55 4.20643 13.5134 4.18299 13.476L4.11519 13.362C4.09214 13.3244 4.07103 13.2854 4.04972 13.2468C4.0286 13.208 4.00632 13.17 3.98637 13.1307C3.94627 13.0519 3.9052 12.9742 3.86879 12.8939C3.71749 12.576 3.59816 12.2444 3.50344 11.9085C3.31824 11.2348 3.24618 10.5369 3.28434 9.85533C3.32425 9.17394 3.47515 8.50939 3.7297 7.90497C3.9854 7.30251 4.34804 6.75313 4.78507 6.28092C5.22345 5.80988 5.73544 5.4164 6.2856 5.12105C6.61104 4.94752 6.94947 4.80865 7.29273 4.707L7.57459 5.94992L11.2523 2.49224L6.45239 1L6.75032 2.31401C6.15561 2.55727 5.59984 2.87338 5.09463 3.24649C4.39705 3.76414 3.79343 4.38991 3.30662 5.09265C2.82175 5.79617 2.45446 6.57901 2.2373 7.39985C2.02247 8.21952 1.95815 9.06151 2.02557 9.8802C2.09511 10.6991 2.29638 11.4962 2.61602 12.234C2.77816 12.602 2.96606 12.9565 3.18593 13.2885C3.2394 13.3723 3.29771 13.4532 3.35466 13.5343C3.38314 13.5749 3.41394 13.614 3.44358 13.6538C3.47341 13.6934 3.50285 13.7331 3.53443 13.7713L3.62761 13.8869C3.65938 13.9247 3.6925 13.9615 3.72485 13.9987L3.82229 14.1098L3.8467 14.1374L3.87227 14.164L3.92361 14.2171C4.19442 14.5019 4.4881 14.76 4.79901 14.9899C5.1109 15.2189 5.43983 15.4195 5.78058 15.591C6.46188 15.934 7.19064 16.1604 7.92812 16.2609C7.21176 16.0564 6.53859 15.7332 5.9402 15.3166C5.64091 15.1082 5.36021 14.8765 5.10257 14.6241L5.10199 14.6243Z" fill="white"/>
</g>
<defs>
<filter id="filter0_d_3537_5379" x="0" y="0" width="20" height="21.3335" filterUnits="userSpaceOnUse" color-interpolation-filters="sRGB">
<feFlood flood-opacity="0" result="BackgroundImageFix"/>
<feColorMatrix in="SourceAlpha" type="matrix" values="0 0 0 0 0 0 0 0 0 0 0 0 0 0 0 0 0 0 127 0" result="hardAlpha"/>
<feOffset dy="1"/>
<feGaussianBlur stdDeviation="1"/>
<feComposite in2="hardAlpha" operator="out"/>
<feColorMatrix type="matrix" values="0 0 0 0 0 0 0 0 0 0 0 0 0 0 0 0 0 0 0.16 0"/>
<feBlend mode="normal" in2="BackgroundImageFix" result="effect1_dropShadow_3537_5379"/>
<feBlend mode="normal" in="SourceGraphic" in2="effect1_dropShadow_3537_5379" result="shape"/>
</filter>
</defs>
</svg>
