<svg width="20" height="20" viewBox="0 0 20 20" fill="none" xmlns="http://www.w3.org/2000/svg">
<g id="Icon/Fill/trash-2">
<path id="Mask" fill-rule="evenodd" clip-rule="evenodd" d="M13.3334 13.3333C13.3334 13.7916 12.9584 14.1666 12.5001 14.1666C12.0417 14.1666 11.6667 13.7916 11.6667 13.3333V9.99996C11.6667 9.54163 12.0417 9.16663 12.5001 9.16663C12.9584 9.16663 13.3334 9.54163 13.3334 9.99996V13.3333ZM8.33341 3.60663C8.33341 3.47746 8.51175 3.33329 8.75008 3.33329H11.2501C11.4884 3.33329 11.6667 3.47746 11.6667 3.60663V4.99996H8.33341V3.60663ZM8.33341 13.3333C8.33341 13.7916 7.95841 14.1666 7.50008 14.1666C7.04175 14.1666 6.66675 13.7916 6.66675 13.3333V9.99996C6.66675 9.54163 7.04175 9.16663 7.50008 9.16663C7.95841 9.16663 8.33341 9.54163 8.33341 9.99996V13.3333ZM17.5001 4.99996H16.6667H13.3334V3.60663C13.3334 2.53663 12.3992 1.66663 11.2501 1.66663H8.75008C7.60091 1.66663 6.66675 2.53663 6.66675 3.60663V4.99996H3.33341H2.50008C2.04175 4.99996 1.66675 5.37496 1.66675 5.83329C1.66675 6.29163 2.04175 6.66663 2.50008 6.66663H3.33341V15.8333C3.33341 17.2116 4.45508 18.3333 5.83341 18.3333H14.1667C15.5451 18.3333 16.6667 17.2116 16.6667 15.8333V6.66663H17.5001C17.9584 6.66663 18.3334 6.29163 18.3334 5.83329C18.3334 5.37496 17.9584 4.99996 17.5001 4.99996Z" fill="#231F20"/>
<mask id="mask0_10343_1674" style="mask-type:luminance" maskUnits="userSpaceOnUse" x="1" y="1" width="18" height="18">
<path id="Mask_2" fill-rule="evenodd" clip-rule="evenodd" d="M13.3334 13.3333C13.3334 13.7916 12.9584 14.1666 12.5001 14.1666C12.0417 14.1666 11.6667 13.7916 11.6667 13.3333V9.99996C11.6667 9.54163 12.0417 9.16663 12.5001 9.16663C12.9584 9.16663 13.3334 9.54163 13.3334 9.99996V13.3333ZM8.33341 3.60663C8.33341 3.47746 8.51175 3.33329 8.75008 3.33329H11.2501C11.4884 3.33329 11.6667 3.47746 11.6667 3.60663V4.99996H8.33341V3.60663ZM8.33341 13.3333C8.33341 13.7916 7.95841 14.1666 7.50008 14.1666C7.04175 14.1666 6.66675 13.7916 6.66675 13.3333V9.99996C6.66675 9.54163 7.04175 9.16663 7.50008 9.16663C7.95841 9.16663 8.33341 9.54163 8.33341 9.99996V13.3333ZM17.5001 4.99996H16.6667H13.3334V3.60663C13.3334 2.53663 12.3992 1.66663 11.2501 1.66663H8.75008C7.60091 1.66663 6.66675 2.53663 6.66675 3.60663V4.99996H3.33341H2.50008C2.04175 4.99996 1.66675 5.37496 1.66675 5.83329C1.66675 6.29163 2.04175 6.66663 2.50008 6.66663H3.33341V15.8333C3.33341 17.2116 4.45508 18.3333 5.83341 18.3333H14.1667C15.5451 18.3333 16.6667 17.2116 16.6667 15.8333V6.66663H17.5001C17.9584 6.66663 18.3334 6.29163 18.3334 5.83329C18.3334 5.37496 17.9584 4.99996 17.5001 4.99996Z" fill="white"/>
</mask>
<g mask="url(#mask0_10343_1674)">
<g id="&#240;&#159;&#142;&#168; Color">
<rect id="Base" width="20" height="20" fill="#E9445A"/>
</g>
</g>
</g>
</svg>
